<svg width="116" height="116" viewBox="0 0 116 116" fill="none" xmlns="http://www.w3.org/2000/svg">
<g id="Frame" clip-path="url(#clip0_106_45979)">
<g id="Group">
<path id="Vector" d="M74.1458 41.9223C72.0386 42.5703 69.9179 42.8899 67.9087 44.6847C66.6045 45.8571 65.1702 46.4002 63.9365 47.8932C63.644 48.2364 63.393 48.0965 63.1455 48.0811C59.9173 47.8686 56.6779 47.8362 53.4195 47.9268C50.512 48.0053 47.6403 47.6909 44.6899 47.5522C46.0409 45.4453 47.6073 43.8714 49.384 43.0898C51.2429 42.257 53.1393 42.0928 54.9785 40.8521C56.1956 40.7134 57.4035 40.1787 58.6037 39.5872C59.1289 39.315 59.6879 39.2256 60.1511 38.4977C60.2305 38.1299 60.1412 37.9324 59.9815 37.7756C59.7649 37.6266 59.516 37.6337 59.2748 37.6977C57.8271 37.9124 56.4104 38.7164 54.9733 39.3045C54.7174 39.4241 54.5494 39.7637 54.3603 40.0795C53.0877 40.9263 51.7778 41.1044 50.5045 41.4204C48.1884 41.9763 46.2199 43.8414 44.3775 46.4033C43.6977 47.3435 43.0635 47.7332 42.217 47.9063C39.6309 48.4454 37.0623 48.5225 34.4846 48.9266C32.466 49.2413 30.5477 48.8507 28.5754 48.7843C26.5805 48.7164 24.5983 48.4461 22.3898 48.9071C24.1148 46.2362 25.9884 44.6249 27.7727 42.8161C27.8415 42.4364 27.7972 42.2416 27.5413 42.3612C25.8919 43.4556 24.3706 45.0323 22.9344 46.8742C21.1671 49.1358 19.2581 49.5025 17.2802 49.8875C13.8398 50.5427 10.4309 50.1496 6.98357 51.2788C5.23143 51.8473 3.48925 52.9811 1.76108 53.8898C1.38704 54.0924 0.9891 54.3161 0.674957 55.1888C1.2298 55.5283 1.75574 55.4255 2.33155 55.0661C5.82648 52.8105 9.30057 51.9766 12.8395 51.9148C15.0664 51.8841 17.3747 51.2713 19.6352 50.7006C23.3174 49.7893 26.8557 50.2809 30.4544 50.1663C33.4653 50.0603 35.6756 51.7453 37.6379 54.6911C38.3927 56.1725 39.5184 56.4121 40.6758 56.3261C41.6743 56.2528 42.6671 56.2695 43.6572 56.3312C44.1346 56.4626 44.6029 56.5595 45.0972 56.4209C45.4375 56.3969 45.7462 56.3371 45.7278 55.5454C45.3865 54.3156 44.6005 54.6055 43.9304 54.6654C42.7041 54.7697 41.5263 54.6398 40.423 54.0402C40.1691 53.9453 39.9131 53.7035 39.6614 53.7556C37.5851 54.27 36.6902 51.5939 35.2893 50.1513C37.142 49.9619 38.999 49.7049 40.8349 49.424C44.1065 48.9389 47.4281 48.5586 50.5593 49.2394C52.3307 49.6321 54.1449 50.6035 55.7688 51.9132C56.7153 52.6724 57.7969 53.0786 58.6324 54.1697C58.958 54.5627 59.193 55.1421 59.5559 55.4809C60.4801 56.9616 61.8154 57.4627 62.8612 58.6234C63.492 58.8321 64.0715 59.32 64.7633 59.092C64.9623 58.9802 65.1085 58.8086 65.176 58.4514C65.0669 57.846 64.7272 57.678 64.4115 57.4889C63.2906 57.3513 62.6259 55.8755 61.64 55.3849C61.4578 55.2267 61.2286 55.2802 61.0598 55.089C59.5921 53.8117 58.1539 52.4232 56.63 51.3231C55.6356 50.606 54.6293 49.8996 53.2651 49.3176C55.1037 48.9917 56.6401 48.8051 58.1477 48.899C61.6789 49.1417 65.2755 48.8801 68.8032 49.3597C69.6991 49.4833 70.3566 49.9874 70.8413 51.0905C71.3456 52.2401 71.9899 53.1386 72.9624 53.3008C72.3596 52.2807 71.5797 51.5657 71.1006 50.3726C71.028 49.5436 71.7967 50.0771 71.7438 49.2945C69.7312 48.6044 67.6457 48.3615 65.3639 48.1854C68.4045 45.2464 71.3869 43.4219 74.5468 43.0993C74.845 43.3889 75.1923 43.2524 75.5382 43.1385C76.0845 42.8901 76.6378 42.5293 77.194 42.4849C77.5371 42.416 77.8634 42.2556 78.1854 42.1627C78.5194 42.0593 78.8576 41.8883 79.1929 41.7624C79.3082 41.7244 79.425 41.6639 79.5417 41.6034C80.064 41.0148 80.884 41.6306 81.191 40.1476C81.1094 40.007 81.0145 39.8994 80.9062 39.8249C79.9618 39.5741 79.0028 40.1016 78.0473 40.3922C76.6804 40.9395 75.3683 40.6093 74.1458 41.9223Z" fill="#67342F"/>
<path id="Vector_2" d="M77.9952 40.8633C78.9585 40.6297 79.9041 40.1352 80.8492 40.1941C81.1472 39.7609 81.3742 39.199 81.6828 38.7778C81.8888 38.5535 81.6567 38.2905 81.7847 38.05C81.798 38.017 81.8522 38.0542 81.8705 38.1231C82.0386 38.5063 81.706 38.5872 81.6575 38.8214C81.5592 39.3122 81.6254 39.7003 81.8321 40.0069C82.4073 40.2008 83.0345 39.9237 83.5978 40.1282C83.9508 40.2631 84.0676 40.9255 84.422 41.0379C84.5226 41.0555 84.6365 41.04 84.7412 40.99C85.0864 40.7066 85.4527 40.4471 85.6087 39.7566C85.5728 39.4268 85.6015 39.1462 85.8272 38.9683C85.9109 38.8944 86.017 38.822 86.1007 38.7482C86.4431 38.5097 86.787 38.6102 87.1209 38.5068C87.386 38.4217 87.6405 38.3246 87.9028 38.2845C88.0737 38.2612 88.234 38.226 88.3971 38.1458C88.6811 37.9377 89.1065 37.8173 89.0677 37.1712C89.0338 36.6269 88.6289 36.9631 88.3842 36.9027C88.0178 36.8008 87.615 36.9225 87.2943 36.6315C83.5472 36.7707 79.7882 36.559 76.0311 39.5776C76.5361 40.5352 77.5113 39.9296 77.9952 40.8633Z" fill="#E69B52"/>
<path id="Vector_3" d="M62.614 41.3844C63.7285 41.4426 64.8416 41.5232 65.951 40.3952C66.1594 38.3187 67.2845 38.3889 68.0641 37.6581C68.1161 37.5484 68.1681 37.4387 68.2202 37.329C68.1047 36.6442 67.725 36.5754 67.3347 36.4946C67.7257 36.3834 68.1217 37.097 68.4555 36.2708C68.776 35.4775 68.3189 35.2006 68.1325 34.7485C68.0614 34.6198 67.989 34.5137 67.9166 34.4075C67.5698 33.6292 66.996 33.7742 66.4609 33.8425C66.1621 33.7448 65.8969 33.1071 65.544 33.695C65.1778 34.3159 65.4795 34.73 65.7243 35.1519C65.3009 34.6963 64.8719 34.3307 64.3783 34.2774C63.7497 34.2156 63.2519 34.5912 63.544 35.8856C63.6517 36.5135 64.3884 35.927 64.3268 36.917C64.2906 39.3091 64.2906 39.3091 62.8134 39.9964C62.6159 40.0857 62.4563 40.2904 62.3256 40.5759C62.2398 40.8642 62.2336 41.1461 62.3081 41.3992C62.4045 41.4843 62.5064 41.4794 62.614 41.3844Z" fill="#E79A42"/>
<path id="Vector_4" d="M94.877 51.6057C96.467 52.3712 98.1334 52.091 99.8292 51.3383C100.229 51.2616 99.3305 50.4602 100.073 50.5065C100.456 50.5303 100.856 50.2616 101.171 49.7504C101.495 49.2511 101.749 48.6231 101.596 47.9924C101.453 47.3962 101.027 47.5165 100.685 47.7549C100.284 48.0236 99.8448 48.0075 99.4209 48.4668C100.046 47.4893 100.422 46.5414 99.5638 45.8102C98.0751 45.2318 96.5949 44.5184 94.9152 45.193C95.5651 46.363 96.761 45.4775 97.4566 46.4582C97.8624 46.6529 97.8006 47.2816 97.788 47.8455C97.9035 48.5303 97.621 49.4388 97.9607 49.9682C98.3806 50.6608 97.8201 50.0498 97.8447 50.1982C97.5494 50.225 97.2351 50.3748 96.9448 50.5035C96.2818 51.1738 95.5076 50.7302 94.877 51.6057Z" fill="#F3C48A"/>
<path id="Vector_5" d="M42.3916 61.233C44.4998 62.2002 46.6718 61.6014 48.8674 60.2587C49.5016 59.869 50.1724 59.6172 50.7523 58.8288C51.541 57.7712 51.6949 56.9337 50.8861 56.1379C49.8344 57.4276 48.6538 57.3428 47.5373 57.8605C47.4417 57.9449 47.3553 58.0637 47.2568 58.1931C46.9068 58.736 46.587 59.3373 46.1856 59.7979C46.0168 59.9681 45.884 60.4681 45.6618 60.0476C45.2624 60.2938 44.9951 59.8706 44.6471 59.8376C44.5451 59.8425 44.4404 59.8925 44.3461 59.9544C44.0235 60.2392 43.7036 60.479 43.3562 60.6155C43.1228 60.7365 42.8711 60.7886 42.6257 60.9201C42.5421 60.9939 42.457 61.0903 42.3916 61.233Z" fill="#F7D7AB"/>
<path id="Vector_6" d="M100.762 70.269C100.336 69.3051 99.9104 68.3411 99.4729 67.3877C98.2711 66.9175 96.9781 67.5485 95.735 67.5614C95.2596 67.577 94.7105 67.5089 94.3668 68.4926C94.568 68.8892 94.7467 69.2843 94.9478 69.6808C96.1434 70.7944 97.6594 70.7533 98.9097 71.7122C99.632 72.2654 100.485 71.4489 100.762 70.269Z" fill="#F0BB78"/>
<path id="Vector_7" d="M61.0029 55.0968C61.1414 55.2297 61.2919 55.352 61.441 55.4968C62.0148 55.7133 62.5655 56.1203 63.2025 56.047C64.0448 55.9414 64.3818 56.5158 64.2273 57.9067C64.4981 58.093 64.7913 58.2807 65.0621 58.4669C65.1634 59.0154 65.4475 59.1686 65.7555 59.3007C65.9538 59.3809 66.1521 59.461 66.3588 59.4061C66.7012 59.1677 67.0641 59.1451 67.4044 59.1211C68.1348 58.4551 68.1936 57.1487 68.5943 56.1571C67.3537 55.0408 65.9797 54.6163 64.4638 55.0188C63.2818 55.3179 62.163 54.9658 61.0029 55.0968Z" fill="#DB9657"/>
<path id="Vector_8" d="M87.7349 61.8224C87.6547 61.2978 87.3664 61.2121 87.1076 61.0153C86.3369 60.6962 85.7341 59.676 84.8186 59.8675C84.7005 59.9505 84.5916 60.0679 84.5459 60.2571C84.0969 62.2056 84.0969 62.2056 82.5705 62.9575C82.0685 63.0392 81.6254 62.5372 81.0918 62.9444C80.3481 64.0049 80.4263 64.7439 81.2258 65.1438C81.9382 65.4932 82.5733 66.3572 83.4921 65.206C83.9694 64.6146 84.3106 65.4829 84.7283 65.667C85.1903 65.6845 85.2759 65.0348 85.4657 64.5271C85.4409 63.2945 86.0884 63.2332 86.5089 63.0109C86.9877 62.7584 87.4553 62.6859 87.7349 61.8224Z" fill="#EBAD69"/>
<path id="Vector_9" d="M62.6673 63.0048C65.7531 65.3204 68.9758 65.9842 72.5247 62.6816C72.4276 62.4271 72.2757 62.3273 72.0971 62.2935C71.9846 62.2865 71.8601 62.2901 71.7448 62.3281C71.2027 62.5089 70.6648 62.6222 70.1199 62.848C69.2846 63.2025 68.5211 63.4938 67.8114 62.3766C67.2979 61.554 66.2954 62.0563 65.5036 62.0747C64.8588 62.091 64.1895 62.3203 63.5257 62.4597C63.2276 62.5314 62.9203 62.5688 62.6673 63.0048Z" fill="#F5CD99"/>
<path id="Vector_10" d="M90.6448 47.7505C89.0099 47.7051 87.4309 48.7587 85.8912 49.9051C84.2334 51.1345 82.6585 52.1206 81.0186 51.2504C80.7957 51.0219 80.7353 51.2666 80.7262 51.5936C81.5074 51.9246 82.3034 52.2001 83.0552 52.6423C83.5453 52.9326 84.02 53.109 84.5698 52.6237L84.5445 52.6673C84.5254 52.4289 84.4951 52.0092 84.519 51.9881C86.7062 50.4189 88.8645 48.4075 91.2187 48.6898C92.0957 49.6592 93.1679 48.9468 94.1649 48.8959C94.4588 48.8917 94.7239 48.8065 94.9911 48.507C95.107 48.277 95.1197 48.0745 95.0303 47.8769C93.659 47.0461 92.1691 47.213 90.6448 47.7505Z" fill="#6F3C37"/>
<path id="Vector_11" d="M81.0967 40.2096C80.5526 40.9662 79.8642 40.5958 79.3215 41.33C79.2261 42.4987 79.7724 42.2503 79.9812 42.3424C80.3377 42.2404 80.1269 42.7242 80.1873 42.4795C80.202 42.4239 80.1676 42.4331 80.1015 42.4064C79.8237 42.3326 79.5706 42.4072 79.352 42.834C79.1988 43.4795 79.4478 43.8339 79.6265 44.229C79.8432 44.7395 80.4716 44.0784 80.552 44.9643C80.7784 44.9559 81.0167 44.9368 81.2432 44.9284C81.5839 43.6282 82.075 44.8108 82.4722 44.4176C82.806 43.5914 83.2948 43.9042 83.718 43.6369C83.8164 43.5075 83.8712 43.3528 83.905 43.1742C83.9281 42.9837 83.9274 42.8142 83.9041 42.6433C83.3527 41.7054 82.8027 40.745 82.0846 40.1243C81.8463 40.1433 81.6894 39.9416 81.546 39.7067C81.3434 39.6941 81.1121 39.6006 81.0967 40.2096Z" fill="#DF9652"/>
<path id="Vector_12" d="M63.6621 35.8027C63.5972 34.6692 63.993 34.2986 64.4494 34.7675C64.9269 35.2603 65.5274 35.0493 66.0886 35.8297C65.9886 34.8973 65.5365 34.7223 65.5961 33.9467C66.0144 33.5775 66.0385 34.6406 66.39 34.4367C67.0691 33.6884 66.6746 33.3137 66.337 32.9312C63.7402 32.7355 61.2219 34.3631 58.7155 35.9801C58.9251 36.603 59.3224 36.5713 59.7049 36.5952C60.9043 35.8341 62.0547 35.8606 63.1917 36.2816C63.3654 36.2134 63.5313 36.0882 63.6621 35.8027Z" fill="#ECAA57"/>
<path id="Vector_13" d="M102.056 66.5322C102.475 67.0553 103.007 67.224 103.54 67.3701C103.788 67.555 104.073 67.5163 104.331 67.5436C105.111 66.9824 104.378 66.2477 104.587 65.617C104.113 64.6952 104.168 63.2643 103.707 62.332C103.434 61.9988 103.141 61.8111 102.761 61.9342C101.818 62.7451 100.819 63.0104 99.8554 63.6054C99.9145 63.7447 99.9511 63.8825 100.01 64.0217C100.221 64.4527 100.493 64.7859 100.86 64.6958C101.804 64.4158 102.019 65.3102 102.056 66.5322Z" fill="#E6964A"/>
<path id="Vector_14" d="M47.2041 31.129C46.136 31.0511 45.0665 31.3572 44.0021 32.1266C43.9417 32.3713 44.301 32.2243 44.1133 32.5176C44.0388 32.6259 43.8855 32.5486 43.7702 32.5865C43.3103 32.716 42.8435 32.958 42.9738 33.9487C43.0836 34.7235 43.4823 35.0307 43.9646 34.5413C44.6036 33.8921 45.1485 33.6663 45.6795 34.3884C46.5367 34.2272 47.4185 34.5758 48.2417 33.5089C48.4209 33.3507 48.5911 33.158 48.7731 32.9548C48.9791 32.7304 49.2287 32.5314 49.2012 32.0666C49.1765 31.5568 48.9402 31.3614 48.6449 31.3882C48.1337 31.4354 47.6506 31.394 47.2041 31.129Z" fill="#F0B878"/>
<path id="Vector_15" d="M68.5956 56.1346C67.6928 56.4849 67.9701 58.1963 67.3416 58.8574C67.1701 59.0726 67.1413 59.3532 67.1801 59.6379C67.2272 59.7877 67.2982 59.9163 67.3707 60.0225C68.5585 61.0791 68.6661 60.9842 68.864 58.8958C68.833 58.668 68.7353 58.9668 68.8499 58.7594C68.9152 58.6166 68.9785 58.6883 68.9434 58.8894C69.0645 59.8457 69.7178 60.0558 69.8523 60.979C70.9542 61.2397 71.3591 60.9035 71.6696 59.545C70.6822 58.354 69.8163 56.8431 68.5956 56.1346Z" fill="#E7A968"/>
<path id="Vector_16" d="M99.5413 45.8088C100.264 46.893 99.4924 47.6806 98.8584 48.7931C99.6086 48.5349 100.095 48.8927 100.605 48.3147C100.896 47.994 101.271 47.5994 101.378 48.2273C101.452 48.6724 101.237 49.4157 100.834 49.7069C100.574 49.8939 100.305 50.0466 100.017 50.1303C99.2117 50.3737 99.8439 50.9214 99.8067 51.3369C101.235 50.8838 102.338 49.6763 102.842 47.2117C102.192 46.7646 101.454 46.6509 100.875 45.971C100.461 45.9113 100.012 45.8608 99.5413 45.8088Z" fill="#F6D1A0"/>
<path id="Vector_17" d="M43.1831 40.0154C43.2625 40.0091 43.342 40.0027 43.4123 39.9619C44.9863 38.0835 46.7305 36.7353 48.3883 35.1445C49.0103 34.0425 49.9053 33.2738 50.1624 31.686C49.4275 31.3353 49.1247 32.7508 48.57 33.1341C48.3816 33.2579 48.2079 33.3261 48.0223 33.4049C47.7749 34.1123 47.4607 34.6236 46.958 34.8972C45.7325 35.5324 44.5599 36.5887 43.2894 36.8597C42.6826 36.9913 42.1131 37.4301 42.0887 38.7275C42.3567 39.3202 42.8152 39.5746 43.1831 40.0154Z" fill="#F5CD9C"/>
<path id="Vector_18" d="M66.3264 32.9192C66.4214 33.3882 66.7351 33.7918 66.3795 34.4247C66.9004 34.22 67.4671 33.8261 67.7296 34.8702C67.783 34.738 67.8427 34.6853 67.9194 34.7239C67.9524 34.7373 67.9588 34.8167 67.9426 34.8948C68.0763 35.2871 68.3921 35.8376 68.3014 36.024C67.969 36.8277 67.7228 36.067 67.4478 35.9482C67.0196 35.7521 66.8221 36.2028 66.5824 36.9672C67.2265 36.7815 67.7693 36.7701 68.2096 37.3171C68.684 36.4092 69.1465 35.5119 69.6104 34.5921C69.9421 33.2575 69.8484 32.4046 68.8802 32.5363C68.035 32.6869 67.1807 32.8031 66.3264 32.9192Z" fill="#EBA44E"/>
<path id="Vector_19" d="M82.7346 56.5187C81.7326 56.4676 80.7306 56.4164 79.7286 56.3653C78.9074 56.8562 78.1506 55.9507 77.3112 56.7342C77.3037 58.1229 78.0463 58.1692 78.5864 58.5642C79.0723 58.922 79.5526 59.3698 80.1391 59.3838C80.8977 58.9906 81.6253 58.3696 82.3931 58.0108C82.6686 57.5762 82.9442 57.1417 82.7346 56.5187Z" fill="#BC723E"/>
<path id="Vector_20" d="M81.0609 63.078C81.5819 63.2348 82.1149 63.3809 82.636 63.5376C82.8953 62.8197 83.9592 62.965 83.5075 61.5138C83.3042 60.9703 83.0503 60.514 82.5975 60.531C82.3697 60.5619 82.1482 60.6724 81.9401 60.7498C81.1027 60.9573 80.2631 61.018 79.4137 61.2361C78.8188 60.6343 78.4445 59.3912 77.5072 59.7507C77.4723 60.6747 77.6854 61.4221 77.9464 62.1273C78.7848 63.1734 79.9856 62.3899 80.8914 63.0788C80.9589 63.083 81.0159 63.0752 81.0609 63.078Z" fill="#D79559"/>
<path id="Vector_21" d="M84.0719 44.6642C85.3101 44.5493 86.5152 44.0597 87.5809 42.545C87.7552 41.9233 88.1974 41.533 88.2436 40.7905C88.3405 39.5993 87.9439 39.4391 87.3448 39.6276C86.8955 39.7691 86.5377 40.255 86.1236 40.5567C85.8993 40.7122 85.602 40.9534 85.5915 41.3029C85.5587 42.7352 84.9202 42.8309 84.3486 43.1228C84.0267 43.5771 83.8608 44.0637 84.0719 44.6642Z" fill="#EBAA65"/>
<path id="Vector_22" d="M37.9142 35.0339C37.1352 35.5726 36.4111 36.3181 35.7735 37.3061C36.3312 37.9621 36.9751 37.0535 37.5707 37.1019C37.6846 37.0864 37.788 37.059 37.8927 37.009C37.9975 36.9591 38.1036 36.8866 38.1993 36.8022C38.3448 36.8226 38.5471 35.751 38.6774 36.7417C38.9552 37.1769 39.3061 37.1649 39.6921 36.9517C39.9585 36.8441 40.182 35.7964 40.4887 36.6738C40.6906 37.2398 41.0865 37.2306 41.4788 37.097C41.902 36.8297 42.2648 36.4457 42.3272 35.6251C41.5886 34.0657 40.6392 33.3514 39.2774 34.3621C38.85 34.6969 38.3909 34.9958 37.9142 35.0339Z" fill="#ECB171"/>
<path id="Vector_23" d="M99.2164 60.4484C99.2995 61.2894 99.3362 62.15 99.6556 62.825C100.49 63.9386 101.408 62.9794 102.302 62.4026C102.785 62.0826 102.604 61.371 102.781 60.8739C103.042 60.1334 102.397 59.4269 102.964 58.6716C102.806 58.6618 102.649 58.652 102.491 58.6421C101.925 58.6746 101.581 59.6584 101.078 59.932C100.463 60.56 99.8328 59.4365 99.2164 60.4484Z" fill="#C06F34"/>
<path id="Vector_24" d="M100.762 70.2689C99.923 71.5833 99.2262 71.7092 98.7429 70.5836C98.6444 70.3516 98.5404 70.2096 98.3878 70.3017C97.369 70.882 96.6194 70.2254 95.838 69.5329C95.6348 69.3508 95.2446 69.6315 94.9359 69.6913C96.1754 72.6373 98.2602 72.3493 100.26 72.1577C101.123 72.0759 101.125 71.1386 100.762 70.2689Z" fill="#F6D099"/>
<path id="Vector_25" d="M110.638 62.9333C110.203 62.6578 109.769 62.3822 109.334 62.1066C108.566 64.103 107.649 65.7626 106.316 66.6847C105.985 66.9126 105.481 66.8473 105.433 67.8043C107.198 68.1175 108.712 66.6533 110.189 64.8818C110.431 64.2644 110.915 63.7524 110.638 62.9333Z" fill="#EEB26A"/>
<path id="Vector_26" d="M64.7723 58.7651C64.0952 58.5761 63.4405 58.3885 62.7633 58.1995C62.1193 58.3852 61.6062 59.3697 60.9572 59.4535C60.6246 59.5344 60.2737 59.185 59.9447 59.7518C60.2071 60.4345 60.5827 60.9323 60.9969 61.3534C61.2318 61.5714 61.499 61.6332 61.7796 61.662C62.5895 61.351 63.3601 60.5858 64.1841 60.4113C64.5392 60.3318 64.8647 60.002 65.0298 59.3459C65.0508 59.0084 64.9228 58.8875 64.7723 58.7651Z" fill="#C5824D"/>
<path id="Vector_27" d="M45.6893 34.2309C45.4648 32.9406 44.9683 32.9323 44.2759 33.7136C43.9848 34.0343 43.7255 34.7522 43.3513 34.232C43.2262 34.0661 43.0819 33.6618 43.1276 33.4726C43.33 32.7624 43.7632 33.0605 44.0803 32.8656C44.3031 32.7327 44.5155 32.5878 44.9028 32.3522C44.502 32.2594 44.2348 32.1976 43.9901 32.1372C43.4311 32.2266 42.882 32.5199 42.3379 32.9152C41.6405 33.5945 41.3826 34.29 42.1027 35.0577C42.2715 35.2489 42.3735 35.6054 42.3933 36.0132C42.61 36.5237 42.9855 36.66 43.3096 36.3527C44.0934 35.5545 44.9997 35.3286 45.6893 34.2309Z" fill="#EEB473"/>
<path id="Vector_28" d="M47.3968 58.3036C48.3081 58.5411 49.2241 57.0734 50.1945 57.8116C50.5391 58.0815 50.5297 56.6014 50.8861 56.1379C50.6815 55.9784 50.4768 55.8188 50.2722 55.6592C49.7772 55.6284 49.4145 56.3738 48.9293 56.5468C48.6072 55.9169 49.3159 55.4189 49.1709 54.8452C48.0499 53.9847 46.844 53.582 45.4926 54.2432C45.684 54.7973 46.0468 54.7747 46.3815 54.8408C47.0594 54.8378 47.4251 55.4931 47.6243 56.4655C47.552 57.0822 47.0866 57.6631 47.3968 58.3036Z" fill="#F6D1A0"/>
<path id="Vector_29" d="M84.7431 65.6115C84.3948 64.4942 84.0248 63.9065 83.1166 65.0696C82.2709 66.135 81.7334 64.6107 80.9965 64.4745C80.4157 64.3705 81.1665 63.5589 81.0715 63.0899C80.696 62.9536 80.324 62.9417 80.0225 63.6119C79.7772 64.4662 79.2775 65.4177 80.07 65.9301C81.0433 66.6233 82.2449 66.3706 83.2007 67.1643C83.5318 67.1059 83.8567 67.3294 84.1681 66.8632C84.3361 66.5235 84.5147 66.1958 84.6827 65.8562C84.6883 65.7662 84.7164 65.6776 84.7431 65.6115Z" fill="#EFB776"/>
<path id="Vector_30" d="M97.8693 46.179C97.078 44.9212 95.9137 45.4811 94.9152 45.193C94.5123 45.3147 94.1108 45.0525 93.6988 45.5012C93.727 45.774 93.8536 45.9175 93.9921 46.0503C94.6791 46.0818 94.3945 47.2048 94.607 47.7828C95.3059 47.8037 95.7491 49.0285 96.5787 48.4026C97.1327 47.8498 97.6761 47.2851 97.8693 46.179Z" fill="#EAAC6A"/>
<path id="Vector_31" d="M43.9686 55.8649C42.5017 55.4799 40.931 56.0371 39.4536 55.6401C38.787 55.463 38.2209 54.9421 37.5809 54.6989C37.4096 55.6369 37.7977 55.9322 38.1676 56.1585C38.5917 56.4221 38.8266 57.0015 39.1108 57.5161C39.6538 58.2276 40.3049 58.2908 40.9467 57.5967C41.7095 56.7745 42.4541 56.6063 43.2311 56.6435C43.4245 56.6216 43.6206 56.5548 43.7999 56.3966C43.9328 56.258 43.989 56.0808 43.9686 55.8649Z" fill="#BA7240"/>
<path id="Vector_32" d="M108.413 62.0266C107.782 60.7336 106.785 60.423 105.868 59.9141C105.82 59.9563 105.762 59.9866 105.726 60.0182C105.435 60.3389 105.165 60.6835 105.183 61.3058C105.266 62.1467 105.495 63.008 106.016 62.9728C106.866 62.9241 106.659 63.8938 106.678 64.6855C107.538 64.8408 108.054 63.9807 108.437 62.7283C108.51 62.4731 108.513 62.2361 108.413 62.0266Z" fill="#E7974A"/>
<path id="Vector_33" d="M94.3787 68.482C94.7879 68.0783 95.2491 67.9264 95.6352 68.0747C96.7167 68.4809 97.9877 66.9337 99.0229 68.0825C99.2445 68.3335 99.3948 67.7329 99.4967 67.3666C99.4235 66.7295 99.2413 66.21 98.9487 65.8303C98.2729 65.6188 97.5951 65.6217 96.8632 65.9488C96.6509 66.0937 96.4765 66.3539 96.2656 66.4763C95.8874 66.7464 95.5006 66.79 95.1259 66.8232C94.7082 67.0004 94.2301 67.061 94.2212 68.1108C94.2697 68.238 94.3182 68.3653 94.3787 68.482Z" fill="#E6A765"/>
<path id="Vector_34" d="M108.413 62.0266C108.386 62.2847 108.358 62.5427 108.331 62.8008C108.079 64.8519 107.103 64.5652 106.304 64.8881C106.124 65.0464 106.107 65.3164 106.092 65.5639C105.832 66.8352 104.907 66.2694 104.559 67.3206C104.231 67.334 103.892 67.3355 103.564 67.3489C104.102 67.9585 104.823 67.6194 105.445 67.7937C105.847 67.5025 106.247 67.0644 106.65 66.9427C107.481 66.6556 107.912 65.5305 108.435 64.5804C108.485 64.4932 108.523 64.2471 108.523 64.2471C110.047 64.6244 108.956 62.7381 109.333 62.1291C109.019 62.087 108.716 62.0568 108.413 62.0266Z" fill="#ECA95E"/>
<path id="Vector_35" d="M34.263 40.702C34.8551 41.3487 35.5836 41.2586 36.3092 41.2135C36.9237 41.1388 37.499 41.3328 38.1296 41.1801C38.5431 41.0703 38.9432 40.9936 39.1547 40.3178C39.4372 39.4093 38.8747 39.3743 38.6376 39.0094C37.973 38.2564 37.2494 37.7257 36.3262 38.2216C36.1977 39.0154 36.1977 39.0154 36.6577 39.6088C35.717 40.5667 35.2288 39.3391 34.5643 38.9475C34.2971 38.8857 34.0151 38.8794 33.869 39.4125C33.6652 40.1452 34.0604 40.3279 34.263 40.702Z" fill="#BD8258"/>
<path id="Vector_36" d="M94.8771 51.6057C95.6224 51.6069 96.3797 51.5976 97.1144 50.8641C97.2472 50.7256 97.4511 50.3543 97.418 50.3409C96.8034 50.0542 96.9277 48.9664 96.6653 48.2837C96.1182 48.3625 95.607 48.0483 95.034 48.3627L95.0628 48.4436C94.8674 48.6799 94.7128 48.9865 94.6003 49.3409C94.2601 50.0877 93.8749 50.8317 94.4657 51.501C94.6113 51.5213 94.7329 51.5628 94.8771 51.6057Z" fill="#EDB26F"/>
<path id="Vector_37" d="M59.9553 59.7637C60.2998 59.6722 60.5868 60.1419 60.972 59.7593C61.3684 58.8353 60.7502 58.0626 61.0686 57.1225C61.1234 56.9678 60.8793 56.7154 60.7387 56.797C59.6124 57.4722 59.6312 56.2649 59.6408 55.0231C59.3257 54.6421 59.0134 54.216 58.5873 54.1669C58.618 56.3938 58.8026 58.506 59.9553 59.7637Z" fill="#B5794F"/>
<path id="Vector_38" d="M102.964 58.6715C102.941 59.2235 102.489 59.4099 102.61 60.3662C102.805 61.7675 101.382 63.2149 100.302 62.9556C100.08 62.8966 99.8567 62.8601 99.645 62.813C99.7196 63.0661 99.7942 63.3192 99.8687 63.5723C100.911 63.8858 101.885 63.3027 102.803 62.1514C103.646 61.8539 103.826 60.4194 104.372 59.6402C104.509 58.8808 103.999 59.0975 103.889 58.684C103.585 58.6763 103.28 58.6687 102.964 58.6715Z" fill="#D27C38"/>
<path id="Vector_39" d="M77.9953 40.8633C78.1027 40.0455 77.9346 39.6623 77.4367 39.6765C76.972 39.704 76.5128 39.6415 76.0522 39.6015C75.3499 40.1789 74.4822 40.3281 74.1471 41.8997C75.4324 41.5732 76.7086 41.2123 77.9953 40.8633Z" fill="#B26A35"/>
<path id="Vector_40" d="M48.3882 35.1445C46.5461 36.0687 44.7941 37.36 43.4122 39.9619C45.2634 39.0721 46.9866 37.7 48.3882 35.1445Z" fill="#F7D9B1"/>
<path id="Vector_41" d="M101.157 60.1176C101.863 60.3874 102.027 59.031 102.514 58.6435C101.481 57.8112 99.4635 58.2953 98.8794 59.5126C98.7648 59.72 98.7655 59.8895 98.8802 60.0435C98.954 60.1271 99.0159 60.2213 99.0898 60.305C99.7914 59.9195 100.431 60.7161 101.157 60.1176Z" fill="#B56834"/>
<path id="Vector_42" d="M81.9957 61.1258C82.1982 61.1385 82.4021 61.1286 82.5476 60.7875C82.6445 60.3192 82.4518 60.1491 82.2831 59.9579C82.1445 59.825 82.0151 59.7266 81.8632 59.6268C81.3808 59.3934 80.9658 58.8028 80.3612 59.0814C79.3 58.5296 78.2522 57.9448 77.3316 56.95C77.2437 56.7299 77.1066 56.5746 76.968 56.4417C76.8175 56.3194 76.6909 56.176 76.4906 56.3103C76.3492 56.2224 76.1959 56.1451 76.0546 56.0572L76.0679 56.0242C75.955 57.6548 77.1657 57.0752 77.3684 58.1721C78.1112 59.3026 79.1238 59.7271 80.0549 60.3724C80.6611 60.7942 81.3438 60.8932 81.9957 61.1258Z" fill="#753E33"/>
<path id="Vector_43" d="M83.3205 61.615C83.7665 62.7948 82.6309 62.7127 82.636 63.5375C83.4664 63.081 84.2242 62.1569 85.1818 62.0133C84.4133 61.8412 84.7147 60.8096 84.6576 60.0945C84.9233 59.456 85.0976 58.8344 84.8549 58.1981C84.6192 57.8107 84.4089 57.3797 84.0412 57.3003C83.7473 57.666 83.694 58.1597 83.6737 58.6666C83.8714 59.6615 83.3597 60.6235 83.3205 61.615Z" fill="#E2A15F"/>
<path id="Vector_44" d="M71.6803 59.557C71.1728 60.4515 70.6097 60.9699 69.9451 60.5783C69.474 60.5264 69.5078 61.0706 69.4889 61.5551C70.1655 62.2975 70.9173 62.7396 71.8152 62.6487C71.8946 62.6424 71.9621 62.6466 72.0521 62.6522C72.6926 62.342 72.9147 61.6782 72.7366 60.7297C72.3779 60.3233 72.0179 59.9395 71.6803 59.557Z" fill="#F0B878"/>
<path id="Vector_45" d="M86.1251 40.8956C86.6786 41.2576 86.9505 39.9757 87.5383 39.9672C88.1261 39.9586 88.02 40.3925 87.9836 40.9775C88.1545 41.3157 88.369 41.3178 88.615 40.9943C88.6565 40.8726 88.7085 40.7629 88.7499 40.6413C88.6155 39.7181 89.0821 38.3919 88.3479 37.8492C88.1904 37.8394 88.0329 37.8295 87.886 37.8317C87.2914 39.3984 86.5922 38.2932 85.9454 38.5239C85.674 38.891 85.1811 38.6457 85.0715 39.3165C84.9985 39.7638 85.3803 39.6181 85.5905 39.6877C85.708 40.1581 85.8867 40.5532 86.1251 40.8956Z" fill="#E8A15A"/>
<path id="Vector_46" d="M59.9052 36.0993C59.5016 36.0516 59.0966 36.0263 58.693 35.9786C57.3276 36.5034 56.0748 37.758 54.7861 38.6829C54.2897 39.036 54.4241 39.5978 54.3363 40.1005C54.5009 39.9978 54.6654 39.8952 54.8299 39.7925C55.9449 38.5744 57.1331 38.3548 58.3256 38.0677C58.7115 37.1317 59.2528 36.7815 59.8519 36.5929C59.9411 36.4291 59.9629 36.261 59.9052 36.0993Z" fill="#C88D56"/>
<path id="Vector_47" d="M80.2271 59.9653C79.2398 59.4972 78.4134 58.4405 77.3671 58.1946C77.3665 58.748 77.3434 59.3 77.5298 59.752C78.1417 60.4452 78.7549 61.1159 79.3668 61.8091C79.5692 61.0989 80.2238 60.9251 80.2271 59.9653Z" fill="#C9814B"/>
<path id="Vector_48" d="M46.6599 54.3611C46.2668 54.3254 45.8857 54.279 45.4927 54.2432C43.7686 54.3617 42.0515 54.3676 40.3779 54.0374C40.9519 55.3382 41.9981 54.4998 42.7793 54.8309C43.7139 55.2392 44.9161 54.4332 45.6301 55.8443C46.2784 55.9524 46.6439 55.5234 46.6599 54.3611Z" fill="#E8B884"/>
<path id="Vector_49" d="M43.183 40.0154C43.2643 38.7104 42.6814 38.8209 42.1533 38.7767C42.1034 38.6719 42.0492 38.6347 41.9909 38.6649C41.922 38.6832 41.8861 38.7149 41.8847 38.7374C41.5165 39.9342 40.9118 40.2127 40.2404 40.2951C39.9394 40.4119 39.6427 40.4612 39.3446 40.533C38.3976 41.4114 37.4349 40.7302 36.4717 41.3252C38.0349 42.1568 39.7055 41.4477 41.3634 40.9411C41.973 40.7645 42.565 40.327 43.183 40.0154Z" fill="#E6C19A"/>
<path id="Vector_50" d="M42.4953 35.6469C42.5092 34.6991 41.4213 34.2134 42.3394 32.8927C40.8446 33.3191 39.3406 33.711 37.9036 35.0219C38.1294 35.2054 38.3242 35.5225 38.6405 35.1582C40.1133 33.4542 41.1711 34.6044 42.2597 35.6209C42.2977 35.7362 42.3399 35.784 42.4102 35.7432C42.4672 35.7355 42.4925 35.6919 42.4953 35.6469Z" fill="#F1BB7D"/>
<path id="Vector_51" d="M79.713 44.1102C79.8184 43.5069 79.4787 43.3389 79.3809 42.9149C79.2887 42.4009 79.0784 41.9699 79.0937 41.361C78.7809 41.4883 78.4455 41.6143 78.1326 41.7416C77.9867 43.3589 77.4179 43.9672 76.5263 43.7761C76.3498 43.8893 76.2247 44.0848 76.1509 44.3626C76.8345 44.9925 77.6733 44.7624 78.4461 44.867C78.8912 44.7931 79.3672 44.947 79.713 44.1102Z" fill="#D18D52"/>
<path id="Vector_52" d="M58.6408 39.1716C57.4132 39.6598 56.1793 40.0685 54.9665 40.8626C55.5832 40.9349 56.1773 41.0058 56.794 41.0781C57.301 41.4599 57.8923 41.2143 58.4507 41.3169C58.7249 41.2662 58.9323 41.0194 59.0609 40.5869C59.1866 39.838 58.9735 39.4521 58.6408 39.1716Z" fill="#AF7144"/>
<path id="Vector_53" d="M58.6566 41.0926C58.0358 41.0878 57.4029 41.0935 56.782 41.0887C58.6729 41.7374 60.6164 41.723 62.614 41.3844C62.5149 41.3443 62.4157 41.3043 62.3285 41.2536C62.1069 40.6412 62.1672 39.6737 61.5878 39.5472C60.6154 40.1078 59.6149 40.3956 58.6566 41.0926Z" fill="#DD9D57"/>
<path id="Vector_54" d="M61.9342 61.3554C61.6178 61.3582 61.3133 61.3506 60.9969 61.3534C61.4562 62.1388 62.0491 62.5936 62.6567 62.9929C62.9731 62.99 63.2881 63.0096 63.6045 63.0067C63.8653 62.6277 64.2281 62.6051 64.4601 62.1452C64.3656 60.7614 63.905 60.36 63.0535 60.7926C62.6795 60.9952 62.3188 61.1647 61.9342 61.3554Z" fill="#EEB97B"/>
<path id="Vector_55" d="M48.0919 33.5562C48.7782 33.7796 49.1908 32.7776 49.6484 32.1397C49.8094 31.9126 49.957 31.7185 50.1518 31.6742C50.177 31.2691 50.1811 30.8402 49.8858 30.867C48.9893 30.9354 48.1251 30.4862 47.1935 31.1171C47.4568 32.6921 48.4325 31.5331 49.1793 31.8733C48.7273 32.4212 48.4335 32.7869 48.1277 33.1631C48.0068 33.2911 47.9983 33.4261 48.0919 33.5562Z" fill="#F3C58C"/>
<path id="Vector_56" d="M94.2093 68.1214C94.4594 67.369 94.8293 67.2339 95.254 67.3056C95.6828 66.9483 96.1265 66.8969 96.5659 66.5515C96.6214 66.2049 96.5215 65.9954 96.3858 65.8175C96.1312 65.5532 95.8604 65.3669 95.5496 65.2797C94.8268 65.2799 94.1334 64.8075 93.3932 65.631C93.5262 66.5767 93.5953 67.6427 94.2093 68.1214Z" fill="#BE7B48"/>
<path id="Vector_57" d="M87.735 61.8224C87.1396 62.8583 86.321 62.2199 85.6399 63.1827C85.2687 63.7017 85.4277 64.0504 85.3349 64.4512C85.7435 64.9623 86.2336 64.8912 86.7511 64.5621C87.1869 63.7309 88.3857 63.5232 87.735 61.8224Z" fill="#EAA55D"/>
<path id="Vector_58" d="M88.3359 37.8597C88.8577 38.5472 87.9798 40.1302 88.7379 40.6518C88.9087 40.2671 89.1231 39.9078 89.2608 39.5098C90.0128 37.23 89.8727 36.7582 88.4657 36.6819C88.0832 36.658 87.6979 36.6792 87.302 36.6884C87.7367 37.3254 88.3196 37.2149 88.9102 37.1613C88.7999 37.6627 88.5285 37.6684 88.3359 37.8597Z" fill="#EDAE6A"/>
<path id="Vector_59" d="M80.0548 63.8172C80.3866 63.5668 80.729 63.3284 81.0608 63.078C80.2786 61.4933 78.971 62.5412 77.9464 62.1272C78.0837 63.0054 78.4059 63.6354 78.7758 64.2232C79.216 64.4087 79.633 64.4234 80.0548 63.8172Z" fill="#EBAD69"/>
<path id="Vector_60" d="M42.6525 61.2154C42.9 61.2309 43.1538 61.3257 43.3844 60.8883C43.6452 60.5093 43.9559 60.235 44.0718 59.6436C44.0831 59.4636 44.0479 59.3033 43.9874 59.1866C43.3432 58.6495 42.7397 57.8213 41.8779 58.9648C41.5137 59.3713 40.9484 59.3812 40.8748 60.3818C40.9845 60.7953 41.2574 60.7671 41.4901 60.8381C41.8305 61.1755 42.3767 60.5658 42.6525 61.2154Z" fill="#F2C48C"/>
<path id="Vector_61" d="M43.4525 56.1716C42.5356 56.0241 41.6644 56.0488 40.7878 57.2479C40.269 57.961 39.6684 57.4492 39.1003 57.5041C39.1313 58.0934 39.3817 58.4252 39.6335 58.7345C40.1948 59.5149 40.6747 57.7942 41.2267 58.1787C41.6809 57.7779 42.1492 57.8748 42.6119 57.7003C43.097 57.5273 43.5758 57.2748 43.4525 56.1716Z" fill="#CD894F"/>
<path id="Vector_62" d="M96.3408 66.176C96.388 66.3258 96.4351 66.4755 96.4928 66.6372C96.3838 66.7547 96.3768 66.8672 96.4732 66.9523C96.6855 66.8074 96.7607 66.5071 96.8028 66.1935C97.3856 65.7216 98.1147 65.4395 97.9464 63.9721C97.5842 63.4412 97.2635 62.7888 96.7051 62.6862C96.424 63.5722 95.991 64.3584 95.994 65.3977C96.0272 65.7725 96.184 65.9742 96.3408 66.176Z" fill="#CC854A"/>
<path id="Vector_63" d="M71.6749 49.3128C71.7158 50.106 70.5286 48.8574 71.0317 50.3909C72.0856 49.6095 73.0602 50.2801 74.0615 50.1618C74.721 50.0899 75.3602 50.1637 76.0141 50.1818C76.102 50.0405 76.1104 49.9055 76.0633 49.7557C75.872 49.5631 75.5774 49.7593 75.3903 49.4992C74.1528 49.4221 72.9138 49.3674 71.6749 49.3128Z" fill="#7A4C48"/>
<path id="Vector_64" d="M94.3625 48.4452C93.319 48.5157 92.2742 48.6087 91.2307 48.6792C91.4544 49.4386 91.8448 49.8808 92.2843 50.2583C92.4608 50.5065 92.7034 50.4199 92.9165 50.4445C93.5872 50.1927 94.1096 49.604 94.3625 48.4452Z" fill="#B5794F"/>
<path id="Vector_65" d="M83.19 67.1523C82.9254 65.5998 82.0775 66.1569 81.3708 66.0789C80.9447 66.0298 80.5178 65.8112 80.0678 65.7832C80.0179 65.6784 79.9637 65.6411 79.9159 65.6833C79.8576 65.7136 79.8323 65.7572 79.8295 65.8022C80.8028 66.8567 81.8029 67.8452 83.19 67.1523Z" fill="#F4C78E"/>
<path id="Vector_66" d="M92.5477 60.1684C92.7819 60.9397 93.0387 61.7124 93.273 62.4837C93.25 63.3971 93.5714 63.8576 94.0166 64.1451C94.3731 64.4045 94.639 64.8502 94.9435 65.2193C95.1587 65.3909 95.3711 65.6074 95.6495 65.4892C95.736 65.3704 95.7908 65.2157 95.814 65.0251C95.7801 64.4809 95.5628 64.1624 95.3455 63.8439C95.1253 63.5704 94.9438 63.2203 94.7504 62.8807C94.6899 62.764 94.6055 62.6684 94.5211 62.5728C94.0591 62.1939 93.8515 61.3564 93.4014 60.967C93.2122 60.5599 93.0124 60.1409 92.8232 59.7338C92.6355 59.6656 92.4948 59.7472 92.5477 60.1684Z" fill="#6F3930"/>
<path id="Vector_67" d="M102.056 66.5322C102.501 64.6512 102.304 64.1872 101.137 64.2387C100.764 64.2494 100.402 64.08 100.034 64.0006C100.027 64.1131 100.032 64.215 100.037 64.317C100.279 64.7838 100.51 65.2387 100.84 65.5642C101.238 65.8939 101.647 66.2131 102.056 66.5322Z" fill="#EAA45C"/>
<path id="Vector_68" d="M84.0719 44.6641C84.1055 44.1241 84.2714 43.6375 84.4689 43.1867C84.4386 43.1284 84.4098 43.0475 84.3795 42.9892C84.1749 42.8296 83.9815 42.8514 83.7713 43.1433L83.7482 43.3338L83.725 43.5244C83.3433 44.0314 82.851 43.5941 82.4834 44.2376C81.8724 44.4367 82.0628 43.737 82.1562 43.1443C81.5741 43.4242 81.3203 44.0522 81.2326 44.9164C82.1826 45.0772 83.1107 45.0447 84.0719 44.6641Z" fill="#E6A25F"/>
<path id="Vector_69" d="M94.2457 63.7302C93.7535 63.6543 93.4946 63.0961 93.273 62.4837C93.0784 63.6123 93.1503 64.6332 93.372 65.607C94.1265 65.6428 94.9035 65.6799 95.658 65.7156C95.7444 65.5968 95.7514 65.4843 95.7029 65.357C95.4863 65.208 95.2697 65.0589 95.0531 64.9099C95.0018 64.8277 94.9504 64.7454 94.8724 64.7292C94.281 64.6133 94.1481 64.3905 94.2457 63.7302Z" fill="#A2582E"/>
<path id="Vector_70" d="M68.0761 37.6476C67.1281 36.9109 66.4233 39.3404 65.3543 38.3703C65.5198 39.5213 66.4542 39.2068 65.9629 40.3847C66.8608 39.9324 67.4828 38.8304 68.0761 37.6476Z" fill="#EBA44E"/>
<path id="Vector_71" d="M36.4717 41.3253C37.4983 41.1633 38.5074 41.4634 39.5655 40.9759C39.9571 40.6728 40.1799 40.1784 40.0364 39.5822C39.8654 38.8826 39.4125 38.8996 38.9647 39.0185C38.8254 39.0776 38.6926 39.2161 38.5914 39.3905C38.7362 39.6028 38.8797 39.8377 39.0246 40.05C38.8158 40.3193 38.6598 40.6484 38.33 40.6844C37.6719 40.7337 36.9849 40.7022 36.3107 41.191C36.3501 41.2838 36.4042 41.3211 36.4717 41.3253Z" fill="#C48E65"/>
<path id="Vector_72" d="M92.5477 60.1684C92.6475 60.0165 92.7473 59.8646 92.8352 59.7233C92.7126 58.4281 91.8497 57.595 92.3268 55.9193C92.343 55.8413 92.011 55.3688 91.7129 55.4406C91.502 55.563 91.303 55.6748 91.4099 56.1333C91.7189 57.5191 91.8921 59.0885 92.5477 60.1684Z" fill="#774845"/>
<path id="Vector_73" d="M92.9627 45.8958C92.3039 46.1371 91.6908 46.5507 91.1756 47.3882C91.7881 47.8895 92.5067 47.5954 93.1894 47.6944C93.6113 47.4497 93.981 46.9532 93.912 46.2486C93.8394 45.4196 93.3417 45.7952 92.9627 45.8958Z" fill="#AF7249"/>
<path id="Vector_74" d="M84.8668 58.1876C84.8831 58.8324 84.4719 59.4505 84.6696 60.084C85.5457 60.1612 86.1907 61.2292 87.1195 61.0047C86.3642 60.0767 85.6102 59.1262 84.8668 58.1876Z" fill="#F2C187"/>
<path id="Vector_75" d="M95.1472 64.1252C95.3434 64.4198 95.541 64.6918 95.7373 64.9864C95.8491 65.1854 95.8703 65.5707 96.141 65.3956C96.0662 64.4196 97.0984 63.8063 96.6917 62.7193C96.4751 62.5703 96.2571 62.4438 96.0405 62.2947C95.6988 62.3412 95.5041 62.7469 95.308 63.1752C95.2124 63.2596 95.1484 63.3798 95.095 63.512C95.048 63.7237 95.0564 63.9501 95.1472 64.1252Z" fill="#A35A2E"/>
<path id="Vector_76" d="M34.263 40.702C34.4394 40.2273 33.4119 39.1355 34.6614 39.2021C34.6895 39.1135 34.7176 39.0249 34.7577 38.9257C34.7239 38.7429 34.6648 38.6037 34.5684 38.5186C34.1957 38.3373 33.7851 38.4021 33.3801 38.3768C32.9294 38.5407 32.4477 38.4768 32.1139 39.3031C32.8888 39.5547 33.3665 40.7703 34.263 40.702Z" fill="#C48A5D"/>
<path id="Vector_77" d="M84.5698 52.6237C85.4673 54.5318 86.9741 54.0949 88.1843 54.7915C88.242 54.5918 88.289 54.3801 88.3466 54.1804C87.0907 53.673 85.8123 53.1641 84.5564 52.6567L84.5698 52.6237Z" fill="#7D514E"/>
<path id="Vector_78" d="M93.3026 47.5095C92.5931 47.4766 91.8731 47.4317 91.1636 47.3988C90.9871 47.512 90.8106 47.6253 90.6447 47.7505C92.0771 48.1447 93.6773 47.4764 95.0444 48.3747C95.6639 48.4021 96.2939 48.4413 96.9015 48.4792C96.9176 48.4011 96.9457 48.3125 96.9619 48.2345C96.9267 48.0742 96.8395 48.0235 96.7467 48.0629C95.9887 47.9028 95.2426 47.732 94.4846 47.5719C94.4149 47.4207 94.32 47.3131 94.2117 47.2386C93.8945 47.072 93.6014 47.2458 93.3026 47.5095Z" fill="#87503D"/>
<path id="Vector_79" d="M97.9345 63.9827C97.7483 64.9763 97.1852 65.4946 96.7908 66.2041C97.5017 66.2146 98.2028 66.3825 98.9368 65.8409C98.6786 65.0907 98.3937 64.4066 97.9345 63.9827Z" fill="#E4A25F"/>
<path id="Vector_80" d="M49.1815 54.857C48.5361 55.4267 48.3401 56.2164 48.5547 57.3027C49.1833 57.003 49.7675 56.5086 50.2708 55.6816L50.2588 55.6922C49.9565 55.47 49.6393 55.3034 49.4023 54.9386C49.3376 54.8893 49.2595 54.8732 49.1815 54.857Z" fill="#F4C892"/>
<path id="Vector_81" d="M76.1601 44.397C76.2704 44.257 76.3808 44.1171 76.4792 43.9877C76.6747 43.7514 77.2231 43.6501 76.9994 43.2521C76.6428 42.6313 77.2974 42.4575 77.1518 42.0757C76.5682 42.0168 76.0029 42.3881 75.4376 42.7595C75.1109 43.8347 75.6094 43.99 75.9618 44.3169C76.0251 44.3886 76.0912 44.4153 76.1601 44.397Z" fill="#AC6637"/>
<path id="Vector_82" d="M68.9013 32.5602C69.5905 32.7387 69.611 33.6774 69.6316 34.6161C70.1026 33.9452 70.4892 33.1787 70.8173 32.081C70.1247 32.1395 69.5278 32.1136 68.9013 32.5602Z" fill="#F2B970"/>
<path id="Vector_83" d="M92.9952 50.2687C92.7582 50.2652 92.5213 50.2617 92.2843 50.2582C92.9426 50.9317 93.6437 51.4611 94.4777 51.4905C94.2012 50.6713 94.4746 50.0898 94.9252 49.5644C94.2254 48.6512 93.6372 50.2974 92.9952 50.2687Z" fill="#DCAC7D"/>
<path id="Vector_84" d="M41.1465 58.0158C40.5761 57.5623 40.1847 58.9497 39.644 58.7466C39.6743 59.1664 39.8297 59.3906 40.0583 59.5291C40.4936 59.9741 40.9528 60.0366 41.4582 59.3566C41.6845 58.6253 41.6837 58.0944 41.1465 58.0158Z" fill="#DA9C61"/>
<path id="Vector_85" d="M86.7511 64.5621C86.2828 64.4651 85.8468 64.2121 85.3349 64.4512C85.1416 64.8345 84.9364 65.2283 84.7325 65.5996C84.656 66.2837 84.8852 66.2303 85.1798 66.034C85.7711 65.7885 86.2787 65.2554 86.7511 64.5621Z" fill="#EFB776"/>
<path id="Vector_86" d="M79.7129 44.1101C79.3207 44.6052 78.8256 44.213 78.4566 44.8789C79.105 45.3485 79.8586 44.8533 80.5534 44.9418C80.6538 44.5979 81.0525 44.5437 80.992 44.0656C80.9363 43.6894 80.7015 43.8329 80.5173 43.8892C80.2508 43.9968 79.9766 44.0475 79.7129 44.1101Z" fill="#E6A25F"/>
<path id="Vector_87" d="M79.8084 65.7783C79.8878 65.7719 79.9778 65.7776 80.0573 65.7712C80.0706 65.3767 79.3167 65.1491 80.1105 64.5548C80.5843 64.2003 80.3417 63.9254 80.0429 63.8277C79.6181 63.7561 79.1956 63.8314 78.7864 64.2351C79.0502 64.8953 79.3021 65.566 79.8084 65.7783Z" fill="#F1BE7F"/>
<path id="Vector_88" d="M100.91 45.9619C101.318 47.1958 101.998 47.5318 102.877 47.2026C102.453 46.0242 101.66 46.0651 100.91 45.9619Z" fill="#FBE6C8"/>
<path id="Vector_89" d="M82.7346 56.5188C82.6018 57.0188 82.469 57.5187 82.3362 58.0187C82.3651 58.0995 82.3834 58.1684 82.4002 58.2599C82.6345 58.6697 82.9411 58.8244 83.3151 58.6218C84.6634 56.9213 83.2382 57.1375 82.9702 56.5448C82.8921 56.5286 82.8127 56.535 82.7346 56.5188Z" fill="#C67B42"/>
<path id="Vector_90" d="M33.2825 38.6756C33.7536 38.7276 34.2142 38.7676 34.6853 38.8195C34.8196 39.0199 34.9208 38.8455 35.0235 38.6486C35.0558 38.4925 35.0536 38.3455 35.017 38.2077C34.3258 37.8823 33.6205 37.7819 32.8535 38.3101C32.9358 38.6201 33.1826 38.4661 33.2825 38.6756Z" fill="#8D5947"/>
<path id="Vector_91" d="M93.4134 60.9565C93.6631 61.8417 93.8504 62.8247 94.5767 62.949C95.0526 62.0186 94.4668 61.8127 94.3177 61.3065C94.0863 60.8516 93.727 60.9986 93.4134 60.9565Z" fill="#9F562E"/>
<path id="Vector_92" d="M93.3027 47.5095C93.6071 47.5172 93.9102 47.5473 94.2147 47.555C94.6237 46.7899 94.3199 46.2289 94.2002 45.6115C94.0336 45.5672 93.8655 45.5455 93.6989 45.5012C93.4471 45.5533 93.1785 45.514 92.9627 45.8958C93.8726 45.7944 93.8439 46.4364 93.3027 47.5095Z" fill="#C68A59"/>
<path id="Vector_93" d="M82.9701 56.5447C82.8204 57.3147 84.3476 57.0936 83.2229 58.4692C83.1302 59.2314 83.4178 59.1477 83.7278 59.0654C83.777 59.0007 83.8262 58.936 83.886 58.8832C83.9527 58.3566 84.0089 57.8179 84.0636 57.3018C83.7808 56.7647 83.4391 56.4497 82.9701 56.5447Z" fill="#CE8A50"/>
<path id="Vector_94" d="M72.726 60.7176C72.5806 61.4201 72.4774 62.1704 72.0415 62.6402C72.199 62.65 72.3671 62.6717 72.5246 62.6816C73.1636 62.0324 73.8371 61.3742 72.726 60.7176Z" fill="#F3C790"/>
<path id="Vector_95" d="M103.901 58.6734C103.721 59.3851 104.213 59.0995 104.293 59.4546C104.581 60.6245 105.164 60.514 105.819 59.9788L105.88 59.9036C105.286 59.2793 104.635 58.8547 103.901 58.6734Z" fill="#E7974A"/>
<path id="Vector_96" d="M80.7486 51.595C80.8456 51.4881 80.9441 51.3587 81.0411 51.2518C80.5804 50.489 79.9995 50.385 79.1354 50.6587C79.6517 51.4363 80.2999 51.1831 80.7486 51.595Z" fill="#784B47"/>
<path id="Vector_97" d="M76.8914 56.7646C77.0342 56.8299 77.1769 56.8953 77.3302 56.9726C78.1289 56.1188 78.9285 57.2416 79.7272 56.3879C78.8032 56.3529 77.8687 56.3059 76.9448 56.2709C76.8 56.42 76.7782 56.5881 76.8914 56.7646Z" fill="#CD9161"/>
<path id="Vector_98" d="M90.3831 55.2109C89.8915 54.5817 89.2369 54.7555 88.6392 54.5601C88.9417 55.5051 89.5914 55.2293 90.0696 55.5302C90.1863 55.4697 90.3227 55.4556 90.3831 55.2109Z" fill="#7D514E"/>
<path id="Vector_99" d="M75.9737 44.3064C75.7423 43.8515 75.5003 43.3846 75.4496 42.749C75.1142 42.8749 74.8013 43.0023 74.466 43.1282C74.8514 43.8298 75.3451 44.2446 75.9737 44.3064Z" fill="#C3824F"/>
<path id="Vector_100" d="M37.8188 36.564C37.1297 36.3855 36.4675 37.2252 35.784 37.3181C35.6976 37.437 35.5991 37.5664 35.5127 37.6852C35.6028 38.0522 35.7968 38.1999 36.031 38.2483C36.6849 37.9051 37.4471 37.9977 37.8188 36.564Z" fill="#8B5540"/>
<path id="Vector_101" d="M101.157 60.1176C100.463 60.1986 99.8041 59.717 99.0898 60.305C99.1292 60.3978 99.1714 60.4456 99.2389 60.4498C99.6903 60.4553 100.166 60.4398 100.576 60.7364C100.856 60.9572 101.074 60.7223 101.157 60.1176Z" fill="#7B402E"/>
<path id="Vector_102" d="M94.3177 61.3065C94.3488 61.8957 94.6983 62.2676 94.5768 62.949C94.78 63.1311 94.8989 63.5789 95.2399 63.363C95.4557 62.9812 95.5021 62.6 95.3684 62.2077C95.0681 61.7711 94.741 61.4006 94.3177 61.3065Z" fill="#8A3D19"/>
<path id="Vector_103" d="M33.2825 38.6757C33.132 38.5533 33.004 38.4324 32.8654 38.2996C32.2389 38.3847 31.6983 38.9045 31.1352 39.4228C31.1584 39.5937 31.2189 39.7104 31.3286 39.7624C31.5874 39.5978 31.8447 39.4557 32.1034 39.2911C32.4676 38.8846 32.8824 38.7524 33.2825 38.6757Z" fill="#7A483E"/>
<path id="Vector_104" d="M76.0562 49.8681C76.0387 49.9687 76.0211 50.0692 76.0141 50.1818C76.6083 50.2527 77.2024 50.3236 77.7861 50.3825C78.0547 50.4219 78.3508 50.926 78.5749 50.0477C78.2958 49.9964 78.0061 49.9332 77.7269 49.8819C77.1756 49.6668 76.6426 49.5207 76.0562 49.8681Z" fill="#673430"/>
<path id="Vector_105" d="M74.7494 55.2531C75.0969 55.8394 75.3319 56.7802 76.0785 56.0361L76.0651 56.0692C75.7043 55.5159 75.3449 54.9401 74.7824 54.905C74.684 55.0344 74.677 55.1469 74.7494 55.2531Z" fill="#815653"/>
<path id="Vector_106" d="M90.3831 55.2109C90.2861 55.3178 90.1771 55.4352 90.0696 55.5302C90.4978 55.7263 90.9486 55.9238 91.3768 56.1199C91.4703 55.8885 91.5863 55.6586 91.6798 55.4272C91.255 55.3556 90.8184 55.2945 90.3831 55.2109Z" fill="#794B48"/>
<path id="Vector_107" d="M41.4681 59.1991C40.9886 59.6436 40.5189 59.5691 40.0478 59.5172C40.2314 60.0143 40.4937 60.3355 40.8763 60.3594C41.2271 59.9859 41.5898 59.602 41.9512 59.2405C41.9209 59.1821 41.8907 59.1238 41.8604 59.0654C41.7296 58.9895 41.5946 58.9811 41.4681 59.1991Z" fill="#E8B175"/>
<path id="Vector_108" d="M76.0562 49.8682C76.6096 49.8688 77.163 49.8694 77.715 49.8925C77.0047 49.3287 76.1912 49.5151 75.3903 49.4991C75.5345 49.9034 75.8115 49.8077 76.0562 49.8682Z" fill="#805551"/>
<path id="Vector_109" d="M88.6149 40.9942C88.4005 40.9922 88.1979 40.9795 87.9835 40.9775C87.992 41.5653 87.3304 41.8516 87.5689 42.5554C87.9992 42.1756 88.3675 41.7016 88.6149 40.9942Z" fill="#EDAE6A"/>
<path id="Vector_110" d="M74.7494 55.2532C74.7564 55.1407 74.7634 55.0282 74.781 54.9276C74.6599 54.3328 74.3174 54.2098 74.0003 54.0432C73.7549 53.8133 73.693 54.0805 73.6706 54.4405C73.9857 54.8216 74.2726 55.2912 74.7494 55.2532Z" fill="#7F5451"/>
<path id="Vector_111" d="M76.8915 56.7645C76.9133 56.5964 76.935 56.4284 76.9568 56.2603C77.0172 55.6542 76.9917 54.975 76.5474 55.2183C76.1972 55.3998 76.5025 55.9384 76.4998 56.3448C76.6278 56.4657 76.7544 56.6091 76.8915 56.7645Z" fill="#E9C9A7"/>
<path id="Vector_112" d="M28.8131 41.7063C29.1646 41.5024 29.5528 41.4362 29.8719 40.6655C29.3719 40.5327 28.993 40.9947 28.6105 41.3323C28.5445 41.667 28.541 41.904 28.8131 41.7063Z" fill="#67332F"/>
<path id="Vector_113" d="M28.8131 41.7063C28.742 41.5777 28.6815 41.4609 28.6105 41.3323C28.1837 41.4751 27.8315 41.871 27.4962 42.3584C27.5658 42.5095 27.658 42.6621 27.7276 42.8133C28.089 42.4518 28.4517 42.0678 28.8131 41.7063Z" fill="#784B47"/>
<path id="Vector_114" d="M31.3285 39.7623C31.2681 39.6456 31.1956 39.5395 31.1351 39.4228C30.7892 39.5367 30.451 39.7077 30.1403 40.3434C30.6016 40.5528 30.9503 40.0324 31.3285 39.7623Z" fill="#693532"/>
<path id="Vector_115" d="M95.3564 62.2183C95.3101 62.5994 95.2637 62.9805 95.228 63.3736C96.0051 64.1335 95.6405 62.3715 96.0406 62.2948C95.817 62.2583 95.5814 62.2323 95.3564 62.2183Z" fill="#9F562E"/>
<path id="Vector_116" d="M85.1784 66.0565C84.9892 66.0108 84.812 65.9546 84.7311 65.622C84.2199 65.6692 84.194 66.2662 84.1456 66.8617C84.5168 66.7042 84.8775 66.5346 85.1784 66.0565Z" fill="#F2BF81"/>
<path id="Vector_117" d="M93.4738 57.267C93.3057 56.5224 93.0419 56.2236 92.3536 56.576C92.8768 56.8797 93.1806 57.0793 93.4738 57.267Z" fill="#977472"/>
<path id="Vector_118" d="M110.638 62.9333C110.485 63.5788 110.342 64.2363 110.189 64.8818C110.497 64.2911 111.4 63.9408 110.638 62.9333Z" fill="#F5CE95"/>
<path id="Vector_119" d="M42.6525 61.2155C42.4751 60.075 41.9113 60.7853 41.4915 60.8156C41.6962 61.3366 42.0675 61.179 42.3916 61.2331C42.4711 61.2268 42.5625 61.2099 42.6525 61.2155Z" fill="#F6D1A1"/>
<path id="Vector_120" d="M97.7354 59.5655C97.4575 58.7689 96.926 59.323 96.5336 59.0953C96.8438 59.7358 97.3212 59.5058 97.7487 59.5324L97.7354 59.5655Z" fill="#825855"/>
<path id="Vector_121" d="M73.6707 54.4405C73.781 54.3005 73.89 54.1831 74.0004 54.0431C73.7528 53.6663 73.5291 53.2683 73.1037 53.3887C73.0294 54.2198 73.4013 54.2317 73.6707 54.4405Z" fill="#815653"/>
<path id="Vector_122" d="M78.563 50.0583C78.2966 50.1659 78.0406 50.2855 77.7742 50.3931C78.0337 50.7594 78.374 50.7354 78.6996 50.767C78.8676 50.7888 79.035 50.6411 78.9962 50.3563C78.9603 50.0266 78.7578 50.0139 78.563 50.0583Z" fill="#805551"/>
<path id="Vector_123" d="M35.9417 38.0508C35.8031 37.918 35.6632 37.8076 35.5246 37.6747C35.3088 37.6952 35.152 37.8548 35.0395 38.2092L35.0156 38.2303C35.1888 39.0769 35.5255 38.567 35.8362 38.2927C35.8524 38.2147 35.891 38.138 35.9417 38.0508Z" fill="#68352F"/>
<path id="Vector_124" d="M100.83 65.5523C100.662 64.9771 100.432 64.4997 100.026 64.305C100.115 65.056 100.321 65.5545 100.83 65.5523Z" fill="#FAE4C7"/>
<path id="Vector_125" d="M94.9612 58.2293C95.0281 58.7869 95.4078 58.8558 95.5371 58.5928C95.7304 58.2095 95.362 58.3221 95.2446 58.2131C95.1813 58.1414 95.0828 57.9094 94.9612 58.2293Z" fill="#7D514D"/>
<path id="Vector_126" d="M98.8696 60.0315C98.8689 59.8621 98.8696 59.6701 98.8688 59.5006C98.4835 59.5218 98.1207 59.5444 97.7354 59.5655L97.7607 59.5219C97.9577 60.3474 98.5089 59.8396 98.8696 60.0315Z" fill="#7E5350"/>
<path id="Vector_127" d="M49.4157 54.9055C49.5311 55.5903 49.8616 55.7239 50.2723 55.6591C50.0647 55.1831 49.7743 54.9504 49.4157 54.9055Z" fill="#F6D1A0"/>
<path id="Vector_128" d="M44.0135 59.3124C44.0051 59.4474 43.9861 59.5705 43.9658 59.716C44.0108 60.0802 44.1213 60.3017 44.38 60.1371C44.545 58.7582 45.0599 59.9197 45.3538 59.554C45.7129 58.6842 46.3021 58.2917 46.7702 57.6658C46.9924 57.3634 47.6083 57.2663 47.149 56.481C47.1279 56.4571 47.1666 56.3804 47.2207 56.4177C47.4901 56.6264 47.7489 56.8233 48.0708 56.369C47.6432 55.6195 47.5353 54.2688 46.6599 54.3611C46.4337 55.0924 46.0759 55.5783 45.6182 55.8547C45.4108 56.463 45.2687 55.8443 45.095 55.9125C44.8961 56.3858 45.1227 57.1001 44.4336 57.2831C43.4106 57.5694 43.3558 58.0855 44.0135 59.3124Z" fill="#F3C58C"/>
<path id="Vector_129" d="M59.6303 55.0112C59.6029 55.2693 59.6191 55.5527 59.5376 55.7735C58.9733 57.3986 59.2764 57.7902 60.2403 57.3646C60.4498 57.2647 60.6959 56.9412 60.9104 57.3047C60.5871 57.7815 60.1034 58.2935 60.7848 58.7764C61.0014 58.9254 61.0078 59.3663 60.9601 59.7699C61.7287 59.942 62.2256 59.0356 62.762 58.2219C61.9214 56.6674 60.4455 56.6094 59.6303 55.0112Z" fill="#A96A41"/>
<path id="Vector_130" d="M64.2167 57.8947C65.0369 55.7886 65.0003 55.6508 63.6278 55.5653C62.8958 55.531 62.1624 55.5192 61.4304 55.4848C62.3088 56.4318 63.0256 57.7979 64.2167 57.8947Z" fill="#B46D3D"/>
<path id="Vector_131" d="M44.0134 59.3125C43.6615 57.7094 43.6615 57.7094 45.6619 57.3258C45.8305 56.4328 44.9249 56.8281 45.1174 55.914C44.7405 55.8002 44.2815 56.4605 43.9804 55.8545C43.9629 55.955 43.9334 56.0661 43.9158 56.1667C43.7697 57.0611 43.3767 57.3867 42.8824 57.5253C42.3192 57.6822 41.9692 58.2251 41.93 59.2166L41.9405 59.2285C42.3624 59.3452 43.0723 57.7405 43.2583 59.4688C43.2632 59.5707 43.7497 59.3752 44.0134 59.3125Z" fill="#E8B175"/>
<path id="Vector_132" d="M58.2982 37.9643C57.0613 37.6953 55.8653 37.8579 54.8313 39.77C56.3014 39.1952 57.7611 38.6085 59.2312 38.0338C59.1905 37.9635 59.1722 37.8946 59.1314 37.8243C58.8648 37.5705 58.5864 37.6887 58.2982 37.9643Z" fill="#B67F59"/>
<path id="Vector_133" d="M77.1636 42.0652C76.5337 42.3874 77.088 43.6417 76.4791 43.9877C76.9201 44.7041 77.6442 43.5973 78.1168 44.3495C77.8537 43.4974 78.4329 42.5396 78.1311 41.7641C77.8091 41.8569 77.4751 41.9604 77.1636 42.0652Z" fill="#C3824F"/>
<path id="Vector_134" d="M58.6408 39.1716C58.74 39.5731 58.8617 39.976 58.961 40.3775C59.4737 41.0306 60.093 40.3351 60.6351 40.1543C61.2461 39.9552 60.8353 39.2971 60.7509 38.84C60.6629 38.62 60.5497 38.4435 60.4098 38.3331C60.3001 38.2811 60.1967 38.3086 60.0891 38.4035C59.5984 38.6666 59.1196 38.9191 58.6408 39.1716Z" fill="#AB6531"/>
<path id="Vector_135" d="M60.0892 38.4035C60.1672 38.4197 60.2453 38.4359 60.3233 38.452C60.7178 38.8267 61.1143 38.2641 61.5263 38.1769C61.6311 38.1269 61.7359 38.077 61.842 38.0045C62.332 37.572 62.9269 37.451 63.203 36.463C63.2262 36.2724 63.1777 36.1452 63.0694 36.0707C62.7136 35.9807 62.3437 36.1158 61.9711 36.2959C61.6646 36.5027 61.3777 36.7558 61.0726 36.9401C60.7182 37.1891 60.3449 37.1997 59.9969 37.5281C59.909 37.6695 59.8767 37.8256 59.888 38.007C59.9471 38.1462 60.0181 38.2749 60.0892 38.4035Z" fill="#7E4633"/>
<path id="Vector_136" d="M79.0922 41.3835C78.6628 42.2942 78.7895 42.799 79.3794 42.9374C79.7176 42.7665 80.0558 42.5956 80.4418 42.3824C80.0219 42.0513 79.5122 42.076 79.3095 41.3406C79.2526 41.3483 79.1731 41.3547 79.0922 41.3835Z" fill="#DE9E60"/>
<path id="Vector_137" d="M81.0967 40.2095C81.2289 39.9015 81.4103 39.8903 81.5797 39.8895C81.6571 40.0976 81.738 40.0688 81.8223 39.803C81.7772 39.4388 81.7547 39.076 81.7096 38.7117C80.9966 38.5544 80.9131 39.351 80.8373 40.2047C80.9392 40.1997 81.0292 40.2053 81.0967 40.2095Z" fill="#E9A159"/>
<path id="Vector_138" d="M59.888 38.007C59.9175 37.8959 59.947 37.7848 59.9646 37.6843C60.1508 37.4135 60.4785 37.2306 60.2154 36.7399C59.7584 36.8244 59.1515 36.5945 59.2235 37.9769L59.2207 38.0219C59.4457 38.0359 59.6616 38.0155 59.888 38.007Z" fill="#C88D56"/>
<path id="Vector_139" d="M64.7724 58.7652C64.8434 58.8938 64.9131 59.045 64.9841 59.1736C65.0306 59.5154 65.1424 59.7143 65.3794 59.7178C65.6142 59.5743 65.9018 59.4906 65.9038 58.9147C65.6197 58.7615 65.3356 58.6082 65.0515 58.455C64.9664 58.5514 64.8694 58.6583 64.7724 58.7652Z" fill="#6A3630"/>
<path id="Vector_140" d="M82.0045 40.3225C82.5841 41.1718 83.0582 42.263 83.8191 42.7396C83.8444 42.696 83.8936 42.6313 83.8964 42.5863C83.8752 42.201 84.072 41.5808 84.2871 41.3909C84.4305 41.2643 84.5437 41.0794 84.505 40.7946C84.1667 40.6041 84.1877 39.9052 83.9598 39.5747C83.3299 40.2583 82.6174 39.1861 82.0045 40.3225Z" fill="#DF9149"/>
<path id="Vector_141" d="M86.125 40.8956C86.1832 40.1425 86.0046 39.7474 85.5679 39.6863C85.2846 40.0639 85.0238 40.443 84.7405 40.8206C84.7364 41.611 84.5643 42.3795 84.4822 43.1537L84.4688 43.1868C85.3415 43.5009 85.9131 43.209 85.7567 41.3696C85.7517 41.2676 86.0027 41.0461 86.125 40.8956Z" fill="#DF9149"/>
<path id="Vector_142" d="M84.4822 43.1537C85.1838 42.4068 85.1654 41.6151 84.7405 40.8206C84.6611 40.8269 84.5936 40.8227 84.5036 40.8171C84.2273 41.4437 83.7512 40.9283 83.4272 41.5971C83.3949 42.1146 84.0095 42.04 83.8176 42.7621C83.8092 42.8971 83.7903 43.0202 83.7819 43.1552C84.0083 43.1467 84.2452 43.1502 84.4822 43.1537Z" fill="#DA8740"/>
<path id="Vector_143" d="M85.9348 38.5119C86.1958 39.2171 86.7421 38.9688 87.1465 39.186C87.7913 39.5311 87.9754 38.752 87.8754 37.8197C87.6195 37.9392 87.386 38.0602 87.1301 38.1798C86.7392 38.6524 86.3348 38.0738 85.9348 38.5119Z" fill="#EDAE6A"/>
<path id="Vector_144" d="M81.2391 38.1064C81.6646 38.3475 81.8827 39.1968 82.4761 38.7368C82.512 38.7052 82.5463 38.3346 82.495 38.2524C82.1658 37.7349 81.8071 37.3286 81.2391 38.1064Z" fill="#E9A159"/>
<path id="Vector_145" d="M82.0046 40.3226C82.6415 39.5265 83.3511 40.6437 83.9585 39.5973C83.2581 39.5988 82.5599 39.3859 81.8223 39.803C81.7415 39.8318 81.6606 39.8607 81.5798 39.8895C81.6368 40.2432 81.8259 40.2889 82.0046 40.3226Z" fill="#B16F42"/>
<path id="Vector_146" d="M78.9505 39.1271C79.0518 39.3141 79.1053 39.5433 79.1622 39.5356C79.2986 39.5215 79.4962 39.4321 79.5855 39.2683C79.7387 38.9842 79.5924 38.7944 79.4335 38.8071C79.3076 38.8331 79.1614 39.0047 78.9505 39.1271Z" fill="#EDAB65"/>
<path id="Vector_147" d="M85.9348 38.5119C86.3348 38.4352 86.7294 38.8099 87.1301 38.1798C86.73 38.2565 86.3354 37.8818 85.9348 38.5119Z" fill="#E8A15A"/>
<path id="Vector_148" d="M63.1482 36.2563C62.8207 37.162 62.1618 37.0419 61.7794 37.7409C62.0784 38.5614 62.6149 38.4706 63.1689 38.2792C63.0488 38.9381 62.6649 38.9368 62.4308 39.2497C62.0491 39.7568 61.9163 40.2567 62.4395 40.5604C62.8655 39.8867 63.2545 40.7128 63.7445 40.2803C64.8215 39.3083 64.6631 38.0448 64.5089 36.7138C64.2049 35.7913 63.6825 36.0185 63.1482 36.2563Z" fill="#DD9344"/>
<path id="Vector_149" d="M62.4289 40.5484C62.2657 40.2672 62.2733 39.6013 62.428 39.6561C63.3604 39.9175 63.3405 38.4254 63.9176 37.6821C63.1322 37.4186 62.3729 38.3651 61.7674 37.7514C61.6999 37.7472 61.643 37.7549 61.5846 37.7852C61.3632 38.257 61.4596 38.7035 61.4991 39.1577C61.509 39.3616 61.6475 39.4945 61.5976 39.7512C61.9978 40.0359 61.7765 41.2306 62.3376 41.2881C62.3544 41.0181 62.4029 40.784 62.4289 40.5484Z" fill="#D2853A"/>
<path id="Vector_150" d="M63.1482 36.2563C63.606 36.3413 64.1389 36.126 64.4983 36.7018C64.5707 36.4466 65.2527 36.3761 64.6691 35.9558C64.3772 35.7456 63.9982 35.8462 63.6621 35.8027C63.5138 35.8273 63.3654 35.8519 63.217 35.8766C63.087 35.9701 63.0575 36.0812 63.1482 36.2563Z" fill="#7D4532"/>
<path id="Vector_151" d="M67.9532 34.9068C68.0847 34.7907 68.2267 34.6866 68.3462 34.5811C68.2976 34.4539 68.2667 34.226 68.1886 34.2099C67.8898 34.1122 67.7879 34.4786 67.7176 34.8808C67.7957 34.8969 67.8737 34.9131 67.9532 34.9068Z" fill="#EEAF5D"/>
<path id="Vector_152" d="M96.9029 48.4566C96.7736 48.7196 96.6443 48.9826 96.5269 49.235C96.3216 49.6288 96.1916 50.0838 96.3148 50.4642C96.5047 51.0407 96.7612 50.3678 96.9933 50.2693C97.4918 50.0632 97.1775 50.5744 97.1263 50.8536C97.6177 50.76 98.0958 50.338 98.6808 50.3744C97.406 50.3515 98.6115 48.2242 97.9406 47.7532C97.5434 47.785 97.2101 48.0578 96.9029 48.4566Z" fill="#F1BE80"/>
<path id="Vector_153" d="M96.8909 48.4672C97.2917 48.5599 97.6587 48.4698 97.9181 47.7519C97.8484 47.2393 98.6442 46.4305 97.8693 46.179C97.42 46.6818 96.9905 47.231 96.7361 48.0509C96.7847 48.1782 96.8318 48.328 96.8909 48.4672Z" fill="#EDB26F"/>
<path id="Vector_154" d="M48.0813 56.3809C47.5062 56.5484 47.101 55.4389 46.3923 56.2983C46.4536 56.9459 46.8973 56.533 47.059 56.8368C46.5698 57.8002 45.4124 57.5247 45.398 59.3874C45.9232 59.1152 45.5598 60.0525 45.7764 60.2016C45.8848 60.6375 46.0781 60.2542 46.2384 60.2191C46.5244 59.435 46.8119 58.6284 47.3849 58.314C47.3376 57.4414 47.9676 57.1193 48.0813 56.3809Z" fill="#F4CB97"/>
<path id="Vector_155" d="M45.7765 60.2016C45.8193 59.696 46.0097 58.9963 45.398 59.3874C45.0556 59.6258 44.4042 58.117 44.3919 60.1266C44.8715 60.0435 45.1818 61.4069 45.7765 60.2016Z" fill="#F6D1A1"/>
<path id="Vector_156" d="M47.3849 58.3141C46.4434 58.0182 46.3311 59.0955 46.2384 60.2191C46.7102 59.7177 47.1291 59.1565 47.3849 58.3141Z" fill="#F6D1A1"/>
<path id="Vector_157" d="M44.3919 60.1267C44.2533 59.9938 44.1043 59.849 43.9777 59.7056C43.6486 59.9109 43.4434 60.3047 43.3858 60.8659C43.7775 60.9242 44.1445 60.8341 44.3919 60.1267Z" fill="#F6D1A1"/>
<path id="Vector_158" d="M67.2624 59.5866C67.2884 59.3511 67.3144 59.1155 67.3523 58.8694C67.0372 58.4883 66.7173 58.3668 66.3982 59.1375C66.4095 59.3189 66.4566 59.4686 66.5396 59.5868C66.7506 59.8258 66.9735 60.0543 67.2624 59.5866Z" fill="#E5AA6D"/>
<path id="Vector_159" d="M66.5684 59.3062C66.5037 59.257 66.439 59.2078 66.3862 59.148C66.2329 59.0707 66.0571 58.992 65.9038 58.9147C65.7337 59.1074 65.5636 59.3001 65.3934 59.4928C65.5412 60.0215 65.8457 60.0292 66.1782 59.9483C66.3878 59.8484 66.5551 59.7007 66.5684 59.3062Z" fill="#7C4637"/>
<path id="Vector_160" d="M64.4066 62.2774C64.0797 62.2683 63.8048 62.5109 63.6256 63.0306C64.8989 62.3532 66.1273 62.7573 67.3887 62.4519C67.4576 62.4336 67.5701 62.4406 67.599 62.5215C68.6859 65.5596 70.4172 62.6068 71.8151 62.6487C71.0212 62.5202 70.528 61.1906 69.5901 61.742C67.9781 59.699 66.1889 61.0444 64.4066 62.2774Z" fill="#F2C187"/>
<path id="Vector_161" d="M92.9952 50.2687C93.6597 50.6602 94.2691 49.3994 94.9252 49.5645C94.982 49.1953 95.0284 48.8142 95.0733 48.4556C94.8364 48.4521 94.5994 48.4487 94.373 48.4571C93.9062 49.0605 93.4394 49.6639 92.9952 50.2687Z" fill="#D59A65"/>
<path id="Vector_162" d="M82.4939 44.2495C82.932 44.2881 83.3975 44.4301 83.7355 43.5363C83.3038 43.5772 82.7073 42.2751 82.4939 44.2495Z" fill="#DF9149"/>
<path id="Vector_163" d="M63.1496 36.2337C63.1461 36.1093 63.165 35.9862 63.2065 35.8645C62.1355 35.4703 61.0919 34.818 59.9172 36.0888L59.8941 36.2793L59.8709 36.4699C59.9427 36.768 60.2 36.6259 60.2851 36.891C60.1783 37.1554 60.0715 37.4198 59.9646 37.6842C60.3696 37.7094 60.7866 37.7241 61.1578 37.2051C61.3672 36.7438 61.6337 36.6362 61.9304 36.5869C62.3333 36.4652 62.7467 36.3554 63.1496 36.2337Z" fill="#DC9B52"/>
<path id="Vector_164" d="M106.711 64.699C107.007 63.5654 107.598 62.2357 106.15 62.6424C105.575 62.8098 105.571 61.6011 105.252 61.0956C104.864 61.1618 104.367 60.984 104.521 62.1455C104.549 62.2264 104.614 62.2756 104.618 62.4001C104.565 62.3403 104.512 62.2805 104.495 62.1891C104.335 61.8629 104.179 61.4692 103.843 61.7871C103.626 61.9994 103.585 62.2906 103.701 62.614C103.926 63.7123 103.781 65.1376 104.508 65.7928C104.742 66.756 104.91 66.7778 105.539 65.9248C105.674 65.2103 105.435 64.868 104.984 64.501C105.541 64.7955 106.036 64.4649 106.435 64.7721C106.521 64.8453 106.624 64.8178 106.711 64.699Z" fill="#E48F41"/>
<path id="Vector_165" d="M103.702 62.5914C104.184 61.0177 104.316 62.7087 104.626 62.6264C104.713 62.5075 104.721 62.3725 104.672 62.2453C104.439 61.282 105.143 61.5744 105.264 61.085C105.425 60.6884 105.825 60.6117 105.817 60.0013C105.296 59.8446 104.708 60.0451 104.292 59.4771C103.807 60.373 103.322 61.2689 102.814 62.1634C103.11 62.306 103.406 62.4487 103.702 62.5914Z" fill="#E08A3E"/>
<path id="Vector_166" d="M105.468 65.4347C105.172 66.5457 104.848 66.3222 104.497 65.7808C104.187 65.8632 103.883 66.0249 104.26 66.5002C104.449 66.7378 104.585 66.9157 104.558 67.3432C104.988 67.1554 105.424 67.047 105.826 66.7559C106.132 66.5491 106.724 66.473 106.402 65.4816C106.105 65.7229 106.115 65.3734 106.1 65.0675C106.081 64.8292 106.053 64.5564 105.857 64.6232C105.59 64.7308 105.419 64.946 105.468 65.4347Z" fill="#E89C4E"/>
<path id="Vector_167" d="M48.0919 33.5562C48.1109 33.4331 48.1193 33.2981 48.1383 33.175C47.5639 33.512 47.0064 34.3017 46.4023 33.6655C46.1161 33.3653 45.9362 34.0769 45.6894 34.2309C44.9702 34.7169 44.1643 34.5989 43.505 35.755C43.2386 36.2241 42.7591 36.3072 42.5058 35.6589C42.4383 35.6547 42.3483 35.6491 42.2689 35.6554C42.0672 36.1737 41.7839 36.5513 41.4415 36.7898C40.7905 37.4494 41.1407 37.9908 41.3666 38.5357C41.522 38.76 41.6655 38.9948 41.927 38.7852C42.0065 38.7789 42.0845 38.795 42.164 38.7887C42.2939 37.9723 42.6496 37.3394 43.0904 37.333C44.6156 37.3264 45.966 35.7729 47.4074 35.1173C48.012 34.8387 48.0471 34.2762 48.0919 33.5562Z" fill="#F2C186"/>
<path id="Vector_168" d="M64.4067 62.2774C65.4473 61.8904 66.5139 61.6294 67.5418 61.0835C68.055 60.8219 68.3357 61.2121 68.7098 61.3709C69.0072 61.4911 69.1677 62.1787 69.6021 61.7315C69.6513 61.3053 69.6688 60.8434 69.9676 60.5796C70.1164 59.2788 69.0442 59.6299 69.032 58.5561C68.9926 58.4633 68.9385 58.4261 68.8921 58.4458C68.8337 58.476 68.8203 58.5091 68.807 58.5421C68.4583 59.0625 68.8199 59.7853 68.422 60.3704C68.121 60.1257 67.8186 59.9036 67.5176 59.659C67.0754 60.0493 66.7231 59.7224 66.3209 59.6522C66.0192 59.5995 65.7295 59.5362 65.4278 59.4836C65.2879 59.3732 65.1585 59.2748 65.0186 59.1644C64.4324 60.5961 63.4837 59.6899 62.8053 60.6077C62.5593 60.9312 62.2436 61.1035 61.9687 61.3461C62.8251 61.3769 63.957 60.2503 64.4067 62.2774Z" fill="#EBB170"/>
<path id="Vector_169" d="M66.2864 59.6613C66.6465 60.0452 67.0122 60.339 67.4832 59.6681C67.4051 59.652 67.339 59.6253 67.2624 59.5866C67.031 59.4931 66.7997 59.3997 66.5683 59.3062C66.4818 59.425 66.3848 59.5319 66.2864 59.6613Z" fill="#935D45"/>
<path id="Vector_170" d="M68.7726 58.5513C68.852 58.545 68.9195 58.5492 68.9976 58.5653C69.0186 58.2278 69.0158 57.9114 68.795 57.8299C68.7288 57.8032 68.6171 57.9656 68.5229 58.0275C68.6136 58.2026 68.7043 58.3776 68.7726 58.5513Z" fill="#DB9657"/>
<path id="Vector_171" d="M80.3493 59.092C80.8058 59.5609 81.3065 59.8632 81.8606 60.0332C82.3456 59.4987 82.5558 58.8455 82.3243 58.0292C81.5901 57.4865 80.9637 58.2945 80.3493 59.092Z" fill="#C67B42"/>
<path id="Vector_172" d="M80.227 59.9654C80.076 60.7578 79.0747 60.5147 79.3442 61.8078C80.2281 61.5805 81.0999 61.3637 81.9837 61.1365C81.5083 60.4292 80.8241 60.3527 80.227 59.9654Z" fill="#C2753E"/>
<path id="Vector_173" d="M83.3205 61.6151C83.7233 60.7705 84.2927 59.9702 83.8636 58.8818L83.8397 58.9029C83.5571 59.45 83.2632 59.4543 82.9074 59.3644C82.5396 59.285 82.1304 59.3272 82.0926 60.2962C82.2403 60.4635 82.388 60.6308 82.5237 60.8087C82.9196 60.7995 83.0392 61.4168 83.3205 61.6151Z" fill="#CE8A50"/>
<path id="Vector_174" d="M37.8187 36.564C37.2507 37.3418 36.5771 37.6386 35.9416 38.0508L35.9599 38.1197C35.8615 38.2491 35.8305 38.3827 35.8777 38.5324C35.9621 38.6281 36.0535 38.6112 36.1399 38.4923C37.0702 38.2453 37.8212 38.8794 38.5913 39.3905C38.6707 39.3841 38.7488 39.4003 38.8282 39.394C38.9773 39.1774 39.0827 38.9355 39.1579 38.6352C39.5871 36.6403 38.6119 36.8845 37.9868 36.5857C37.9312 36.571 37.8757 36.5562 37.8187 36.564Z" fill="#CF935E"/>
<path id="Vector_175" d="M37.9854 36.6082C38.0095 37.6714 39.5766 36.6283 38.9104 38.6197C39.1636 38.9066 39.4645 38.7898 39.7704 38.775C40.1585 38.7088 40.5452 38.6651 40.7715 37.9338C40.8578 36.7307 40.4028 36.6007 39.8438 36.6901C39.4669 36.5763 38.9945 36.9083 38.7398 36.2825C38.5 35.9626 38.3805 36.4295 38.2224 36.6117C38.1204 36.6166 38.0529 36.6124 37.9854 36.6082Z" fill="#DCA168"/>
<path id="Vector_176" d="M39.8214 36.6888C40.0648 37.1332 40.6891 36.901 40.626 37.9136C40.8764 38.2454 40.923 39.31 41.5142 38.3416C41.4325 37.8396 41.0844 37.4452 41.4534 36.7792C41.156 36.659 40.654 37.1021 40.7361 35.9665C40.7831 35.3934 40.3802 35.5152 40.1243 35.6347C39.7291 35.8134 39.758 36.2557 39.8214 36.6888Z" fill="#EAB477"/>
<path id="Vector_177" d="M38.1879 36.6209C38.3644 36.5077 38.5409 36.3944 38.7054 36.2918C38.8172 36.1293 38.9409 35.9563 39.0541 35.7714C39.0541 35.7714 38.9767 35.5632 38.9528 35.5843C38.6265 35.7447 38.2884 35.9156 38.1879 36.6209Z" fill="#B67D54"/>
<path id="Vector_178" d="M83.6391 65.5653C83.5617 65.7186 83.4394 65.8691 83.4338 65.9591C83.4373 66.0835 83.54 66.2481 83.6181 66.2642C83.7742 66.2965 83.919 66.1474 83.9042 65.8416C83.8887 65.7277 83.7445 65.6848 83.6391 65.5653Z" fill="#F2BF81"/>
<path id="Vector_179" d="M94.2002 45.6115C94.2045 46.2668 94.2102 46.8997 94.2146 47.555C94.294 47.5487 94.384 47.5543 94.4635 47.5479C96.0368 45.8615 94.2362 46.3027 94.2002 45.6115Z" fill="#D7975D"/>
<path id="Vector_180" d="M41.9406 59.2285C42.3357 58.6884 42.5225 57.5028 43.2545 57.8986C43.3206 57.9253 44.371 57.3808 43.9264 56.1785C43.7795 56.1807 43.6325 56.1828 43.4631 56.1836C43.2551 57.3452 42.751 57.2799 42.2306 57.2926C41.8573 57.3033 41.3833 56.9349 41.1465 58.0157C41.2577 58.4066 41.3569 58.8081 41.4786 59.211C41.6256 59.2088 41.7831 59.2186 41.9406 59.2285Z" fill="#DB9D60"/>
<path id="Vector_181" d="M106.711 64.699C106.643 64.6948 106.553 64.6892 106.486 64.685C106.289 64.5823 106.19 64.7117 106.213 65.0746C107.121 65.3571 107.909 64.6833 108.592 63.5061C109.149 62.5469 108.515 62.9366 108.331 62.8009C108.178 62.7236 108.012 62.6568 107.849 62.5675C108.213 64.3296 106.948 63.7877 106.711 64.699Z" fill="#E89C4E"/>
<path id="Vector_182" d="M96.4612 66.9629C96.4682 66.8504 96.4633 66.7484 96.4808 66.6479C96.0378 66.5073 95.6174 66.7296 95.254 67.3055C95.6569 67.1838 96.0597 67.0621 96.4612 66.9629Z" fill="#E4A25F"/>
<path id="Vector_183" d="M106.213 65.0745C106.311 64.9451 106.387 64.8143 106.486 64.6849C106.127 63.1943 105.303 64.8145 104.735 64.5081C104.986 64.8174 105.228 65.1148 105.479 65.4241C105.636 65.095 105.818 64.5304 105.962 65.2961C106.046 65.7531 106.14 65.8832 106.391 65.4697C106.331 65.353 106.272 65.2137 106.213 65.0745Z" fill="#E7974A"/>
<path id="Vector_184" d="M36.14 38.4924C36.062 38.4762 35.9945 38.472 35.9045 38.4664C35.4375 38.347 35.0664 38.866 34.6614 39.2021C35.0443 41.0331 36.1537 40.2664 36.9715 40.3739C37.4187 40.4469 37.2316 39.8253 37.1323 39.4239C36.9374 38.7454 36.3258 39.1364 36.14 38.4924Z" fill="#B37247"/>
<path id="Vector_185" d="M82.1151 60.2976C82.3674 59.6922 82.7006 59.4193 83.0248 59.8348C83.7471 60.7494 83.735 59.6757 83.8621 58.9043C83.616 58.8664 83.3418 58.9171 83.2348 58.4587C82.9388 58.316 82.6547 58.1628 82.3586 58.0201C82.2041 58.6881 82.0495 59.3561 81.8949 60.0241C81.9568 60.1183 82.0307 60.202 82.1151 60.2976Z" fill="#BF733B"/>
<path id="Vector_186" d="M60.2851 36.891C60.2267 36.5598 60.0614 36.4931 59.8709 36.4699C59.1607 36.2675 58.5222 36.3633 58.2982 37.9644C58.6027 37.972 58.9191 37.9692 59.2236 37.9769C59.4132 37.1077 59.8597 37.0113 60.2851 36.891Z" fill="#C5874C"/>
<path id="Vector_187" d="M41.5022 38.3521C41.0557 38.8099 41.0119 37.7004 40.614 37.9241C40.3075 38.4923 39.9629 38.2223 39.6437 38.2702C39.5167 39.403 40.4111 39.5491 40.2974 40.6488C41.0469 40.5826 41.8907 40.8159 41.9058 38.7613C41.7792 38.6179 41.6407 38.485 41.5022 38.3521Z" fill="#E0B284"/>
<path id="Vector_188" d="M40.3079 40.6607C40.8786 39.1151 39.6481 39.2869 39.6542 38.2821C39.4103 38.3911 39.1543 38.5107 38.9209 38.6317C38.8935 38.8898 38.8662 39.1478 38.8268 39.4164C39.3001 39.6153 40.4398 38.907 39.576 40.9878C39.8094 40.8668 40.0534 40.7578 40.3079 40.6607Z" fill="#D8A779"/>
<path id="Vector_189" d="M61.5886 39.7167C61.7545 39.5915 61.7854 39.4579 61.6363 39.3131C61.4182 38.4637 61.0574 38.2718 60.5112 38.8815C60.6752 39.6936 60.6604 39.7492 60.2871 39.7598C59.8223 39.7873 59.4301 40.6438 58.9505 40.3655C58.857 40.5968 58.7516 40.8387 58.6581 41.0701C59.6749 41.0657 60.6648 40.7659 61.5886 39.7167Z" fill="#BE7436"/>
<path id="Vector_190" d="M96.1304 65.3837C95.9919 65.2508 95.8653 65.1074 95.7268 64.9745C95.7184 65.1095 95.6994 65.2326 95.691 65.3676L95.6798 65.5476L95.6685 65.7276C95.8851 65.8767 96.1123 66.0376 96.3408 66.1761C96.2782 65.9124 96.205 65.6368 96.1304 65.3837Z" fill="#854A35"/>
<path id="Vector_191" d="M94.2457 63.7301C94.1052 64.1732 93.9646 64.6162 93.8227 65.0817C94.2439 65.0289 94.6425 64.9746 95.0637 64.9218C94.7831 64.5316 94.5144 64.1309 94.2457 63.7301Z" fill="#8D4220"/>
<path id="Vector_192" d="M95.2293 63.3511C95.0008 63.2126 94.7947 63.0755 94.5662 62.937C94.6689 63.463 94.8476 63.8581 95.1366 64.1133C95.1746 63.8672 95.2019 63.6091 95.2293 63.3511Z" fill="#9F562E"/>
<path id="Vector_193" d="M34.6615 39.202C35.0833 38.9573 35.4826 38.7111 35.9045 38.4663C35.9235 38.3433 35.9305 38.2308 35.9494 38.1077C35.6422 38.145 35.3229 38.1929 35.0051 38.2183C34.9025 38.4152 34.7999 38.6121 34.6973 38.809C34.6888 38.944 34.6699 39.067 34.6615 39.202Z" fill="#BD8258"/>
<path id="Vector_194" d="M60.5217 38.8936C60.9429 38.8407 61.3317 38.944 61.6468 39.3251C61.7494 38.7668 61.7022 38.2556 61.5861 37.7627C61.1762 37.9969 60.7438 38.2297 60.3339 38.464C60.393 38.6032 60.4521 38.7424 60.5217 38.8936Z" fill="#C88649"/>
<path id="Vector_195" d="M61.9424 36.5764C61.5324 36.0878 61.2631 36.2404 61.1697 37.1946C61.4573 37.1109 61.7252 36.9808 61.9424 36.5764Z" fill="#C88D56"/>
<path id="Vector_196" d="M104.672 62.2454C104.654 62.3684 104.645 62.5034 104.626 62.6265C104.707 62.9591 104.85 63.0244 105.056 62.8001C105.213 62.6405 105.284 62.4077 105.173 62.1862C105.032 61.9064 104.836 62.1652 104.672 62.2454Z" fill="#E7974A"/>
</g>
</g>
<defs>
<clipPath id="clip0_106_45979">
<rect width="82.1144" height="80.329" fill="white" transform="translate(115.117 60.8293) rotate(138.566)"/>
</clipPath>
</defs>
</svg>
