<svg width="196" height="146" viewBox="0 0 196 146" fill="none" xmlns="http://www.w3.org/2000/svg">
<g clip-path="url(#clip0_104_30138)">
<path d="M60.697 66.8173C59.1131 63.8773 56.5762 62.0235 53.167 61.089C51.7256 60.6987 50.3712 61.0959 49.6008 62.4261C48.839 63.727 49.662 64.6028 50.7168 65.2291C53.4769 66.8626 56.4617 68.0538 60.1613 67.4542C60.5343 67.3729 60.7198 67.1733 60.697 66.8173Z" fill="#693632"/>
<path d="M48.485 43.4634C47.5349 44.106 46.8523 44.1602 45.856 43.551C43.3883 42.0031 39.939 43.3745 38.7028 46.1874C38.2228 47.285 38.028 48.2757 39.5158 48.616C42.9385 49.3958 46.3514 47.8233 48.1475 44.5076C48.9571 44.2366 48.9343 43.8807 48.485 43.4634Z" fill="#693632"/>
<path d="M60.697 66.8174C60.5115 67.0171 60.3261 67.2168 60.1406 67.4165C61.326 67.9222 62.465 68.4779 64.4278 67.8461C63.2211 66.7626 62.0036 66.692 60.697 66.8174Z" fill="#855C59"/>
<path d="M70.7077 69.4941C70.809 69.365 70.814 69.2394 70.7605 69.0968C69.996 68.238 68.7992 68.2051 67.6487 68.1223C67.3327 68.4426 67.5189 68.7828 67.521 69.1009C68.5359 69.4297 69.4138 70.2265 70.7077 69.4941Z" fill="#885F5C"/>
<path d="M67.521 69.1008C67.5567 68.762 67.613 68.461 67.6487 68.1223C66.9141 67.812 66.1845 67.3761 65.1966 68.0394C65.4612 69.1963 66.6473 68.9403 67.521 69.1008Z" fill="#7C4F4C"/>
<path d="M94.5894 58.5159C90.2568 53.4695 85.2887 48.9673 80.5268 44.3032C79.4861 45.3637 80.1971 46.0799 80.8718 46.5949C82.0422 47.4772 82.7746 48.771 84.0755 49.5328C94.849 59.7983 103.343 71.7775 112.315 83.6426C99.869 79.523 88.7622 73.5412 76.3721 69.8823C74.5884 69.3601 72.9124 68.3615 70.7312 69.0881C70.4666 69.2329 70.4324 69.3499 70.6784 69.4854C73.823 70.5647 77.1288 71.3102 80.0194 72.8231C80.2227 73.1049 80.8211 73.1213 80.6927 73.56C80.6156 73.8231 80.1549 73.8787 79.8403 73.9771C71.8643 74.436 63.8996 74.422 55.9491 77.3964C54.703 77.8571 54.1517 77.029 53.3551 76.6053C50.7019 75.2571 46.6208 75.9673 44.2471 78.0027C42.715 79.3321 42.7662 80.4583 44.2868 80.9034C47.4157 81.8194 50.5289 82.572 54.2592 80.4575C58.6236 78.0207 63.5307 77.7428 68.2238 76.8943C81.6912 74.4872 93.0292 78.3778 104.217 82.8911C113.593 86.6518 121.57 91.7176 128.145 98.9758C138.779 110.693 149.46 122.36 159.597 134.471C161.221 136.407 162.581 138.487 163.658 140.771C164.517 142.61 165.796 144.096 167.732 145.075C166.25 141.244 164.815 137.363 162.19 134.182C152.605 122.677 142.982 111.193 132.253 100.559C130.581 98.8954 130.195 96.5281 128.947 94.6073C128.826 93.9369 128.444 94.0474 127.969 94.4796C126.463 96.2612 126.208 94.3133 125.875 93.9303C121.872 89.7106 117.802 85.503 114.098 81.0216C109.305 75.2691 103.76 70.0265 99.9056 63.5644C99.5768 63.2777 99.2566 62.9617 98.9741 62.625C98.2595 61.8126 97.5827 60.9795 96.8973 60.1757C96.3118 59.4646 95.8996 58.4867 94.5894 58.5159Z" fill="#673430"/>
<path d="M84.1048 49.5415C83.0914 47.6892 80.8633 46.6242 80.556 44.3119C78.1298 41.538 74.4845 40.2169 71.4848 38.1005C70.1975 37.184 68.6226 38.6595 67.2689 38.295C64.5908 37.5745 61.6088 37.2412 59.3065 35.9958C53.3926 32.7724 46.5199 32.824 39.6437 32.7794C37.5803 32.7786 35.708 32.9924 34.2339 31.1957C32.4688 29.0916 28.8883 30.0436 27.0965 32.6938C26.3019 33.8899 26.585 34.7664 27.6191 35.3549C29.1162 36.2059 30.8065 36.288 32.7094 35.8609C43.2554 33.4558 52.8961 34.4684 61.4032 39.2447C61.9888 39.9558 63.1527 39.8838 63.7468 40.5657C65.2767 41.5215 67.2316 41.4589 69.0047 41.6922C75.3403 42.4992 79.0531 46.9514 84.1048 49.5415Z" fill="#693531"/>
<path d="M94.5894 58.5159C95.2456 59.3112 95.9102 60.0772 96.5371 60.864C97.7517 61.3783 98.4029 62.2991 98.8307 63.4403C99.1988 63.4845 99.5582 63.558 99.9262 63.6022C100.188 62.5995 99.4463 62.0966 98.9521 61.5074C97.0543 59.2057 96.2171 56.643 96.4812 53.3551C96.791 49.4772 96.3133 45.6864 97.2351 41.6702C98.0883 37.888 97.207 34.3917 94.8649 31.5472C93.5113 29.881 93.2368 27.6736 92.0722 25.904C91.6949 25.3491 91.6821 24.7421 92.426 24.2614C94.4224 22.9727 94.0409 21.7816 92.8891 20.619C91.6168 19.3258 90.8388 17.3202 87.9566 18.3813C86.0436 19.0595 85.5101 20.0145 86.7083 21.1272C90.7984 24.8326 91.7838 30.3595 94.7228 34.7439C96.2525 37.0014 96.2424 39.8557 94.7529 43.6422C90.6699 38.8276 86.94 34.4339 83.1894 30.0024C82.0082 31.4345 83.5837 31.8005 84.0608 32.4481C87.0904 36.4146 90.7676 39.9039 93.5069 44.1029C95.2355 48.6091 95.099 53.5219 94.5894 58.5159Z" fill="#6A3733"/>
<path d="M129.045 69.8725C128.009 65.061 125.277 61.0546 123.435 56.6104C122.779 55.0533 122.009 53.7802 124.179 52.2248C125.335 51.4203 125.481 50.1615 124.71 49.1101C123.452 47.4404 121.908 46.0994 119.386 46.4723C117.966 46.6598 116.946 47.7581 116.289 49.0262C115.802 49.9312 116.006 50.7529 116.748 51.2558C123.165 55.579 124.54 63.0295 127.801 69.3496C127.893 70.0115 128.052 70.6613 129.045 69.8725Z" fill="#693632"/>
<path d="M34.1314 14.0853C36.1216 10.5407 32.8899 9.97561 30.9992 9.16812C29.2547 8.40344 26.7513 8.49601 25.11 10.5236C23.764 12.1932 27.4248 16.281 30.0417 16.1263C31.2057 16.0544 32.2834 15.7349 33.1471 14.8448C33.6749 14.7771 33.9738 14.5154 34.1314 14.0853Z" fill="#693632"/>
<path d="M77.8981 25.6279C76.7713 23.8376 77.765 20.9854 75.4542 19.7692C74.2154 19.1208 72.9602 17.7692 71.3924 19.4373C69.9174 21.0057 69.1491 22.6539 71.0512 24.2902C72.8242 25.8251 75.118 25.7982 77.3553 26.0722C77.6734 26.07 77.8503 25.8996 77.8981 25.6279Z" fill="#6A3733"/>
<path d="M48.485 43.4634C48.3822 43.8143 48.2795 44.1652 48.1768 44.5161C53.099 41.2584 58.332 40.4092 63.7383 40.5949C64.4574 38.1386 62.2377 39.6477 61.3947 39.2739C56.7537 39.1852 52.2389 39.6414 48.485 43.4634Z" fill="#71413D"/>
<path d="M93.5447 44.0822C92.607 40.8869 89.685 39.0473 87.9398 36.441C86.46 34.2299 84.0594 32.6699 83.2186 30.011C82.4933 28.9097 81.7973 27.817 80.373 27.3683C79.9628 28.0102 80.7352 28.2998 80.6396 28.8433C84.9344 33.9103 89.2584 38.9859 93.5447 44.0822Z" fill="#8E6865"/>
<path d="M129.1 82.0481C130.127 79.8407 129.973 77.7638 129.434 75.7011C129.075 75.6276 128.766 75.3786 128.351 75.6061C128.546 77.7587 127.983 80.0068 128.61 82.0951C128.772 82.3013 128.927 82.3148 129.1 82.0481Z" fill="#7E534F"/>
<path d="M63.1184 30.3493C61.7362 29.2145 60.3832 28.0882 58.9925 26.9826C58.8071 27.1823 58.5838 27.4027 58.3984 27.6024C59.6208 28.8492 60.8603 30.0375 62.6219 30.7437C62.9814 30.8172 63.1412 30.7052 63.1184 30.3493Z" fill="#70403C"/>
<path d="M129.045 69.8725C128.623 69.6856 128.193 69.528 127.772 69.3411C127.949 71.0122 128.135 72.654 128.313 74.3252C128.621 74.5741 128.96 74.6098 129.376 74.3823C129.587 72.7932 129.618 71.2783 129.045 69.8725Z" fill="#815653"/>
<path d="M129.1 82.0481C128.94 82.1601 128.785 82.1465 128.618 82.0659C127.775 83.7555 127.613 85.391 128.302 87.5927C129.472 85.3319 129.508 83.6914 129.1 82.0481Z" fill="#7E524F"/>
<path d="M128.048 94.5346C128.387 94.5703 128.688 94.6267 129.026 94.6623C128.73 93.1788 129.987 91.1654 127.833 90.2809C128.393 91.6196 127.429 93.1787 128.048 94.5346Z" fill="#774845"/>
<path d="M66.2705 34.7645C67.018 35.6817 67.3688 37.0861 69.3045 36.7638C68.6291 35.7089 67.978 34.7881 66.8133 34.3201C66.4539 34.2467 66.277 34.4171 66.2705 34.7645Z" fill="#7E524E"/>
<path d="M51.6336 23.2727C50.6045 22.5587 49.5546 21.8069 48.5255 21.0929C48.3229 21.351 48.1289 21.58 47.8971 21.8296C48.703 22.764 49.5723 23.5899 51.2007 23.5586C51.5052 23.7113 51.665 23.5993 51.6336 23.2727Z" fill="#906A67"/>
<path d="M80.6482 28.814C80.5719 28.3154 80.4578 27.8376 80.3815 27.339C79.6155 26.7021 79.0814 25.8155 77.8981 25.6278C77.7298 25.769 77.5237 25.9309 77.3554 26.0721C78.4587 26.9666 79.5534 27.8903 80.6482 28.814Z" fill="#6C3A36"/>
<path d="M43.0302 18.4999C42.0509 17.8323 41.101 17.1732 40.1217 16.5056C39.8985 16.726 39.6959 16.9841 39.4726 17.2045C40.5154 17.7637 41.0823 18.7552 42.4788 18.9735C42.859 19.0848 43.0651 18.9229 43.0302 18.4999Z" fill="#967370"/>
<path d="M66.2706 34.7644C66.4389 34.6232 66.645 34.4613 66.8134 34.3201C65.5789 33.0062 64.3443 31.6924 63.1184 30.3493C62.95 30.4905 62.7903 30.6025 62.6219 30.7437C63.8479 32.0868 65.0446 33.4213 66.2706 34.7644Z" fill="#6A3733"/>
<path d="M43.0302 18.5C42.8533 18.6704 42.6471 18.8323 42.4703 19.0028C43.2298 19.9871 44.4045 20.2039 46.1176 20.642C45.3417 18.9544 43.973 18.9665 43.0302 18.5Z" fill="#9D7C79"/>
<path d="M54.7553 25.2977C55.3807 26.3063 56.2722 26.9482 58.0896 26.8135C57.1596 25.6523 56.4278 24.8984 54.8979 25.2442L54.7553 25.2977Z" fill="#977472"/>
<path d="M34.1314 14.0853C33.8033 14.3385 33.4752 14.5917 33.1471 14.8449C34.3874 15.2715 35.6569 15.7066 37.0641 16.2138C36.6306 14.6582 34.8874 14.9733 34.1314 14.0853Z" fill="#6B3935"/>
<path d="M54.7553 25.2977L54.9272 25.2528C54.0714 24.2721 52.9958 23.608 51.6336 23.2727C51.5031 23.3932 51.3811 23.4845 51.2006 23.5587C52.1149 24.5565 53.1855 25.3461 54.7553 25.2977Z" fill="#70403C"/>
<path d="M79.8988 73.9943C80.8588 74.4023 81.8424 74.4045 83.1034 73.5673C82.0921 73.3347 81.0893 73.0729 80.0779 72.8403C80.0044 73.1998 79.9516 73.597 79.8988 73.9943Z" fill="#E3D9D9"/>
<path d="M129.376 74.3822C129.028 74.3758 128.66 74.3316 128.313 74.3251C128.339 74.7773 128.345 75.1917 128.371 75.6439C128.739 75.6881 129.087 75.6946 129.455 75.7388C129.437 75.2574 129.411 74.8052 129.376 74.3822Z" fill="#764743"/>
<path d="M98.86 63.4488C98.7687 62.0252 98.2481 60.9839 96.5664 60.8725C97.3309 61.7313 98.0954 62.5901 98.86 63.4488Z" fill="#BCA5A4"/>
</g>
<defs>
<clipPath id="clip0_104_30138">
<rect width="174.832" height="100" fill="white" transform="translate(28.0955) rotate(16.3172)"/>
</clipPath>
</defs>
</svg>
