<svg width="46" height="46" viewBox="0 0 46 46" fill="none" xmlns="http://www.w3.org/2000/svg">
<g id="Frame" clip-path="url(#clip0_106_59021)">
<g id="Group">
<path id="Vector" d="M29.3886 16.7536C28.5758 17.0035 27.7577 17.1268 26.9827 17.8192C26.4796 18.2714 25.9263 18.4809 25.4504 19.0569C25.3376 19.1892 25.2407 19.1353 25.1453 19.1293C23.9 19.0474 22.6504 19.0349 21.3935 19.0698C20.2719 19.1001 19.1641 18.9788 18.026 18.9253C18.5472 18.1126 19.1514 17.5054 19.8368 17.204C20.5539 16.8827 21.2854 16.8194 21.9948 16.3408C22.4644 16.2872 22.9303 16.081 23.3933 15.8528C23.5959 15.7478 23.8115 15.7133 23.9902 15.4326C24.0208 15.2907 23.9863 15.2145 23.9248 15.154C23.8412 15.0965 23.7452 15.0992 23.6522 15.1239C23.0937 15.2068 22.5472 15.5169 21.9928 15.7438C21.8941 15.7899 21.8293 15.9209 21.7564 16.0427C21.2655 16.3694 20.7602 16.4381 20.269 16.56C19.3756 16.7744 18.6162 17.4939 17.9055 18.4821C17.6433 18.8448 17.3986 18.9951 17.0721 19.0619C16.0745 19.2699 15.0837 19.2996 14.0893 19.4555C13.3106 19.5769 12.5707 19.4262 11.8098 19.4006C11.0403 19.3744 10.2757 19.2701 9.42375 19.448C10.0892 18.4177 10.8119 17.7961 11.5002 17.0984C11.5267 16.9519 11.5096 16.8768 11.4109 16.9229C10.7747 17.3451 10.1878 17.9533 9.63381 18.6638C8.95208 19.5362 8.21569 19.6777 7.45272 19.8262C6.12559 20.0789 4.8106 19.9273 3.48079 20.3629C2.8049 20.5822 2.13285 21.0195 1.46621 21.3701C1.32193 21.4482 1.16842 21.5345 1.04724 21.8711C1.26127 22.0021 1.46415 21.9625 1.68627 21.8238C3.03444 20.9537 4.37458 20.632 5.73972 20.6082C6.59873 20.5964 7.48917 20.36 8.36116 20.1398C9.78158 19.7883 11.1465 19.9779 12.5347 19.9337C13.6961 19.8928 14.5487 20.5428 15.3057 21.6792C15.5969 22.2506 16.0311 22.343 16.4776 22.3099C16.8627 22.2816 17.2457 22.288 17.6276 22.3118C17.8118 22.3625 17.9925 22.3999 18.1831 22.3464C18.3144 22.3372 18.4335 22.3141 18.4264 22.0087C18.2947 21.5343 17.9915 21.6461 17.733 21.6692C17.26 21.7095 16.8057 21.6594 16.38 21.4281C16.2821 21.3915 16.1834 21.2982 16.0863 21.3183C15.2853 21.5167 14.9401 20.4844 14.3997 19.928C15.1144 19.8549 15.8308 19.7557 16.5389 19.6474C17.801 19.4602 19.0823 19.3135 20.2902 19.5761C20.9734 19.7276 21.6733 20.1024 22.2997 20.6076C22.6648 20.9004 23.082 21.0571 23.4043 21.478C23.53 21.6296 23.6206 21.8531 23.7606 21.9838C24.1171 22.555 24.6322 22.7483 25.0356 23.196C25.2789 23.2766 25.5025 23.4648 25.7694 23.3768C25.8461 23.3337 25.9025 23.2675 25.9285 23.1297C25.8864 22.8962 25.7554 22.8314 25.6336 22.7584C25.2013 22.7053 24.9448 22.1361 24.5645 21.9468C24.4943 21.8858 24.4058 21.9064 24.3407 21.8327C23.7746 21.3399 23.2198 20.8043 22.6319 20.3799C22.2483 20.1033 21.8601 19.8308 21.3339 19.6063C22.0432 19.4806 22.6358 19.4086 23.2174 19.4449C24.5795 19.5385 25.9669 19.4376 27.3277 19.6226C27.6733 19.6703 27.927 19.8647 28.1139 20.2902C28.3085 20.7337 28.557 21.0803 28.9321 21.1429C28.6996 20.7493 28.3988 20.4735 28.214 20.0133C28.186 19.6935 28.4825 19.8993 28.4621 19.5974C27.6857 19.3312 26.8812 19.2375 26.001 19.1696C27.1739 18.0359 28.3244 17.3321 29.5433 17.2076C29.6584 17.3193 29.7923 17.2667 29.9258 17.2227C30.1365 17.1269 30.35 16.9878 30.5645 16.9706C30.6969 16.944 30.8227 16.8822 30.9469 16.8463C31.0758 16.8064 31.2062 16.7405 31.3356 16.6919C31.3801 16.6773 31.4251 16.6539 31.4701 16.6306C31.6716 16.4035 31.9879 16.6411 32.1063 16.069C32.0749 16.0148 32.0382 15.9733 31.9965 15.9445C31.6322 15.8478 31.2622 16.0513 30.8936 16.1634C30.3664 16.3745 29.8602 16.2471 29.3886 16.7536Z" fill="#67342F"/>
<path id="Vector_2" d="M30.8736 16.3451C31.2451 16.255 31.6099 16.0642 31.9745 16.087C32.0894 15.9199 32.177 15.7031 32.2961 15.5406C32.3755 15.4541 32.286 15.3527 32.3353 15.2599C32.3405 15.2471 32.3614 15.2615 32.3684 15.2881C32.4333 15.4359 32.305 15.4671 32.2863 15.5574C32.2484 15.7468 32.2739 15.8965 32.3536 16.0147C32.5755 16.0896 32.8175 15.9826 33.0347 16.0615C33.1709 16.1136 33.216 16.3691 33.3527 16.4125C33.3915 16.4192 33.4354 16.4133 33.4758 16.394C33.609 16.2847 33.7503 16.1845 33.8105 15.9182C33.7966 15.791 33.8077 15.6827 33.8948 15.6141C33.927 15.5856 33.968 15.5577 34.0003 15.5292C34.1323 15.4372 34.265 15.476 34.3938 15.4361C34.4961 15.4032 34.5942 15.3658 34.6954 15.3503C34.7613 15.3413 34.8232 15.3278 34.8861 15.2968C34.9956 15.2165 35.1597 15.1701 35.1448 14.9209C35.1317 14.7109 34.9755 14.8406 34.8811 14.8173C34.7398 14.778 34.5844 14.8249 34.4607 14.7127C33.0152 14.7664 31.5652 14.6847 30.1159 15.8492C30.3107 16.2185 30.6869 15.9849 30.8736 16.3451Z" fill="#E69B52"/>
<path id="Vector_3" d="M24.9404 16.5461C25.3703 16.5685 25.7997 16.5996 26.2277 16.1645C26.3081 15.3635 26.742 15.3905 27.0428 15.1086C27.0629 15.0663 27.0829 15.024 27.103 14.9817C27.0585 14.7175 26.912 14.691 26.7614 14.6598C26.9122 14.6169 27.065 14.8922 27.1938 14.5735C27.3174 14.2675 27.1411 14.1606 27.0692 13.9863C27.0418 13.9366 27.0138 13.8957 26.9859 13.8547C26.8521 13.5545 26.6308 13.6104 26.4244 13.6367C26.3091 13.5991 26.2068 13.3531 26.0707 13.5798C25.9294 13.8194 26.0458 13.9791 26.1402 14.1418C25.9769 13.9661 25.8114 13.8251 25.621 13.8045C25.3785 13.7807 25.1865 13.9256 25.2991 14.4249C25.3407 14.6671 25.6249 14.4408 25.6011 14.8228C25.5872 15.7455 25.5872 15.7455 25.0174 16.0106C24.9411 16.0451 24.8796 16.124 24.8292 16.2342C24.7961 16.3454 24.7937 16.4541 24.8224 16.5518C24.8596 16.5846 24.8989 16.5827 24.9404 16.5461Z" fill="#E79A42"/>
<path id="Vector_4" d="M37.3858 20.489C37.9991 20.7842 38.6419 20.6762 39.2961 20.3858C39.4504 20.3562 39.1037 20.0471 39.3902 20.0649C39.5377 20.0741 39.6923 19.9705 39.8135 19.7733C39.9388 19.5807 40.0367 19.3384 39.9778 19.0951C39.9224 18.8651 39.7583 18.9116 39.6262 19.0035C39.4716 19.1072 39.3021 19.101 39.1386 19.2781C39.3799 18.901 39.5247 18.5354 39.1937 18.2534C38.6195 18.0302 38.0485 17.755 37.4005 18.0153C37.6512 18.4666 38.1125 18.125 38.3809 18.5033C38.5374 18.5784 38.5136 18.8209 38.5087 19.0385C38.5533 19.3026 38.4443 19.6531 38.5753 19.8573C38.7373 20.1245 38.5211 19.8888 38.5306 19.946C38.4167 19.9563 38.2954 20.0141 38.1834 20.0638C37.9277 20.3223 37.629 20.1512 37.3858 20.489Z" fill="#F3C48A"/>
<path id="Vector_5" d="M17.1397 24.2027C17.9529 24.5758 18.7907 24.3448 19.6377 23.8268C19.8823 23.6765 20.1411 23.5794 20.3648 23.2753C20.6691 22.8673 20.7284 22.5442 20.4164 22.2372C20.0107 22.7347 19.5553 22.702 19.1246 22.9017C19.0877 22.9343 19.0544 22.9801 19.0164 23.03C18.8814 23.2395 18.758 23.4714 18.6032 23.6491C18.5381 23.7147 18.4869 23.9076 18.4011 23.7454C18.2471 23.8404 18.144 23.6771 18.0097 23.6644C17.9704 23.6663 17.93 23.6856 17.8936 23.7094C17.7691 23.8193 17.6457 23.9118 17.5118 23.9645C17.4217 24.0111 17.3246 24.0312 17.23 24.082C17.1977 24.1104 17.1649 24.1476 17.1397 24.2027Z" fill="#F7D7AB"/>
<path id="Vector_6" d="M39.6558 27.6883C39.4916 27.3165 39.3275 26.9446 39.1587 26.5769C38.6951 26.3955 38.1964 26.6389 37.7168 26.6439C37.5334 26.6499 37.3216 26.6236 37.189 27.0031C37.2666 27.1561 37.3356 27.3085 37.4132 27.4614C37.8744 27.891 38.4591 27.8752 38.9415 28.245C39.2201 28.4585 39.549 28.1435 39.6558 27.6883Z" fill="#F0BB78"/>
<path id="Vector_7" d="M24.3189 21.8356C24.3723 21.8869 24.4304 21.9341 24.4879 21.99C24.7093 22.0735 24.9217 22.2305 25.1674 22.2022C25.4923 22.1615 25.6223 22.383 25.5627 22.9196C25.6672 22.9914 25.7803 23.0638 25.8847 23.1357C25.9238 23.3472 26.0334 23.4063 26.1522 23.4573C26.2287 23.4882 26.3052 23.5191 26.385 23.498C26.517 23.406 26.657 23.3973 26.7883 23.388C27.07 23.1311 27.0927 22.6272 27.2473 22.2447C26.7687 21.814 26.2387 21.6503 25.6539 21.8056C25.198 21.9209 24.7664 21.7851 24.3189 21.8356Z" fill="#DB9657"/>
<path id="Vector_8" d="M34.6306 24.43C34.5997 24.2277 34.4885 24.1946 34.3886 24.1187C34.0913 23.9956 33.8588 23.6021 33.5057 23.6759C33.4601 23.7079 33.4181 23.7532 33.4004 23.8262C33.2273 24.5778 33.2273 24.5778 32.6385 24.8679C32.4448 24.8994 32.2739 24.7057 32.068 24.8628C31.7811 25.2719 31.8113 25.557 32.1197 25.7113C32.3945 25.846 32.6395 26.1793 32.9939 25.7352C33.1781 25.5071 33.3097 25.842 33.4708 25.9131C33.649 25.9198 33.6821 25.6692 33.7553 25.4734C33.7457 24.9979 33.9955 24.9742 34.1577 24.8885C34.3424 24.7911 34.5227 24.7631 34.6306 24.43Z" fill="#EBAD69"/>
<path id="Vector_9" d="M24.9609 24.8862C26.1512 25.7794 27.3944 26.0355 28.7633 24.7615C28.7259 24.6633 28.6673 24.6248 28.5984 24.6118C28.555 24.6091 28.507 24.6105 28.4625 24.6251C28.2534 24.6949 28.0459 24.7386 27.8357 24.8257C27.5135 24.9624 27.219 25.0748 26.9452 24.6438C26.7471 24.3265 26.3604 24.5203 26.055 24.5274C25.8062 24.5337 25.548 24.6221 25.292 24.6759C25.177 24.7036 25.0585 24.718 24.9609 24.8862Z" fill="#F5CD99"/>
<path id="Vector_10" d="M35.7533 19.0018C35.1226 18.9843 34.5135 19.3907 33.9196 19.8329C33.2801 20.3072 32.6726 20.6876 32.04 20.3519C31.954 20.2638 31.9307 20.3582 31.9272 20.4843C32.2285 20.612 32.5356 20.7183 32.8256 20.8888C33.0147 21.0008 33.1978 21.0688 33.4098 20.8816L33.4001 20.8985C33.3927 20.8065 33.381 20.6446 33.3903 20.6364C34.234 20.0312 35.0665 19.2553 35.9747 19.3641C36.313 19.7381 36.7266 19.4633 37.1112 19.4437C37.2246 19.442 37.3268 19.4092 37.4299 19.2936C37.4746 19.2049 37.4795 19.1268 37.445 19.0506C36.916 18.7301 36.3413 18.7945 35.7533 19.0018Z" fill="#6F3C37"/>
<path id="Vector_11" d="M32.0701 16.0929C31.8602 16.3848 31.5946 16.2419 31.3853 16.5251C31.3485 16.9759 31.5592 16.8801 31.6398 16.9156C31.7773 16.8763 31.696 17.0629 31.7193 16.9685C31.725 16.9471 31.7117 16.9506 31.6862 16.9403C31.579 16.9118 31.4814 16.9406 31.3971 17.1053C31.338 17.3543 31.434 17.4909 31.5029 17.6434C31.5865 17.8403 31.829 17.5853 31.8599 17.927C31.9473 17.9237 32.0392 17.9164 32.1266 17.9131C32.258 17.4116 32.4474 17.8678 32.6007 17.7161C32.7294 17.3974 32.918 17.5181 33.0812 17.415C33.1192 17.3651 33.1403 17.3054 33.1534 17.2365C33.1623 17.163 33.162 17.0976 33.153 17.0317C32.9403 16.6699 32.7281 16.2994 32.4512 16.06C32.3592 16.0673 32.2987 15.9895 32.2434 15.8989C32.1653 15.894 32.076 15.858 32.0701 16.0929Z" fill="#DF9652"/>
<path id="Vector_12" d="M25.3447 14.3929C25.3197 13.9556 25.4723 13.8127 25.6484 13.9936C25.8326 14.1837 26.0642 14.1023 26.2807 14.4033C26.2422 14.0436 26.0677 13.9761 26.0907 13.6769C26.2521 13.5345 26.2614 13.9446 26.397 13.8659C26.659 13.5773 26.5068 13.4328 26.3765 13.2852C25.3748 13.2097 24.4034 13.8376 23.4365 14.4613C23.5174 14.7016 23.6707 14.6894 23.8182 14.6986C24.2809 14.405 24.7246 14.4152 25.1633 14.5776C25.2303 14.5513 25.2943 14.503 25.3447 14.3929Z" fill="#ECAA57"/>
<path id="Vector_13" d="M40.155 26.2468C40.3167 26.4486 40.5218 26.5137 40.7274 26.5701C40.8231 26.6414 40.933 26.6264 41.0325 26.637C41.3336 26.4205 41.0506 26.1371 41.1311 25.8938C40.9485 25.5382 40.9698 24.9862 40.7918 24.6266C40.6866 24.4981 40.5735 24.4257 40.4267 24.4732C40.0631 24.786 39.6776 24.8883 39.3061 25.1178C39.3289 25.1715 39.343 25.2247 39.3658 25.2784C39.4469 25.4446 39.5522 25.5732 39.6938 25.5384C40.0578 25.4304 40.1408 25.7754 40.155 26.2468Z" fill="#E6964A"/>
<path id="Vector_14" d="M18.9961 12.5901C18.584 12.5601 18.1715 12.6781 17.7609 12.9749C17.7376 13.0693 17.8762 13.0126 17.8038 13.1257C17.775 13.1675 17.7159 13.1377 17.6714 13.1524C17.494 13.2023 17.314 13.2956 17.3642 13.6778C17.4066 13.9767 17.5604 14.0952 17.7464 13.9064C17.9929 13.656 18.2031 13.5689 18.408 13.8474C18.7386 13.7852 19.0788 13.9197 19.3963 13.5082C19.4655 13.4471 19.5311 13.3728 19.6013 13.2944C19.6808 13.2079 19.777 13.1311 19.7664 12.9518C19.7569 12.7551 19.6658 12.6798 19.5518 12.6901C19.3547 12.7083 19.1683 12.6923 18.9961 12.5901Z" fill="#F0B878"/>
<path id="Vector_15" d="M27.2477 22.236C26.8994 22.3711 27.0064 23.0313 26.764 23.2863C26.6978 23.3693 26.6867 23.4776 26.7016 23.5874C26.7198 23.6452 26.7472 23.6948 26.7752 23.7358C27.2334 24.1434 27.2749 24.1067 27.3512 23.3011C27.3393 23.2133 27.3016 23.3285 27.3458 23.2485C27.371 23.1935 27.3954 23.2211 27.3819 23.2987C27.4286 23.6676 27.6806 23.7486 27.7324 24.1048C28.1575 24.2053 28.3137 24.0756 28.4335 23.5516C28.0526 23.0922 27.7186 22.5093 27.2477 22.236Z" fill="#E7A968"/>
<path id="Vector_16" d="M39.1851 18.2528C39.464 18.671 39.1662 18.9748 38.9217 19.404C39.2111 19.3044 39.3985 19.4424 39.5954 19.2194C39.7077 19.0957 39.8522 18.9435 39.8937 19.1857C39.9223 19.3574 39.839 19.6441 39.6839 19.7564C39.5836 19.8286 39.4797 19.8875 39.3688 19.9198C39.0579 20.0137 39.3018 20.2249 39.2875 20.3852C39.8386 20.2105 40.2641 19.7447 40.4584 18.7939C40.2077 18.6215 39.9229 18.5776 39.6996 18.3153C39.5399 18.2923 39.3668 18.2728 39.1851 18.2528Z" fill="#F6D1A0"/>
<path id="Vector_17" d="M17.4447 16.018C17.4754 16.0156 17.506 16.0131 17.5331 15.9974C18.1403 15.2728 18.8132 14.7527 19.4526 14.1391C19.6926 13.714 20.0378 13.4174 20.137 12.805C19.8535 12.6697 19.7367 13.2157 19.5227 13.3636C19.4501 13.4113 19.3831 13.4376 19.3115 13.468C19.216 13.7409 19.0948 13.9381 18.9009 14.0437C18.4282 14.2887 17.9758 14.6962 17.4857 14.8007C17.2517 14.8515 17.032 15.0208 17.0226 15.5212C17.126 15.7498 17.3028 15.848 17.4447 16.018Z" fill="#F5CD9C"/>
<path id="Vector_18" d="M26.3725 13.2807C26.4092 13.4616 26.5302 13.6172 26.393 13.8614C26.5939 13.7824 26.8125 13.6305 26.9138 14.0333C26.9344 13.9823 26.9574 13.9619 26.987 13.9768C26.9997 13.982 27.0022 14.0126 26.996 14.0427C27.0475 14.1941 27.1693 14.4064 27.1344 14.4783C27.0061 14.7884 26.9111 14.4949 26.8051 14.4491C26.6399 14.3734 26.5637 14.5473 26.4713 14.8422C26.7197 14.7705 26.9291 14.7661 27.0989 14.9771C27.282 14.6269 27.4604 14.2808 27.6393 13.926C27.7672 13.4111 27.7311 13.0821 27.3576 13.1329C27.0316 13.191 26.7021 13.2359 26.3725 13.2807Z" fill="#EBA44E"/>
<path id="Vector_19" d="M32.7018 22.3842C32.3153 22.3644 31.9288 22.3447 31.5422 22.325C31.2255 22.5144 30.9335 22.1651 30.6097 22.4673C30.6069 23.003 30.8933 23.0208 31.1016 23.1732C31.2891 23.3112 31.4744 23.484 31.7006 23.4894C31.9932 23.3377 32.2739 23.0981 32.5701 22.9598C32.6764 22.7921 32.7827 22.6245 32.7018 22.3842Z" fill="#BC723E"/>
<path id="Vector_20" d="M32.0563 24.9144C32.2573 24.9748 32.4629 25.0312 32.6639 25.0917C32.7639 24.8147 33.1743 24.8708 33.0001 24.311C32.9217 24.1013 32.8237 23.9253 32.649 23.9319C32.5612 23.9438 32.4757 23.9864 32.3954 24.0163C32.0724 24.0963 31.7486 24.1197 31.4209 24.2039C31.1914 23.9717 31.047 23.4922 30.6855 23.6309C30.672 23.9873 30.7542 24.2756 30.8549 24.5476C31.1783 24.9512 31.6415 24.6489 31.9909 24.9147C32.017 24.9163 32.0389 24.9133 32.0563 24.9144Z" fill="#D79559"/>
<path id="Vector_21" d="M33.2177 17.8112C33.6954 17.7669 34.1602 17.5781 34.5713 16.9938C34.6386 16.754 34.8091 16.6034 34.827 16.317C34.8643 15.8575 34.7113 15.7957 34.4803 15.8684C34.3069 15.923 34.1689 16.1104 34.0092 16.2268C33.9227 16.2868 33.808 16.3798 33.8039 16.5146C33.7913 17.0671 33.545 17.1041 33.3245 17.2167C33.2003 17.3919 33.1363 17.5796 33.2177 17.8112Z" fill="#EBAA65"/>
<path id="Vector_22" d="M15.4123 14.0964C15.1118 14.3042 14.8325 14.5918 14.5866 14.9729C14.8017 15.2259 15.0501 14.8754 15.2798 14.8941C15.3238 14.8881 15.3637 14.8775 15.4041 14.8583C15.4445 14.839 15.4854 14.8111 15.5223 14.7785C15.5785 14.7864 15.6565 14.373 15.7068 14.7551C15.8139 14.923 15.9493 14.9184 16.0982 14.8362C16.201 14.7947 16.2871 14.3905 16.4055 14.729C16.4833 14.9473 16.6361 14.9438 16.7874 14.8922C16.9507 14.7891 17.0906 14.641 17.1147 14.3244C16.8298 13.7229 16.4635 13.4474 15.9382 13.8372C15.7733 13.9664 15.5962 14.0817 15.4123 14.0964Z" fill="#ECB171"/>
<path id="Vector_23" d="M39.0598 23.9C39.0919 24.2244 39.106 24.5564 39.2292 24.8168C39.551 25.2464 39.9052 24.8763 40.2501 24.6538C40.4365 24.5304 40.3664 24.2559 40.435 24.0641C40.5356 23.7785 40.2868 23.506 40.5054 23.2146C40.4446 23.2108 40.3839 23.207 40.3231 23.2032C40.1045 23.2158 39.9719 23.5952 39.778 23.7008C39.5407 23.9431 39.2976 23.5097 39.0598 23.9Z" fill="#C06F34"/>
<path id="Vector_24" d="M39.6556 27.6883C39.3322 28.1954 39.0634 28.244 38.8769 27.8097C38.839 27.7202 38.7988 27.6654 38.7399 27.701C38.347 27.9248 38.0578 27.6716 37.7564 27.4044C37.678 27.3342 37.5275 27.4425 37.4084 27.4655C37.8865 28.6019 38.6907 28.4908 39.4621 28.4169C39.7952 28.3854 39.7959 28.0238 39.6556 27.6883Z" fill="#F6D099"/>
<path id="Vector_25" d="M43.4657 24.8586C43.298 24.7523 43.1304 24.646 42.9628 24.5397C42.6664 25.3098 42.3129 25.95 41.7984 26.3057C41.6709 26.3936 41.4764 26.3684 41.4578 26.7375C42.1386 26.8584 42.7228 26.2936 43.2925 25.6102C43.3858 25.372 43.5723 25.1745 43.4657 24.8586Z" fill="#EEB26A"/>
<path id="Vector_26" d="M25.7728 23.2507C25.5116 23.1778 25.259 23.1054 24.9978 23.0325C24.7494 23.1041 24.5514 23.4839 24.3011 23.5162C24.1728 23.5474 24.0374 23.4127 23.9105 23.6313C24.0118 23.8946 24.1566 24.0867 24.3164 24.2491C24.407 24.3332 24.5101 24.357 24.6183 24.3681C24.9308 24.2482 25.228 23.953 25.5459 23.8857C25.6829 23.855 25.8084 23.7278 25.8721 23.4747C25.8802 23.3445 25.8309 23.2979 25.7728 23.2507Z" fill="#C5824D"/>
<path id="Vector_27" d="M18.4116 13.7866C18.3249 13.2889 18.1335 13.2857 17.8663 13.5871C17.7541 13.7108 17.654 13.9878 17.5097 13.7871C17.4614 13.7231 17.4058 13.5671 17.4234 13.4941C17.5015 13.2202 17.6686 13.3352 17.7909 13.26C17.8768 13.2087 17.9588 13.1528 18.1082 13.0619C17.9536 13.0262 17.8505 13.0023 17.7561 12.979C17.5405 13.0135 17.3287 13.1266 17.1187 13.2791C16.8497 13.5412 16.7502 13.8095 17.028 14.1056C17.0931 14.1794 17.1325 14.3169 17.1401 14.4742C17.2237 14.6711 17.3686 14.7237 17.4936 14.6051C17.7959 14.2972 18.1456 14.2101 18.4116 13.7866Z" fill="#EEB473"/>
<path id="Vector_28" d="M19.0702 23.0727C19.4217 23.1643 19.7751 22.5981 20.1494 22.8829C20.2824 22.987 20.2787 22.416 20.4162 22.2373C20.3373 22.1757 20.2583 22.1142 20.1794 22.0526C19.9884 22.0407 19.8485 22.3282 19.6614 22.395C19.5371 22.152 19.8105 21.9599 19.7546 21.7386C19.3222 21.4067 18.8569 21.2513 18.3357 21.5064C18.4095 21.7201 18.5494 21.7114 18.6786 21.7369C18.94 21.7358 19.0811 21.9885 19.158 22.3636C19.1301 22.6015 18.9505 22.8256 19.0702 23.0727Z" fill="#F6D1A0"/>
<path id="Vector_29" d="M33.4765 25.8917C33.3422 25.4607 33.1995 25.234 32.8491 25.6827C32.5229 26.0936 32.3156 25.5056 32.0313 25.4531C31.8072 25.413 32.0969 25.0999 32.0602 24.919C31.9154 24.8664 31.7719 24.8618 31.6556 25.1203C31.561 25.4499 31.3682 25.8169 31.6739 26.0146C32.0493 26.282 32.5129 26.1845 32.8815 26.4907C33.0093 26.4681 33.1346 26.5544 33.2548 26.3745C33.3196 26.2435 33.3884 26.1171 33.4532 25.9861C33.4554 25.9513 33.4662 25.9172 33.4765 25.8917Z" fill="#EFB776"/>
<path id="Vector_30" d="M38.5401 18.3956C38.2348 17.9104 37.7857 18.1264 37.4005 18.0152C37.2451 18.0622 37.0902 17.961 36.9313 18.1341C36.9422 18.2394 36.991 18.2947 37.0445 18.3459C37.3095 18.3581 37.1997 18.7913 37.2816 19.0142C37.5513 19.0223 37.7222 19.4948 38.0422 19.2533C38.2559 19.0401 38.4656 18.8222 38.5401 18.3956Z" fill="#EAAC6A"/>
<path id="Vector_31" d="M17.7478 22.132C17.182 21.9834 16.5761 22.1984 16.0062 22.0452C15.749 21.9769 15.5306 21.776 15.2838 21.6822C15.2177 22.044 15.3674 22.1579 15.5101 22.2452C15.6737 22.3469 15.7643 22.5704 15.8739 22.7689C16.0834 23.0434 16.3345 23.0677 16.5821 22.8C16.8764 22.4829 17.1636 22.418 17.4633 22.4323C17.5379 22.4239 17.6136 22.3981 17.6827 22.337C17.734 22.2836 17.7557 22.2152 17.7478 22.132Z" fill="#BA7240"/>
<path id="Vector_32" d="M42.6073 24.5089C42.3639 24.0101 41.9793 23.8903 41.6256 23.694C41.6071 23.7103 41.5846 23.7219 41.5708 23.7341C41.4585 23.8578 41.3544 23.9908 41.3612 24.2308C41.3933 24.5552 41.4815 24.8875 41.6827 24.8739C42.0107 24.8551 41.9307 25.2291 41.9378 25.5346C42.2696 25.5944 42.4689 25.2627 42.6166 24.7796C42.6445 24.6811 42.6459 24.5897 42.6073 24.5089Z" fill="#E7974A"/>
<path id="Vector_33" d="M37.1935 26.999C37.3513 26.8433 37.5292 26.7847 37.6782 26.8419C38.0954 26.9986 38.5856 26.4018 38.985 26.8449C39.0705 26.9417 39.1285 26.7101 39.1678 26.5687C39.1395 26.323 39.0692 26.1226 38.9564 25.9761C38.6957 25.8945 38.4342 25.8957 38.1519 26.0218C38.07 26.0777 38.0027 26.1781 37.9213 26.2253C37.7754 26.3295 37.6263 26.3463 37.4817 26.3591C37.3206 26.4275 37.1362 26.4509 37.1327 26.8558C37.1514 26.9049 37.1702 26.954 37.1935 26.999Z" fill="#E6A765"/>
<path id="Vector_34" d="M42.6073 24.5089C42.5967 24.6084 42.5861 24.7079 42.5756 24.8075C42.4783 25.5987 42.1018 25.4881 41.7935 25.6127C41.7243 25.6737 41.7178 25.7779 41.7119 25.8734C41.6116 26.3638 41.2549 26.1455 41.1207 26.551C40.994 26.5562 40.8633 26.5568 40.7366 26.5619C40.9442 26.7971 41.2224 26.6663 41.4622 26.7335C41.6174 26.6212 41.7717 26.4522 41.9271 26.4052C42.2477 26.2945 42.4141 25.8605 42.6156 25.494C42.6351 25.4604 42.6497 25.3654 42.6497 25.3654C43.2375 25.511 42.8167 24.7833 42.962 24.5484C42.8411 24.5321 42.7242 24.5205 42.6073 24.5089Z" fill="#ECA95E"/>
<path id="Vector_35" d="M14.004 16.2828C14.2324 16.5323 14.5134 16.4976 14.7933 16.4802C15.0304 16.4514 15.2523 16.5262 15.4956 16.4673C15.6551 16.4249 15.8094 16.3953 15.891 16.1347C15.9999 15.7842 15.783 15.7707 15.6915 15.6299C15.4351 15.3395 15.156 15.1347 14.7999 15.326C14.7503 15.6323 14.7503 15.6323 14.9278 15.8612C14.5649 16.2307 14.3766 15.7571 14.1202 15.6061C14.0172 15.5822 13.9084 15.5798 13.852 15.7854C13.7734 16.0681 13.9258 16.1385 14.004 16.2828Z" fill="#BD8258"/>
<path id="Vector_36" d="M37.3858 20.489C37.6733 20.4894 37.9654 20.4859 38.2488 20.2029C38.3001 20.1495 38.3787 20.0062 38.366 20.0011C38.1289 19.8905 38.1768 19.4709 38.0756 19.2075C37.8646 19.2379 37.6674 19.1167 37.4463 19.238L37.4574 19.2692C37.3821 19.3603 37.3224 19.4786 37.279 19.6153C37.1478 19.9034 36.9992 20.1904 37.2271 20.4486C37.2833 20.4564 37.3302 20.4724 37.3858 20.489Z" fill="#EDB26F"/>
<path id="Vector_37" d="M23.9148 23.6359C24.0477 23.6006 24.1584 23.7818 24.307 23.6342C24.46 23.2778 24.2215 22.9797 24.3443 22.617C24.3654 22.5574 24.2713 22.46 24.217 22.4915C23.7826 22.752 23.7898 22.2862 23.7935 21.8072C23.672 21.6602 23.5515 21.4959 23.3871 21.4769C23.399 22.3359 23.4702 23.1507 23.9148 23.6359Z" fill="#B5794F"/>
<path id="Vector_38" d="M40.5054 23.2146C40.4965 23.4275 40.3221 23.4995 40.3688 23.8683C40.444 24.4089 39.8951 24.9672 39.4788 24.8672C39.393 24.8444 39.3068 24.8303 39.2251 24.8122C39.2539 24.9098 39.2827 25.0075 39.3115 25.1051C39.7135 25.226 40.0891 25.0011 40.4435 24.557C40.7687 24.4422 40.838 23.8889 41.0485 23.5883C41.1016 23.2953 40.9047 23.3789 40.8623 23.2194C40.7449 23.2165 40.6274 23.2135 40.5054 23.2146Z" fill="#D27C38"/>
<path id="Vector_39" d="M30.8737 16.3451C30.9152 16.0296 30.8503 15.8818 30.6583 15.8873C30.479 15.8979 30.3019 15.8738 30.1242 15.8584C29.8533 16.0811 29.5186 16.1387 29.3893 16.7449C29.8851 16.619 30.3774 16.4797 30.8737 16.3451Z" fill="#B26A35"/>
<path id="Vector_40" d="M19.4527 14.139C18.7421 14.4956 18.0663 14.9937 17.5332 15.9974C18.2473 15.6541 18.912 15.1248 19.4527 14.139Z" fill="#F7D9B1"/>
<path id="Vector_41" d="M39.8082 23.7724C40.0806 23.8765 40.1437 23.3533 40.3316 23.2038C39.9334 22.8827 39.155 23.0695 38.9296 23.539C38.8854 23.6191 38.8857 23.6844 38.93 23.7438C38.9584 23.7761 38.9823 23.8124 39.0108 23.8447C39.2815 23.696 39.5281 24.0033 39.8082 23.7724Z" fill="#B56834"/>
<path id="Vector_42" d="M32.4169 24.1614C32.495 24.1662 32.5737 24.1624 32.6298 24.0309C32.6672 23.8502 32.5929 23.7846 32.5277 23.7108C32.4743 23.6596 32.4244 23.6216 32.3658 23.5831C32.1797 23.4931 32.0196 23.2653 31.7864 23.3727C31.377 23.1599 30.9729 22.9343 30.6177 22.5505C30.5838 22.4657 30.5309 22.4057 30.4775 22.3545C30.4194 22.3073 30.3706 22.252 30.2933 22.3038C30.2388 22.2699 30.1796 22.2401 30.1251 22.2062L30.1302 22.1934C30.0867 22.8224 30.5537 22.5988 30.6319 23.022C30.9184 23.4581 31.309 23.6218 31.6682 23.8707C31.9021 24.0334 32.1654 24.0716 32.4169 24.1614Z" fill="#753E33"/>
<path id="Vector_43" d="M32.9278 24.3501C33.0999 24.8052 32.6618 24.7735 32.6638 25.0917C32.9841 24.9156 33.2764 24.5591 33.6458 24.5037C33.3493 24.4373 33.4656 24.0394 33.4436 23.7636C33.5461 23.5172 33.6133 23.2775 33.5197 23.032C33.4288 22.8826 33.3477 22.7163 33.2058 22.6857C33.0924 22.8268 33.0719 23.0172 33.064 23.2127C33.1403 23.5965 32.9429 23.9676 32.9278 24.3501Z" fill="#E2A15F"/>
<path id="Vector_44" d="M28.4375 23.5561C28.2418 23.9012 28.0245 24.1011 27.7682 23.9501C27.5865 23.9301 27.5995 24.14 27.5922 24.3269C27.8532 24.6133 28.1432 24.7838 28.4896 24.7488C28.5202 24.7463 28.5463 24.7479 28.581 24.7501C28.8281 24.6305 28.9137 24.3744 28.845 24.0085C28.7067 23.8517 28.5678 23.7037 28.4375 23.5561Z" fill="#F0B878"/>
<path id="Vector_45" d="M34.0097 16.3575C34.2231 16.4972 34.328 16.0027 34.5548 15.9994C34.7815 15.9961 34.7406 16.1634 34.7265 16.3891C34.7925 16.5196 34.8752 16.5204 34.9701 16.3956C34.9861 16.3487 35.0062 16.3063 35.0222 16.2594C34.9703 15.9033 35.1503 15.3917 34.8671 15.1823C34.8063 15.1786 34.7456 15.1748 34.6889 15.1756C34.4595 15.78 34.1898 15.3536 33.9403 15.4426C33.8357 15.5842 33.6455 15.4896 33.6032 15.7484C33.5751 15.9209 33.7223 15.8647 33.8034 15.8916C33.8488 16.073 33.9177 16.2254 34.0097 16.3575Z" fill="#E8A15A"/>
<path id="Vector_46" d="M23.8955 14.5074C23.7398 14.4889 23.5836 14.4792 23.4279 14.4608C22.9012 14.6632 22.4179 15.1472 21.9208 15.504C21.7293 15.6402 21.7812 15.8569 21.7473 16.0508C21.8108 16.0112 21.8742 15.9716 21.9377 15.932C22.3678 15.4621 22.8262 15.3774 23.2862 15.2667C23.435 14.9056 23.6438 14.7705 23.8749 14.6978C23.9094 14.6346 23.9177 14.5697 23.8955 14.5074Z" fill="#C88D56"/>
<path id="Vector_47" d="M31.7346 23.7137C31.3537 23.5331 31.035 23.1255 30.6313 23.0306C30.6311 23.2441 30.6222 23.457 30.6941 23.6314C30.9301 23.8988 31.1667 24.1575 31.4027 24.4249C31.4808 24.1509 31.7333 24.0839 31.7346 23.7137Z" fill="#C9814B"/>
<path id="Vector_48" d="M18.786 21.5518C18.6344 21.538 18.4874 21.5202 18.3358 21.5063C17.6707 21.552 17.0083 21.5543 16.3628 21.427C16.5842 21.9287 16.9877 21.6053 17.2891 21.733C17.6496 21.8905 18.1134 21.5796 18.3888 22.1239C18.6389 22.1657 18.7799 22.0002 18.786 21.5518Z" fill="#E8B884"/>
<path id="Vector_49" d="M17.4448 16.018C17.4762 15.5146 17.2513 15.5572 17.0476 15.5402C17.0283 15.4997 17.0075 15.4854 16.9849 15.497C16.9584 15.5041 16.9445 15.5163 16.944 15.525C16.8019 15.9867 16.5687 16.0941 16.3097 16.1259C16.1936 16.1709 16.0791 16.19 15.9641 16.2176C15.5988 16.5565 15.2275 16.2937 14.8559 16.5233C15.4589 16.844 16.1033 16.5705 16.7429 16.3751C16.978 16.307 17.2064 16.1382 17.4448 16.018Z" fill="#E6C19A"/>
<path id="Vector_50" d="M17.1796 14.3328C17.1849 13.9672 16.7653 13.7799 17.1194 13.2704C16.5428 13.4349 15.9627 13.5861 15.4083 14.0918C15.4954 14.1625 15.5706 14.2849 15.6926 14.1443C16.2607 13.487 16.6688 13.9307 17.0887 14.3228C17.1034 14.3673 17.1197 14.3857 17.1468 14.37C17.1687 14.367 17.1785 14.3502 17.1796 14.3328Z" fill="#F1BB7D"/>
<path id="Vector_51" d="M31.5364 17.5976C31.577 17.3648 31.446 17.3 31.4083 17.1365C31.3727 16.9382 31.2916 16.772 31.2975 16.5371C31.1768 16.5862 31.0474 16.6347 30.9267 16.6839C30.8704 17.3077 30.651 17.5424 30.3071 17.4687C30.239 17.5124 30.1908 17.5878 30.1623 17.6949C30.426 17.9379 30.7496 17.8491 31.0477 17.8895C31.2193 17.861 31.403 17.9204 31.5364 17.5976Z" fill="#D18D52"/>
<path id="Vector_52" d="M23.4078 15.6925C22.9342 15.8808 22.4582 16.0385 21.9904 16.3448C22.2283 16.3727 22.4575 16.4001 22.6954 16.428C22.891 16.5752 23.1191 16.4805 23.3344 16.5201C23.4402 16.5005 23.5202 16.4053 23.5698 16.2385C23.6183 15.9496 23.5361 15.8007 23.4078 15.6925Z" fill="#AF7144"/>
<path id="Vector_53" d="M23.4137 16.4335C23.1742 16.4316 22.9301 16.4339 22.6906 16.432C23.42 16.6822 24.1697 16.6767 24.9402 16.5461C24.902 16.5306 24.8637 16.5151 24.8301 16.4956C24.7446 16.2594 24.7679 15.8862 24.5444 15.8374C24.1693 16.0536 23.7833 16.1646 23.4137 16.4335Z" fill="#DD9D57"/>
<path id="Vector_54" d="M24.678 24.2499C24.556 24.251 24.4385 24.248 24.3165 24.2491C24.4937 24.5521 24.7223 24.7275 24.9567 24.8816C25.0788 24.8804 25.2003 24.888 25.3224 24.8869C25.423 24.7407 25.5629 24.732 25.6524 24.5546C25.6159 24.0208 25.4383 23.8659 25.1098 24.0328C24.9655 24.111 24.8264 24.1764 24.678 24.2499Z" fill="#EEB97B"/>
<path id="Vector_55" d="M19.3383 13.5263C19.6031 13.6125 19.7622 13.226 19.9387 12.98C20.0008 12.8923 20.0578 12.8175 20.1329 12.8004C20.1426 12.6441 20.1442 12.4787 20.0303 12.489C19.6845 12.5154 19.3511 12.3421 18.9918 12.5855C19.0933 13.193 19.4697 12.746 19.7578 12.8772C19.5834 13.0885 19.4701 13.2296 19.3521 13.3747C19.3055 13.4241 19.3022 13.4762 19.3383 13.5263Z" fill="#F3C58C"/>
<path id="Vector_56" d="M37.1282 26.8599C37.2247 26.5697 37.3673 26.5175 37.5312 26.5452C37.6966 26.4074 37.8677 26.3875 38.0372 26.2543C38.0586 26.1206 38.0201 26.0398 37.9678 25.9712C37.8695 25.8692 37.7651 25.7973 37.6452 25.7637C37.3664 25.7638 37.0989 25.5816 36.8133 25.8992C36.8647 26.264 36.8913 26.6752 37.1282 26.8599Z" fill="#BE7B48"/>
<path id="Vector_57" d="M34.6307 24.43C34.401 24.8296 34.0852 24.5834 33.8225 24.9548C33.6793 25.155 33.7406 25.2895 33.7048 25.4441C33.8625 25.6413 34.0515 25.6138 34.2511 25.4869C34.4192 25.1662 34.8817 25.0861 34.6307 24.43Z" fill="#EAA55D"/>
<path id="Vector_58" d="M34.8626 15.1864C35.0639 15.4517 34.7253 16.0623 35.0177 16.2635C35.0836 16.1151 35.1663 15.9765 35.2194 15.823C35.5095 14.9436 35.4555 14.7616 34.9127 14.7321C34.7652 14.7229 34.6165 14.7311 34.4638 14.7346C34.6315 14.9803 34.8563 14.9377 35.0842 14.917C35.0416 15.1104 34.9369 15.1126 34.8626 15.1864Z" fill="#EDAE6A"/>
<path id="Vector_59" d="M31.6682 25.1995C31.7962 25.1029 31.9282 25.011 32.0562 24.9144C31.7545 24.3031 31.2501 24.7073 30.8549 24.5476C30.9078 24.8864 31.0321 25.1294 31.1748 25.3561C31.3446 25.4277 31.5055 25.4334 31.6682 25.1995Z" fill="#EBAD69"/>
<path id="Vector_60" d="M17.2402 24.1959C17.3357 24.2018 17.4336 24.2384 17.5226 24.0697C17.6232 23.9235 17.743 23.8177 17.7877 23.5896C17.7921 23.5201 17.7785 23.4583 17.7552 23.4133C17.5067 23.2061 17.2739 22.8866 16.9414 23.3277C16.801 23.4845 16.5829 23.4884 16.5545 23.8743C16.5968 24.0338 16.7021 24.0229 16.7918 24.0503C16.9231 24.1805 17.1339 23.9453 17.2402 24.1959Z" fill="#F2C48C"/>
<path id="Vector_61" d="M17.5488 22.2503C17.1951 22.1934 16.859 22.2029 16.5209 22.6655C16.3208 22.9405 16.0891 22.7431 15.8699 22.7643C15.8819 22.9916 15.9785 23.1196 16.0756 23.2389C16.2921 23.54 16.4773 22.8762 16.6902 23.0246C16.8654 22.8699 17.046 22.9073 17.2245 22.84C17.4117 22.7733 17.5964 22.6758 17.5488 22.2503Z" fill="#CD894F"/>
<path id="Vector_62" d="M37.9505 26.1095C37.9687 26.1672 37.9869 26.225 38.0092 26.2874C37.9671 26.3327 37.9644 26.3761 38.0016 26.4089C38.0835 26.353 38.1125 26.2372 38.1287 26.1162C38.3536 25.9342 38.6348 25.8253 38.5699 25.2593C38.4302 25.0545 38.3064 24.8028 38.0911 24.7633C37.9826 25.105 37.8156 25.4083 37.8168 25.8092C37.8295 25.9538 37.89 26.0316 37.9505 26.1095Z" fill="#CC854A"/>
<path id="Vector_63" d="M28.4356 19.6045C28.4514 19.9104 27.9934 19.4288 28.1875 20.0203C28.594 19.7189 28.97 19.9776 29.3562 19.9319C29.6106 19.9042 29.8572 19.9327 30.1095 19.9397C30.1433 19.8851 30.1466 19.8331 30.1284 19.7753C30.0546 19.701 29.941 19.7767 29.8688 19.6763C29.3914 19.6466 28.9135 19.6255 28.4356 19.6045Z" fill="#7A4C48"/>
<path id="Vector_64" d="M37.1874 19.2697C36.7849 19.2969 36.3818 19.3328 35.9793 19.36C36.0656 19.6529 36.2162 19.8235 36.3857 19.9691C36.4538 20.0649 36.5474 20.0315 36.6296 20.041C36.8884 19.9438 37.0898 19.7168 37.1874 19.2697Z" fill="#B5794F"/>
<path id="Vector_65" d="M32.8776 26.4861C32.7755 25.8872 32.4484 26.1021 32.1758 26.072C32.0114 26.0531 31.8467 25.9687 31.6732 25.9579C31.6539 25.9175 31.633 25.9031 31.6146 25.9194C31.592 25.9311 31.5823 25.9479 31.5812 25.9653C31.9567 26.3721 32.3424 26.7534 32.8776 26.4861Z" fill="#F4C78E"/>
<path id="Vector_66" d="M36.4871 23.792C36.5775 24.0895 36.6766 24.3876 36.7669 24.6851C36.7581 25.0375 36.882 25.2151 37.0538 25.326C37.1913 25.4261 37.2939 25.598 37.4113 25.7404C37.4943 25.8066 37.5763 25.8901 37.6837 25.8445C37.717 25.7987 37.7382 25.739 37.7471 25.6655C37.734 25.4555 37.6502 25.3327 37.5664 25.2098C37.4815 25.1043 37.4115 24.9693 37.3368 24.8383C37.3135 24.7933 37.2809 24.7564 37.2484 24.7195C37.0702 24.5733 36.9901 24.2503 36.8165 24.1001C36.7435 23.943 36.6664 23.7814 36.5934 23.6243C36.521 23.598 36.4668 23.6295 36.4871 23.792Z" fill="#6F3930"/>
<path id="Vector_67" d="M40.1551 26.2469C40.3267 25.5213 40.2507 25.3423 39.8007 25.3621C39.6567 25.3662 39.517 25.3009 39.3751 25.2703C39.3724 25.3137 39.3743 25.353 39.3762 25.3923C39.4695 25.5724 39.5588 25.7479 39.6861 25.8734C39.8393 26.0006 39.9972 26.1237 40.1551 26.2469Z" fill="#EAA45C"/>
<path id="Vector_68" d="M33.2177 17.8113C33.2307 17.6029 33.2947 17.4152 33.3709 17.2414C33.3592 17.2188 33.3481 17.1877 33.3364 17.1651C33.2575 17.1036 33.1829 17.112 33.1018 17.2246L33.0928 17.2981L33.0839 17.3716C32.9367 17.5672 32.7468 17.3985 32.605 17.6467C32.3693 17.7235 32.4427 17.4536 32.4787 17.225C32.2542 17.333 32.1563 17.5752 32.1225 17.9086C32.4889 17.9706 32.847 17.9581 33.2177 17.8113Z" fill="#E6A25F"/>
<path id="Vector_69" d="M37.1424 25.166C36.9525 25.1367 36.8526 24.9214 36.7671 24.6852C36.6921 25.1205 36.7198 25.5143 36.8053 25.89C37.0964 25.9038 37.3961 25.9181 37.6871 25.9319C37.7205 25.886 37.7232 25.8426 37.7045 25.7935C37.6209 25.7361 37.5374 25.6786 37.4538 25.6211C37.434 25.5893 37.4142 25.5576 37.3841 25.5514C37.156 25.5067 37.1047 25.4207 37.1424 25.166Z" fill="#A2582E"/>
<path id="Vector_70" d="M27.0472 15.1046C26.6816 14.8204 26.4097 15.7576 25.9973 15.3833C26.0611 15.8273 26.4216 15.706 26.2321 16.1604C26.5784 15.9859 26.8184 15.5609 27.0472 15.1046Z" fill="#EBA44E"/>
<path id="Vector_71" d="M14.8559 16.5233C15.2519 16.4608 15.6411 16.5766 16.0493 16.3885C16.2003 16.2716 16.2863 16.0809 16.2309 15.8509C16.165 15.581 15.9903 15.5876 15.8175 15.6334C15.7638 15.6562 15.7126 15.7097 15.6735 15.777C15.7294 15.8589 15.7847 15.9494 15.8406 16.0313C15.7601 16.1352 15.6999 16.2622 15.5727 16.2761C15.3188 16.2951 15.0538 16.2829 14.7937 16.4715C14.8089 16.5073 14.8298 16.5217 14.8559 16.5233Z" fill="#C48E65"/>
<path id="Vector_72" d="M36.4871 23.792C36.5257 23.7334 36.5642 23.6748 36.5981 23.6203C36.5508 23.1207 36.2179 22.7993 36.4019 22.1529C36.4082 22.1228 36.2801 21.9406 36.1651 21.9683C36.0838 22.0155 36.007 22.0586 36.0483 22.2355C36.1674 22.7701 36.2343 23.3755 36.4871 23.792Z" fill="#774845"/>
<path id="Vector_73" d="M36.6472 18.2864C36.3931 18.3795 36.1566 18.539 35.9578 18.8621C36.1941 19.0554 36.4713 18.942 36.7347 18.9802C36.8974 18.8858 37.0401 18.6943 37.0134 18.4225C36.9854 18.1027 36.7934 18.2476 36.6472 18.2864Z" fill="#AF7249"/>
<path id="Vector_74" d="M33.5244 23.028C33.5307 23.2767 33.3721 23.5151 33.4483 23.7595C33.7863 23.7893 34.0351 24.2012 34.3934 24.1146C34.102 23.7567 33.8112 23.39 33.5244 23.028Z" fill="#F2C187"/>
<path id="Vector_75" d="M37.4899 25.3184C37.5656 25.432 37.6419 25.537 37.7175 25.6506C37.7607 25.7273 37.7689 25.876 37.8733 25.8084C37.8444 25.432 38.2426 25.1954 38.0857 24.7761C38.0022 24.7186 37.9181 24.6698 37.8345 24.6123C37.7027 24.6302 37.6276 24.7867 37.552 24.9519C37.5151 24.9845 37.4904 25.0309 37.4698 25.0819C37.4516 25.1635 37.4549 25.2508 37.4899 25.3184Z" fill="#A35A2E"/>
<path id="Vector_76" d="M14.0038 16.2829C14.0719 16.0998 13.6755 15.6786 14.1575 15.7043C14.1683 15.6701 14.1792 15.6359 14.1946 15.5977C14.1816 15.5272 14.1588 15.4735 14.1216 15.4406C13.9779 15.3707 13.8195 15.3957 13.6632 15.3859C13.4894 15.4492 13.3036 15.4245 13.1748 15.7432C13.4737 15.8403 13.658 16.3092 14.0038 16.2829Z" fill="#C48A5D"/>
<path id="Vector_77" d="M33.4098 20.8816C33.7561 21.6177 34.3373 21.4491 34.8042 21.7178C34.8264 21.6408 34.8445 21.5592 34.8668 21.4821C34.3823 21.2864 33.8892 21.0901 33.4047 20.8944L33.4098 20.8816Z" fill="#7D514E"/>
<path id="Vector_78" d="M36.7785 18.9088C36.5048 18.8961 36.227 18.8788 35.9534 18.8661C35.8853 18.9098 35.8172 18.9535 35.7532 19.0018C36.3057 19.1538 36.923 18.8961 37.4504 19.2426C37.6894 19.2531 37.9324 19.2683 38.1667 19.2829C38.173 19.2528 38.1838 19.2186 38.1901 19.1885C38.1765 19.1266 38.1428 19.1071 38.107 19.1223C37.8146 19.0605 37.5268 18.9947 37.2344 18.9329C37.2076 18.8746 37.1709 18.8331 37.1292 18.8043C37.0068 18.7401 36.8937 18.8071 36.7785 18.9088Z" fill="#87503D"/>
<path id="Vector_79" d="M38.5653 25.2634C38.4935 25.6467 38.2763 25.8466 38.1242 26.1203C38.3984 26.1243 38.6688 26.1891 38.952 25.9802C38.8524 25.6908 38.7425 25.4269 38.5653 25.2634Z" fill="#E4A25F"/>
<path id="Vector_80" d="M19.7587 21.7432C19.5098 21.9629 19.4342 22.2675 19.517 22.6866C19.7594 22.571 19.9848 22.3803 20.1789 22.0613L20.1743 22.0653C20.0577 21.9796 19.9353 21.9154 19.8439 21.7746C19.819 21.7556 19.7888 21.7494 19.7587 21.7432Z" fill="#F4C892"/>
<path id="Vector_81" d="M30.1657 17.7082C30.2083 17.6542 30.2508 17.6002 30.2888 17.5503C30.3642 17.4592 30.5757 17.4201 30.4895 17.2666C30.3519 17.0271 30.6044 16.9601 30.5482 16.8128C30.3231 16.79 30.105 16.9333 29.887 17.0765C29.7609 17.4913 29.9533 17.5512 30.0892 17.6773C30.1136 17.705 30.1391 17.7153 30.1657 17.7082Z" fill="#AC6637"/>
<path id="Vector_82" d="M27.3657 13.1421C27.6315 13.2109 27.6395 13.573 27.6474 13.9351C27.8291 13.6764 27.9782 13.3807 28.1048 12.9572C27.8376 12.9798 27.6073 12.9698 27.3657 13.1421Z" fill="#F2B970"/>
<path id="Vector_83" d="M36.6599 19.9732C36.5685 19.9718 36.4771 19.9705 36.3856 19.9692C36.6396 20.229 36.91 20.4332 37.2317 20.4445C37.1251 20.1285 37.2305 19.9042 37.4044 19.7015C37.1344 19.3492 36.9075 19.9843 36.6599 19.9732Z" fill="#DCAC7D"/>
<path id="Vector_84" d="M16.6592 22.9616C16.4392 22.7867 16.2882 23.3219 16.0796 23.2435C16.0913 23.4055 16.1512 23.492 16.2394 23.5454C16.4073 23.7171 16.5845 23.7412 16.7794 23.4788C16.8667 23.1967 16.8664 22.9919 16.6592 22.9616Z" fill="#DA9C61"/>
<path id="Vector_85" d="M34.2511 25.4868C34.0704 25.4494 33.9022 25.3518 33.7048 25.4441C33.6302 25.5919 33.551 25.7438 33.4724 25.8871C33.4429 26.151 33.5313 26.1303 33.6449 26.0547C33.873 25.9599 34.0688 25.7543 34.2511 25.4868Z" fill="#EFB776"/>
<path id="Vector_86" d="M31.5362 17.5975C31.3849 17.7885 31.1939 17.6372 31.0515 17.8941C31.3016 18.0752 31.5924 17.8842 31.8604 17.9183C31.8991 17.7857 32.0529 17.7648 32.0296 17.5803C32.0081 17.4352 31.9175 17.4906 31.8465 17.5123C31.7437 17.5538 31.6379 17.5734 31.5362 17.5975Z" fill="#E6A25F"/>
<path id="Vector_87" d="M31.573 25.956C31.6036 25.9536 31.6383 25.9558 31.669 25.9533C31.6741 25.8011 31.3833 25.7133 31.6895 25.4841C31.8723 25.3473 31.7787 25.2413 31.6634 25.2036C31.4996 25.176 31.3366 25.205 31.1788 25.3607C31.2805 25.6154 31.3777 25.8742 31.573 25.956Z" fill="#F1BE7F"/>
<path id="Vector_88" d="M39.7128 18.3118C39.8705 18.7878 40.1326 18.9174 40.4716 18.7904C40.3082 18.3359 40.0023 18.3516 39.7128 18.3118Z" fill="#FBE6C8"/>
<path id="Vector_89" d="M32.7018 22.3842C32.6505 22.577 32.5993 22.7699 32.5481 22.9628C32.5592 22.994 32.5663 23.0205 32.5728 23.0558C32.6631 23.2139 32.7814 23.2736 32.9257 23.1954C33.4458 22.5395 32.896 22.6228 32.7926 22.3942C32.7625 22.388 32.7319 22.3904 32.7018 22.3842Z" fill="#C67B42"/>
<path id="Vector_90" d="M13.6257 15.5012C13.8075 15.5212 13.9851 15.5367 14.1669 15.5567C14.2187 15.634 14.2577 15.5667 14.2973 15.4908C14.3098 15.4306 14.3089 15.3739 14.2948 15.3207C14.0282 15.1952 13.7561 15.1564 13.4602 15.3602C13.492 15.4798 13.5872 15.4204 13.6257 15.5012Z" fill="#8D5947"/>
<path id="Vector_91" d="M36.8211 24.096C36.9174 24.4375 36.9897 24.8167 37.2699 24.8646C37.4534 24.5057 37.2275 24.4263 37.1699 24.231C37.0807 24.0555 36.9421 24.1123 36.8211 24.096Z" fill="#9F562E"/>
<path id="Vector_92" d="M36.7784 18.9088C36.8958 18.9118 37.0128 18.9234 37.1302 18.9264C37.288 18.6312 37.1708 18.4148 37.1246 18.1767C37.0603 18.1596 36.9955 18.1512 36.9312 18.1341C36.8341 18.1542 36.7305 18.1391 36.6473 18.2863C36.9983 18.2472 36.9872 18.4949 36.7784 18.9088Z" fill="#C68A59"/>
<path id="Vector_93" d="M32.7928 22.3942C32.7351 22.6912 33.3242 22.6059 32.8903 23.1366C32.8546 23.4306 32.9655 23.3983 33.0851 23.3665C33.1041 23.3416 33.1231 23.3166 33.1461 23.2963C33.1718 23.0931 33.1935 22.8853 33.2146 22.6862C33.1055 22.479 32.9737 22.3575 32.7928 22.3942Z" fill="#CE8A50"/>
<path id="Vector_94" d="M28.8412 24.0039C28.7851 24.2749 28.7452 24.5643 28.5771 24.7455C28.6379 24.7493 28.7027 24.7577 28.7635 24.7615C29.01 24.5111 29.2698 24.2571 28.8412 24.0039Z" fill="#F3C790"/>
<path id="Vector_95" d="M40.8669 23.2154C40.7975 23.4899 40.9873 23.3797 41.018 23.5167C41.1293 23.968 41.3541 23.9254 41.6066 23.7189L41.6302 23.6899C41.4012 23.4491 41.15 23.2853 40.8669 23.2154Z" fill="#E7974A"/>
<path id="Vector_96" d="M31.9358 20.4848C31.9732 20.4436 32.0112 20.3937 32.0486 20.3524C31.8709 20.0582 31.6469 20.0181 31.3135 20.1236C31.5127 20.4236 31.7627 20.3259 31.9358 20.4848Z" fill="#784B47"/>
<path id="Vector_97" d="M30.4479 22.479C30.503 22.5042 30.5581 22.5294 30.6172 22.5592C30.9253 22.2299 31.2337 22.663 31.5418 22.3336C31.1854 22.3201 30.8249 22.302 30.4685 22.2885C30.4126 22.3461 30.4042 22.4109 30.4479 22.479Z" fill="#CD9161"/>
<path id="Vector_98" d="M35.6524 21.8797C35.4628 21.637 35.2102 21.704 34.9797 21.6286C35.0964 21.9932 35.347 21.8868 35.5314 22.0028C35.5765 21.9795 35.6291 21.9741 35.6524 21.8797Z" fill="#7D514E"/>
<path id="Vector_99" d="M30.0939 17.6732C30.0046 17.4977 29.9113 17.3177 29.8917 17.0725C29.7624 17.121 29.6417 17.1701 29.5123 17.2187C29.661 17.4894 29.8514 17.6494 30.0939 17.6732Z" fill="#C3824F"/>
<path id="Vector_100" d="M15.3756 14.6866C15.1098 14.6178 14.8543 14.9417 14.5907 14.9775C14.5573 15.0234 14.5194 15.0733 14.486 15.1192C14.5207 15.2607 14.5956 15.3177 14.6859 15.3364C14.9382 15.204 15.2322 15.2397 15.3756 14.6866Z" fill="#8B5540"/>
<path id="Vector_101" d="M39.8083 23.7724C39.5406 23.8037 39.2864 23.6179 39.0109 23.8447C39.0261 23.8805 39.0424 23.899 39.0684 23.9006C39.2425 23.9027 39.4259 23.8967 39.5843 24.0112C39.6923 24.0963 39.7764 24.0057 39.8083 23.7724Z" fill="#7B402E"/>
<path id="Vector_102" d="M37.17 24.231C37.1819 24.4583 37.3168 24.6018 37.2699 24.8646C37.3483 24.9348 37.3942 25.1076 37.5257 25.0243C37.609 24.877 37.6268 24.73 37.5753 24.5787C37.4594 24.4103 37.3333 24.2673 37.17 24.231Z" fill="#8A3D19"/>
<path id="Vector_103" d="M13.6257 15.5012C13.5677 15.454 13.5183 15.4073 13.4649 15.3561C13.2232 15.3889 13.0146 15.5894 12.7974 15.7894C12.8064 15.8553 12.8297 15.9003 12.872 15.9204C12.9718 15.8569 13.0711 15.8021 13.1709 15.7386C13.3114 15.5818 13.4714 15.5308 13.6257 15.5012Z" fill="#7A483E"/>
<path id="Vector_104" d="M30.1256 19.8187C30.1188 19.8575 30.112 19.8963 30.1093 19.9397C30.3385 19.967 30.5677 19.9944 30.7928 20.0171C30.8965 20.0323 31.0107 20.2268 31.0971 19.888C30.9895 19.8682 30.8777 19.8438 30.77 19.824C30.5574 19.741 30.3517 19.6847 30.1256 19.8187Z" fill="#673430"/>
<path id="Vector_105" d="M29.6214 21.896C29.7555 22.1221 29.8461 22.485 30.1341 22.198L30.129 22.2108C29.9898 21.9973 29.8512 21.7752 29.6342 21.7617C29.5962 21.8116 29.5935 21.855 29.6214 21.896Z" fill="#815653"/>
<path id="Vector_106" d="M35.6523 21.8796C35.6149 21.9209 35.5729 21.9662 35.5314 22.0028C35.6966 22.0785 35.8704 22.1546 36.0356 22.2303C36.0717 22.141 36.1164 22.0523 36.1525 21.9631C35.9887 21.9355 35.8202 21.9119 35.6523 21.8796Z" fill="#794B48"/>
<path id="Vector_107" d="M16.7834 23.4181C16.5984 23.5896 16.4172 23.5608 16.2355 23.5408C16.3063 23.7326 16.4075 23.8565 16.5551 23.8657C16.6904 23.7216 16.8303 23.5735 16.9697 23.4341C16.9581 23.4116 16.9464 23.389 16.9347 23.3665C16.8843 23.3372 16.8322 23.334 16.7834 23.4181Z" fill="#E8B175"/>
<path id="Vector_108" d="M30.1258 19.8187C30.3392 19.8189 30.5527 19.8192 30.7656 19.8281C30.4916 19.6106 30.1778 19.6825 29.8689 19.6763C29.9245 19.8323 30.0314 19.7954 30.1258 19.8187Z" fill="#805551"/>
<path id="Vector_109" d="M34.9702 16.3956C34.8875 16.3948 34.8094 16.3899 34.7266 16.3891C34.7299 16.6159 34.4747 16.7263 34.5667 16.9978C34.7327 16.8513 34.8748 16.6684 34.9702 16.3956Z" fill="#EDAE6A"/>
<path id="Vector_110" d="M29.6216 21.8959C29.6243 21.8525 29.627 21.8092 29.6338 21.7704C29.5871 21.5409 29.455 21.4935 29.3327 21.4292C29.238 21.3405 29.2141 21.4436 29.2055 21.5825C29.327 21.7295 29.4377 21.9106 29.6216 21.8959Z" fill="#7F5451"/>
<path id="Vector_111" d="M30.4479 22.479C30.4563 22.4141 30.4647 22.3493 30.4731 22.2845C30.4964 22.0507 30.4866 21.7886 30.3152 21.8825C30.1801 21.9525 30.2979 22.1603 30.2968 22.3171C30.3462 22.3637 30.395 22.419 30.4479 22.479Z" fill="#E9C9A7"/>
<path id="Vector_112" d="M11.9016 16.6703C12.0372 16.5916 12.187 16.5661 12.3101 16.2688C12.1172 16.2176 11.971 16.3958 11.8235 16.526C11.798 16.6551 11.7967 16.7465 11.9016 16.6703Z" fill="#67332F"/>
<path id="Vector_113" d="M11.9016 16.6703C11.8742 16.6207 11.8509 16.5757 11.8235 16.526C11.6588 16.5811 11.523 16.7338 11.3936 16.9218C11.4205 16.9802 11.456 17.039 11.4829 17.0973C11.6223 16.9579 11.7622 16.8097 11.9016 16.6703Z" fill="#784B47"/>
<path id="Vector_114" d="M12.872 15.9204C12.8486 15.8754 12.8207 15.8344 12.7974 15.7894C12.6639 15.8333 12.5335 15.8993 12.4136 16.1445C12.5916 16.2253 12.7261 16.0246 12.872 15.9204Z" fill="#693532"/>
<path id="Vector_115" d="M37.5707 24.5828C37.5528 24.7298 37.5349 24.8768 37.5211 25.0284C37.8209 25.3216 37.6803 24.6419 37.8346 24.6123C37.7483 24.5982 37.6575 24.5882 37.5707 24.5828Z" fill="#9F562E"/>
<path id="Vector_116" d="M33.6445 26.0634C33.5715 26.0457 33.5031 26.024 33.4719 25.8958C33.2747 25.914 33.2647 26.1443 33.2461 26.374C33.3893 26.3132 33.5284 26.2478 33.6445 26.0634Z" fill="#F2BF81"/>
<path id="Vector_117" d="M36.8445 22.6728C36.7796 22.3856 36.6779 22.2703 36.4124 22.4063C36.6142 22.5234 36.7314 22.6004 36.8445 22.6728Z" fill="#977472"/>
<path id="Vector_118" d="M43.4656 24.8586C43.4065 25.1076 43.3515 25.3612 43.2924 25.6102C43.4112 25.3823 43.7595 25.2472 43.4656 24.8586Z" fill="#F5CE95"/>
<path id="Vector_119" d="M17.2401 24.1959C17.1717 23.756 16.9542 24.03 16.7923 24.0417C16.8713 24.2427 17.0145 24.1819 17.1395 24.2027C17.1702 24.2003 17.2054 24.1938 17.2401 24.1959Z" fill="#F6D1A1"/>
<path id="Vector_120" d="M38.4885 23.5595C38.3813 23.2522 38.1763 23.4659 38.0249 23.3781C38.1446 23.6252 38.3287 23.5364 38.4936 23.5467L38.4885 23.5595Z" fill="#825855"/>
<path id="Vector_121" d="M29.2055 21.5825C29.2481 21.5285 29.2901 21.4832 29.3327 21.4292C29.2372 21.2838 29.1509 21.1303 28.9868 21.1767C28.9581 21.4974 29.1016 21.5019 29.2055 21.5825Z" fill="#815653"/>
<path id="Vector_122" d="M31.0926 19.8921C30.9898 19.9336 30.8911 19.9797 30.7883 20.0212C30.8884 20.1625 31.0197 20.1533 31.1453 20.1655C31.2101 20.1738 31.2747 20.1169 31.2597 20.007C31.2459 19.8798 31.1677 19.875 31.0926 19.8921Z" fill="#805551"/>
<path id="Vector_123" d="M14.6515 15.2601C14.598 15.2089 14.5441 15.1663 14.4906 15.115C14.4073 15.1229 14.3469 15.1845 14.3035 15.3212L14.2943 15.3294C14.3611 15.6559 14.4909 15.4592 14.6108 15.3534C14.617 15.3233 14.632 15.2938 14.6515 15.2601Z" fill="#68352F"/>
<path id="Vector_124" d="M39.6821 25.8688C39.6175 25.647 39.5288 25.4628 39.3723 25.3877C39.4065 25.6774 39.486 25.8697 39.6821 25.8688Z" fill="#FAE4C7"/>
<path id="Vector_125" d="M37.4182 23.044C37.444 23.2591 37.5905 23.2857 37.6404 23.1842C37.715 23.0364 37.5728 23.0798 37.5275 23.0378C37.5031 23.0101 37.4651 22.9206 37.4182 23.044Z" fill="#7D514D"/>
<path id="Vector_126" d="M38.9259 23.7392C38.9256 23.6738 38.9259 23.5998 38.9256 23.5344C38.777 23.5426 38.637 23.5513 38.4884 23.5594L38.4981 23.5426C38.5741 23.861 38.7868 23.6652 38.9259 23.7392Z" fill="#7E5350"/>
<path id="Vector_127" d="M19.849 21.7619C19.8936 22.0261 20.0211 22.0776 20.1795 22.0526C20.0994 21.869 19.9874 21.7792 19.849 21.7619Z" fill="#F6D1A0"/>
<path id="Vector_128" d="M17.7651 23.4618C17.7619 23.5139 17.7545 23.5614 17.7467 23.6175C17.7641 23.758 17.8067 23.8434 17.9065 23.78C17.9701 23.248 18.1688 23.6961 18.2821 23.555C18.4206 23.2195 18.6479 23.0681 18.8285 22.8267C18.9142 22.71 19.1518 22.6725 18.9746 22.3696C18.9665 22.3604 18.9814 22.3308 19.0023 22.3452C19.1062 22.4257 19.206 22.5016 19.3302 22.3264C19.1653 22.0373 19.1237 21.5162 18.786 21.5518C18.6987 21.8339 18.5607 22.0214 18.3841 22.128C18.3041 22.3627 18.2493 22.124 18.1823 22.1503C18.1056 22.3329 18.193 22.6084 17.9272 22.679C17.5325 22.7895 17.5114 22.9886 17.7651 23.4618Z" fill="#F3C58C"/>
<path id="Vector_129" d="M23.7894 21.8026C23.7788 21.9022 23.7851 22.0115 23.7536 22.0966C23.5359 22.7235 23.6529 22.8746 24.0247 22.7104C24.1055 22.6719 24.2004 22.5471 24.2832 22.6873C24.1585 22.8712 23.9719 23.0687 24.2347 23.255C24.3183 23.3125 24.3208 23.4826 24.3024 23.6383C24.5988 23.7047 24.7905 23.355 24.9974 23.0411C24.6732 22.4415 24.1039 22.4191 23.7894 21.8026Z" fill="#A96A41"/>
<path id="Vector_130" d="M25.5585 22.915C25.8749 22.1025 25.8608 22.0494 25.3313 22.0164C25.049 22.0031 24.7661 21.9986 24.4837 21.9853C24.8226 22.3506 25.0991 22.8776 25.5585 22.915Z" fill="#B46D3D"/>
<path id="Vector_131" d="M17.7652 23.4619C17.6295 22.8435 17.6295 22.8435 18.4012 22.6955C18.4662 22.351 18.1169 22.5035 18.1911 22.1509C18.0457 22.107 17.8686 22.3617 17.7525 22.1279C17.7457 22.1667 17.7344 22.2095 17.7276 22.2483C17.6712 22.5934 17.5196 22.719 17.329 22.7724C17.1117 22.833 16.9767 23.0424 16.9615 23.4248L16.9656 23.4295C17.1284 23.4745 17.4022 22.8554 17.4739 23.5221C17.4758 23.5615 17.6635 23.486 17.7652 23.4619Z" fill="#E8B175"/>
<path id="Vector_132" d="M23.2754 15.2268C22.7983 15.123 22.3369 15.1857 21.9381 15.9233C22.5052 15.7016 23.0682 15.4753 23.6354 15.2536C23.6196 15.2265 23.6126 15.1999 23.5968 15.1728C23.494 15.0749 23.3866 15.1205 23.2754 15.2268Z" fill="#B67F59"/>
<path id="Vector_133" d="M30.5529 16.8087C30.3098 16.9329 30.5237 17.4168 30.2888 17.5503C30.4589 17.8267 30.7382 17.3997 30.9205 17.6899C30.819 17.3611 31.0425 16.9917 30.9261 16.6925C30.8018 16.7283 30.673 16.7682 30.5529 16.8087Z" fill="#C3824F"/>
<path id="Vector_134" d="M23.4076 15.6925C23.4459 15.8474 23.4929 16.0028 23.5311 16.1577C23.7289 16.4096 23.9678 16.1413 24.177 16.0716C24.4126 15.9948 24.2542 15.7409 24.2216 15.5646C24.1877 15.4797 24.144 15.4116 24.09 15.3691C24.0477 15.349 24.0078 15.3596 23.9663 15.3962C23.777 15.4977 23.5923 15.5951 23.4076 15.6925Z" fill="#AB6531"/>
<path id="Vector_135" d="M23.9664 15.3962C23.9965 15.4024 24.0266 15.4087 24.0567 15.4149C24.2089 15.5594 24.3619 15.3424 24.5208 15.3088C24.5612 15.2895 24.6016 15.2702 24.6426 15.2423C24.8316 15.0754 25.0611 15.0287 25.1676 14.6476C25.1765 14.5741 25.1578 14.525 25.116 14.4963C24.9788 14.4616 24.8361 14.5137 24.6924 14.5832C24.5741 14.6629 24.4635 14.7606 24.3458 14.8317C24.2091 14.9277 24.0651 14.9318 23.9308 15.0585C23.8969 15.113 23.8845 15.1733 23.8888 15.2432C23.9116 15.2969 23.939 15.3466 23.9664 15.3962Z" fill="#7E4633"/>
<path id="Vector_136" d="M31.2968 16.5457C31.1311 16.897 31.18 17.0917 31.4076 17.1451C31.538 17.0792 31.6685 17.0132 31.8174 16.931C31.6554 16.8033 31.4588 16.8128 31.3806 16.5291C31.3586 16.5321 31.328 16.5346 31.2968 16.5457Z" fill="#DE9E60"/>
<path id="Vector_137" d="M32.0701 16.0929C32.1211 15.974 32.1911 15.9697 32.2564 15.9694C32.2863 16.0497 32.3175 16.0386 32.35 15.936C32.3326 15.7955 32.3239 15.6556 32.3065 15.5151C32.0315 15.4544 31.9993 15.7617 31.97 16.091C32.0093 16.0891 32.0441 16.0912 32.0701 16.0929Z" fill="#E9A159"/>
<path id="Vector_138" d="M23.8886 15.2432C23.9 15.2004 23.9114 15.1575 23.9182 15.1187C23.99 15.0143 24.1164 14.9437 24.015 14.7544C23.8387 14.787 23.6046 14.6983 23.6323 15.2316L23.6312 15.249C23.718 15.2544 23.8013 15.2465 23.8886 15.2432Z" fill="#C88D56"/>
<path id="Vector_139" d="M25.7729 23.2507C25.8003 23.3003 25.8272 23.3586 25.8546 23.4083C25.8725 23.5401 25.9157 23.6169 26.0071 23.6182C26.0977 23.5628 26.2086 23.5305 26.2094 23.3084C26.0998 23.2493 25.9902 23.1902 25.8806 23.1311C25.8478 23.1682 25.8104 23.2095 25.7729 23.2507Z" fill="#6A3630"/>
<path id="Vector_140" d="M32.4202 16.1365C32.6437 16.4641 32.8266 16.885 33.1201 17.0688C33.1299 17.052 33.1489 17.0271 33.1499 17.0097C33.1418 16.8611 33.2177 16.6218 33.3007 16.5486C33.356 16.4997 33.3997 16.4284 33.3847 16.3185C33.2542 16.2451 33.2623 15.9755 33.1744 15.848C32.9314 16.1117 32.6566 15.6981 32.4202 16.1365Z" fill="#DF9149"/>
<path id="Vector_141" d="M34.0096 16.3575C34.0321 16.067 33.9632 15.9146 33.7947 15.8911C33.6855 16.0367 33.5849 16.1829 33.4756 16.3286C33.474 16.6335 33.4076 16.93 33.3759 17.2286L33.3708 17.2414C33.7074 17.3625 33.9279 17.2499 33.8676 16.5404C33.8656 16.5011 33.9625 16.4156 34.0096 16.3575Z" fill="#DF9149"/>
<path id="Vector_142" d="M33.3759 17.2286C33.6465 16.9405 33.6394 16.6351 33.4755 16.3286C33.4449 16.3311 33.4189 16.3294 33.3841 16.3273C33.2776 16.569 33.0939 16.3702 32.9689 16.6282C32.9565 16.8278 33.1935 16.799 33.1195 17.0776C33.1163 17.1296 33.109 17.1771 33.1057 17.2292C33.1931 17.2259 33.2845 17.2273 33.3759 17.2286Z" fill="#DA8740"/>
<path id="Vector_143" d="M33.9364 15.438C34.0371 15.7101 34.2478 15.6143 34.4038 15.6981C34.6526 15.8312 34.7236 15.5306 34.685 15.171C34.5863 15.2171 34.4962 15.2638 34.3975 15.3099C34.2467 15.4922 34.0907 15.269 33.9364 15.438Z" fill="#EDAE6A"/>
<path id="Vector_144" d="M32.125 15.2816C32.2891 15.3746 32.3732 15.7022 32.6021 15.5248C32.6159 15.5126 32.6292 15.3696 32.6094 15.3379C32.4824 15.1383 32.3441 14.9815 32.125 15.2816Z" fill="#E9A159"/>
<path id="Vector_145" d="M32.4202 16.1365C32.6659 15.8294 32.9396 16.2603 33.1739 15.8567C32.9037 15.8573 32.6344 15.7751 32.3499 15.936C32.3187 15.9472 32.2875 15.9583 32.2563 15.9694C32.2783 16.1058 32.3513 16.1235 32.4202 16.1365Z" fill="#B16F42"/>
<path id="Vector_146" d="M31.2421 15.6753C31.2812 15.7475 31.3018 15.8359 31.3238 15.8329C31.3764 15.8275 31.4526 15.793 31.487 15.7298C31.5461 15.6202 31.4897 15.547 31.4284 15.5519C31.3799 15.5619 31.3235 15.6281 31.2421 15.6753Z" fill="#EDAB65"/>
<path id="Vector_147" d="M33.9363 15.4381C34.0906 15.4085 34.2428 15.553 34.3973 15.3099C34.243 15.3395 34.0908 15.195 33.9363 15.4381Z" fill="#E8A15A"/>
<path id="Vector_148" d="M25.1463 14.5679C25.0199 14.9173 24.7658 14.8709 24.6183 15.1406C24.7336 15.4571 24.9406 15.4221 25.1543 15.3483C25.108 15.6024 24.9599 15.6019 24.8696 15.7226C24.7223 15.9182 24.6711 16.1111 24.8729 16.2282C25.0372 15.9683 25.1873 16.287 25.3763 16.1202C25.7918 15.7452 25.7307 15.2578 25.6712 14.7444C25.5539 14.3885 25.3524 14.4762 25.1463 14.5679Z" fill="#DD9344"/>
<path id="Vector_149" d="M24.869 16.2236C24.806 16.1151 24.8089 15.8583 24.8686 15.8794C25.2283 15.9802 25.2206 15.4047 25.4432 15.1179C25.1402 15.0163 24.8474 15.3814 24.6138 15.1447C24.5877 15.1431 24.5658 15.146 24.5433 15.1577C24.4579 15.3397 24.4951 15.512 24.5103 15.6872C24.5141 15.7658 24.5675 15.8171 24.5483 15.9161C24.7026 16.0259 24.6173 16.4868 24.8337 16.509C24.8402 16.4048 24.8589 16.3145 24.869 16.2236Z" fill="#D2853A"/>
<path id="Vector_150" d="M25.1464 14.5679C25.323 14.6007 25.5286 14.5176 25.6673 14.7398C25.6952 14.6413 25.9583 14.6141 25.7331 14.452C25.6205 14.3709 25.4743 14.4097 25.3447 14.3929C25.2875 14.4024 25.2302 14.4119 25.173 14.4214C25.1228 14.4575 25.1114 14.5004 25.1464 14.5679Z" fill="#7D4532"/>
<path id="Vector_151" d="M26.9999 14.0473C27.0506 14.0026 27.1054 13.9624 27.1515 13.9217C27.1327 13.8726 27.1208 13.7848 27.0907 13.7785C26.9754 13.7408 26.9361 13.8822 26.909 14.0373C26.9391 14.0435 26.9692 14.0498 26.9999 14.0473Z" fill="#EEAF5D"/>
<path id="Vector_152" d="M38.1672 19.2742C38.1174 19.3756 38.0675 19.4771 38.0222 19.5745C37.943 19.7264 37.8929 19.9019 37.9404 20.0486C38.0136 20.271 38.1126 20.0114 38.2021 19.9734C38.3944 19.8939 38.2732 20.0911 38.2534 20.1988C38.443 20.1627 38.6274 19.9999 38.8531 20.014C38.3613 20.0051 38.8263 19.1845 38.5675 19.0029C38.4143 19.0151 38.2857 19.1204 38.1672 19.2742Z" fill="#F1BE80"/>
<path id="Vector_153" d="M38.1625 19.2783C38.3172 19.314 38.4587 19.2793 38.5588 19.0023C38.5319 18.8046 38.8389 18.4926 38.54 18.3956C38.3667 18.5896 38.201 18.8014 38.1028 19.1177C38.1216 19.1668 38.1398 19.2246 38.1625 19.2783Z" fill="#EDB26F"/>
<path id="Vector_154" d="M19.3343 22.331C19.1125 22.3956 18.9562 21.9676 18.6828 22.2991C18.7065 22.5489 18.8776 22.3897 18.94 22.5068C18.7513 22.8785 18.3048 22.7722 18.2992 23.4908C18.5018 23.3857 18.3617 23.7473 18.4452 23.8048C18.487 23.973 18.5616 23.8251 18.6234 23.8116C18.7338 23.5091 18.8446 23.198 19.0657 23.0767C19.0474 22.7401 19.2905 22.6158 19.3343 22.331Z" fill="#F4CB97"/>
<path id="Vector_155" d="M18.4452 23.8049C18.4617 23.6098 18.5351 23.3399 18.2992 23.4908C18.1671 23.5828 17.9158 23.0007 17.9111 23.7759C18.0961 23.7439 18.2158 24.2698 18.4452 23.8049Z" fill="#F6D1A1"/>
<path id="Vector_156" d="M19.0657 23.0767C18.7024 22.9626 18.6591 23.3781 18.6234 23.8116C18.8054 23.6181 18.967 23.4017 19.0657 23.0767Z" fill="#F6D1A1"/>
<path id="Vector_157" d="M17.9112 23.7759C17.8577 23.7246 17.8002 23.6688 17.7514 23.6135C17.6245 23.6927 17.5453 23.8446 17.5231 24.061C17.6742 24.0835 17.8158 24.0488 17.9112 23.7759Z" fill="#F6D1A1"/>
<path id="Vector_158" d="M26.7335 23.5676C26.7435 23.4767 26.7535 23.3859 26.7682 23.2909C26.6466 23.1439 26.5232 23.097 26.4001 23.3943C26.4045 23.4643 26.4226 23.5221 26.4547 23.5676C26.536 23.6598 26.622 23.748 26.7335 23.5676Z" fill="#E5AA6D"/>
<path id="Vector_159" d="M26.4658 23.4594C26.4408 23.4404 26.4158 23.4214 26.3955 23.3984C26.3364 23.3686 26.2685 23.3382 26.2094 23.3084C26.1438 23.3827 26.0782 23.457 26.0125 23.5314C26.0695 23.7353 26.187 23.7383 26.3153 23.7071C26.3961 23.6685 26.4606 23.6116 26.4658 23.4594Z" fill="#7C4637"/>
<path id="Vector_160" d="M25.6319 24.6056C25.5058 24.602 25.3998 24.6956 25.3306 24.8961C25.8218 24.6348 26.2957 24.7907 26.7823 24.6729C26.8089 24.6658 26.8523 24.6685 26.8634 24.6997C27.2827 25.8717 27.9505 24.7326 28.4897 24.7488C28.1835 24.6992 27.9933 24.1863 27.6315 24.399C27.0097 23.6109 26.3194 24.1299 25.6319 24.6056Z" fill="#F2C187"/>
<path id="Vector_161" d="M36.6598 19.9732C36.9162 20.1242 37.1513 19.6378 37.4043 19.7015C37.4263 19.5591 37.4442 19.4121 37.4615 19.2738C37.3701 19.2724 37.2787 19.2711 37.1913 19.2744C37.0113 19.5071 36.8312 19.7399 36.6598 19.9732Z" fill="#D59A65"/>
<path id="Vector_162" d="M32.6091 17.6513C32.7781 17.6662 32.9576 17.721 33.088 17.3762C32.9215 17.392 32.6914 16.8897 32.6091 17.6513Z" fill="#DF9149"/>
<path id="Vector_163" d="M25.147 14.5592C25.1456 14.5112 25.1529 14.4637 25.1689 14.4168C24.7558 14.2647 24.3532 14.0131 23.9001 14.5033L23.8912 14.5768L23.8822 14.6503C23.9099 14.7653 24.0092 14.7105 24.042 14.8128C24.0008 14.9147 23.9596 15.0167 23.9184 15.1187C24.0746 15.1285 24.2355 15.1341 24.3786 14.9339C24.4594 14.756 24.5622 14.7145 24.6767 14.6955C24.8321 14.6485 24.9916 14.6062 25.147 14.5592Z" fill="#DC9B52"/>
<path id="Vector_164" d="M41.9507 25.5397C42.0651 25.1024 42.2931 24.5894 41.7344 24.7463C41.5125 24.8109 41.5111 24.3447 41.3882 24.1497C41.2384 24.1752 41.0467 24.1066 41.1059 24.5547C41.117 24.5859 41.142 24.6048 41.1433 24.6529C41.123 24.6298 41.1026 24.6068 41.0961 24.5715C41.0342 24.4457 40.974 24.2938 40.8444 24.4164C40.7608 24.4983 40.7451 24.6106 40.7896 24.7354C40.8765 25.159 40.8205 25.7089 41.101 25.9616C41.1911 26.3332 41.2559 26.3416 41.4986 26.0125C41.5507 25.7369 41.4587 25.6048 41.2845 25.4633C41.4996 25.5769 41.6906 25.4494 41.8444 25.5679C41.8775 25.5961 41.9173 25.5855 41.9507 25.5397Z" fill="#E48F41"/>
<path id="Vector_165" d="M40.7901 24.7267C40.9761 24.1196 41.0269 24.7719 41.1465 24.7402C41.1799 24.6943 41.1831 24.6423 41.1644 24.5932C41.0743 24.2216 41.3461 24.3344 41.3927 24.1456C41.4545 23.9926 41.6088 23.963 41.6061 23.7276C41.4051 23.6671 41.1781 23.7445 41.0175 23.5253C40.8304 23.8709 40.6433 24.2165 40.4475 24.5616C40.5617 24.6166 40.6759 24.6716 40.7901 24.7267Z" fill="#E08A3E"/>
<path id="Vector_166" d="M41.4711 25.8235C41.3573 26.2521 41.2319 26.1658 41.0968 25.957C40.9772 25.9887 40.86 26.0512 41.0055 26.2345C41.0782 26.3262 41.1305 26.3948 41.1202 26.5597C41.286 26.4872 41.4541 26.4454 41.6092 26.3331C41.7275 26.2533 41.9559 26.224 41.8316 25.8416C41.7169 25.9346 41.7209 25.7998 41.7152 25.6818C41.7078 25.5899 41.697 25.4847 41.6213 25.5104C41.5185 25.552 41.4523 25.635 41.4711 25.8235Z" fill="#E89C4E"/>
<path id="Vector_167" d="M19.3384 13.5264C19.3457 13.4789 19.3489 13.4268 19.3562 13.3793C19.1347 13.5093 18.9196 13.8139 18.6866 13.5685C18.5762 13.4527 18.5068 13.7272 18.4116 13.7866C18.1342 13.9741 17.8233 13.9286 17.569 14.3746C17.4662 14.5555 17.2812 14.5876 17.1835 14.3375C17.1575 14.3359 17.1228 14.3337 17.0921 14.3361C17.0143 14.5361 16.905 14.6817 16.773 14.7737C16.5218 15.0282 16.6569 15.237 16.7441 15.4472C16.804 15.5337 16.8594 15.6243 16.9602 15.5435C16.9909 15.541 17.021 15.5472 17.0517 15.5448C17.1018 15.2299 17.239 14.9857 17.409 14.9833C17.9974 14.9807 18.5183 14.3815 19.0743 14.1286C19.3075 14.0211 19.3211 13.8041 19.3384 13.5264Z" fill="#F2C186"/>
<path id="Vector_168" d="M25.6318 24.6056C26.0332 24.4563 26.4447 24.3556 26.8412 24.1451C27.0392 24.0441 27.1474 24.1946 27.2917 24.2559C27.4065 24.3023 27.4683 24.5675 27.6359 24.395C27.6549 24.2306 27.6616 24.0524 27.7769 23.9507C27.8343 23.4489 27.4207 23.5843 27.416 23.1701C27.4008 23.1343 27.3799 23.12 27.362 23.1276C27.3395 23.1392 27.3344 23.152 27.3292 23.1647C27.1947 23.3655 27.3342 23.6443 27.1807 23.87C27.0646 23.7756 26.9479 23.6899 26.8318 23.5955C26.6613 23.7461 26.5253 23.62 26.3702 23.5929C26.2538 23.5726 26.1421 23.5482 26.0257 23.5279C25.9717 23.4853 25.9218 23.4473 25.8678 23.4048C25.6417 23.957 25.2757 23.6075 25.0141 23.9615C24.9192 24.0863 24.7974 24.1528 24.6913 24.2464C25.0217 24.2582 25.4583 23.8236 25.6318 24.6056Z" fill="#EBB170"/>
<path id="Vector_169" d="M26.3569 23.5964C26.4958 23.7445 26.6369 23.8578 26.8186 23.599C26.7885 23.5928 26.763 23.5825 26.7334 23.5676C26.6442 23.5315 26.5549 23.4955 26.4657 23.4594C26.4323 23.5052 26.3949 23.5465 26.3569 23.5964Z" fill="#935D45"/>
<path id="Vector_170" d="M27.316 23.1682C27.3466 23.1658 27.3726 23.1674 27.4027 23.1736C27.4109 23.0434 27.4098 22.9214 27.3246 22.8899C27.2991 22.8796 27.256 22.9423 27.2196 22.9662C27.2546 23.0337 27.2896 23.1012 27.316 23.1682Z" fill="#DB9657"/>
<path id="Vector_171" d="M31.7816 23.3768C31.9577 23.5577 32.1508 23.6743 32.3645 23.7399C32.5517 23.5337 32.6327 23.2817 32.5434 22.9668C32.2602 22.7574 32.0186 23.0691 31.7816 23.3768Z" fill="#C67B42"/>
<path id="Vector_172" d="M31.7346 23.7137C31.6764 24.0194 31.2901 23.9256 31.3941 24.4244C31.735 24.3367 32.0713 24.2531 32.4123 24.1654C32.2289 23.8926 31.9649 23.8631 31.7346 23.7137Z" fill="#C2753E"/>
<path id="Vector_173" d="M32.9278 24.3501C33.0831 24.0243 33.3028 23.7156 33.1372 23.2957L33.128 23.3039C33.019 23.5149 32.9056 23.5166 32.7684 23.4819C32.6265 23.4512 32.4687 23.4675 32.4541 23.8413C32.5111 23.9059 32.568 23.9704 32.6204 24.039C32.7731 24.0355 32.8193 24.2736 32.9278 24.3501Z" fill="#CE8A50"/>
<path id="Vector_174" d="M15.3755 14.6866C15.1564 14.9867 14.8965 15.1012 14.6514 15.2602L14.6584 15.2867C14.6204 15.3366 14.6085 15.3882 14.6267 15.446C14.6593 15.4828 14.6945 15.4763 14.7279 15.4305C15.0867 15.3352 15.3764 15.5798 15.6735 15.7769C15.7041 15.7745 15.7342 15.7807 15.7649 15.7783C15.8224 15.6947 15.863 15.6014 15.892 15.4856C16.0576 14.7161 15.6814 14.8102 15.4403 14.695C15.4189 14.6893 15.3974 14.6836 15.3755 14.6866Z" fill="#CF935E"/>
<path id="Vector_175" d="M15.4398 14.7037C15.4491 15.1138 16.0536 14.7114 15.7966 15.4796C15.8943 15.5903 16.0104 15.5452 16.1284 15.5395C16.2781 15.514 16.4273 15.4971 16.5145 15.215C16.5478 14.7509 16.3723 14.7008 16.1567 14.7353C16.0113 14.6914 15.8291 14.8194 15.7308 14.578C15.6383 14.4546 15.5922 14.6348 15.5312 14.705C15.4919 14.7069 15.4658 14.7053 15.4398 14.7037Z" fill="#DCA168"/>
<path id="Vector_176" d="M16.1481 14.7347C16.242 14.9061 16.4828 14.8166 16.4585 15.2072C16.5551 15.3352 16.5731 15.7458 16.8011 15.3723C16.7696 15.1786 16.6353 15.0265 16.7777 14.7696C16.6629 14.7233 16.4693 14.8942 16.5009 14.4561C16.5191 14.235 16.3637 14.282 16.2649 14.3281C16.1125 14.3971 16.1237 14.5677 16.1481 14.7347Z" fill="#EAB477"/>
<path id="Vector_177" d="M15.5179 14.7085C15.586 14.6648 15.654 14.6212 15.7175 14.5815C15.7606 14.5189 15.8083 14.4522 15.852 14.3808C15.852 14.3808 15.8221 14.3005 15.8129 14.3087C15.6871 14.3705 15.5566 14.4365 15.5179 14.7085Z" fill="#B67D54"/>
<path id="Vector_178" d="M33.0507 25.8739C33.0209 25.933 32.9737 25.991 32.9715 26.0258C32.9729 26.0738 33.0125 26.1372 33.0426 26.1435C33.1029 26.1559 33.1587 26.0984 33.153 25.9804C33.147 25.9365 33.0914 25.92 33.0507 25.8739Z" fill="#F2BF81"/>
<path id="Vector_179" d="M37.1248 18.1767C37.1264 18.4295 37.1287 18.6736 37.1303 18.9264C37.161 18.924 37.1957 18.9261 37.2263 18.9237C37.8333 18.2731 37.1386 18.4433 37.1248 18.1767Z" fill="#D7975D"/>
<path id="Vector_180" d="M16.9655 23.4295C17.1179 23.2211 17.1899 22.7638 17.4723 22.9164C17.4978 22.9268 17.903 22.7167 17.7315 22.253C17.6748 22.2538 17.6181 22.2546 17.5528 22.2549C17.4725 22.703 17.2781 22.6778 17.0773 22.6827C16.9333 22.6868 16.7505 22.5447 16.6592 22.9616C16.702 23.1124 16.7403 23.2673 16.7873 23.4227C16.8439 23.4219 16.9047 23.4257 16.9655 23.4295Z" fill="#DB9D60"/>
<path id="Vector_181" d="M41.9505 25.5397C41.9245 25.538 41.8897 25.5359 41.8637 25.5342C41.7877 25.4947 41.7498 25.5446 41.7585 25.6845C42.1089 25.7935 42.4127 25.5336 42.6762 25.0795C42.891 24.7095 42.6464 24.8598 42.5756 24.8075C42.5164 24.7776 42.4527 24.7519 42.3895 24.7174C42.5301 25.3971 42.0421 25.1881 41.9505 25.5397Z" fill="#E89C4E"/>
<path id="Vector_182" d="M37.997 26.413C37.9997 26.3696 37.9978 26.3303 38.0046 26.2915C37.8337 26.2373 37.6715 26.323 37.5313 26.5452C37.6867 26.4982 37.8421 26.4513 37.997 26.413Z" fill="#E4A25F"/>
<path id="Vector_183" d="M41.7585 25.6846C41.7965 25.6347 41.8258 25.5842 41.8638 25.5343C41.7253 24.9593 41.4075 25.5843 41.1884 25.4661C41.2855 25.5854 41.3785 25.7001 41.4757 25.8194C41.5359 25.6925 41.6061 25.4747 41.6617 25.77C41.6943 25.9463 41.7304 25.9965 41.8275 25.837C41.8041 25.792 41.7813 25.7383 41.7585 25.6846Z" fill="#E7974A"/>
<path id="Vector_184" d="M14.7281 15.4305C14.698 15.4242 14.6719 15.4226 14.6372 15.4204C14.4571 15.3744 14.3139 15.5746 14.1577 15.7042C14.3054 16.4105 14.7334 16.1148 15.0488 16.1562C15.2213 16.1844 15.1491 15.9446 15.1109 15.7898C15.0357 15.528 14.7997 15.6789 14.7281 15.4305Z" fill="#B37247"/>
<path id="Vector_185" d="M32.4629 23.8419C32.5602 23.6083 32.6888 23.5031 32.8139 23.6633C33.0925 24.0162 33.0878 23.602 33.1368 23.3044C33.0419 23.2898 32.9361 23.3093 32.8949 23.1325C32.7807 23.0775 32.6711 23.0183 32.5569 22.9633C32.4972 23.221 32.4376 23.4787 32.378 23.7364C32.4019 23.7727 32.4303 23.805 32.4629 23.8419Z" fill="#BF733B"/>
<path id="Vector_186" d="M24.0418 14.8128C24.0193 14.685 23.9555 14.6592 23.882 14.6503C23.6081 14.5722 23.3618 14.6092 23.2754 15.2268C23.3928 15.2298 23.5149 15.2287 23.6323 15.2316C23.7055 14.8964 23.8777 14.8592 24.0418 14.8128Z" fill="#C5874C"/>
<path id="Vector_187" d="M16.7963 15.3764C16.6241 15.553 16.6072 15.1249 16.4537 15.2112C16.3355 15.4304 16.2026 15.3263 16.0794 15.3447C16.0304 15.7817 16.3754 15.8381 16.3316 16.2623C16.6207 16.2368 16.9462 16.3267 16.952 15.5342C16.9032 15.4789 16.8498 15.4276 16.7963 15.3764Z" fill="#E0B284"/>
<path id="Vector_188" d="M16.3357 16.267C16.5558 15.6707 16.0811 15.737 16.0835 15.3494C15.9894 15.3915 15.8907 15.4376 15.8006 15.4843C15.7901 15.5838 15.7795 15.6834 15.7643 15.787C15.9469 15.8637 16.3865 15.5905 16.0533 16.3931C16.1434 16.3465 16.2375 16.3044 16.3357 16.267Z" fill="#D8A779"/>
<path id="Vector_189" d="M24.5446 15.9028C24.6086 15.8545 24.6206 15.8029 24.5631 15.7471C24.4789 15.4194 24.3398 15.3454 24.129 15.5806C24.1923 15.8939 24.1866 15.9153 24.0426 15.9194C23.8633 15.93 23.712 16.2604 23.527 16.153C23.4909 16.2423 23.4503 16.3356 23.4142 16.4248C23.8064 16.4231 24.1883 16.3075 24.5446 15.9028Z" fill="#BE7436"/>
<path id="Vector_190" d="M37.8692 25.8038C37.8158 25.7525 37.7669 25.6972 37.7135 25.646C37.7102 25.698 37.7029 25.7455 37.6997 25.7976L37.6953 25.867L37.691 25.9365C37.7746 25.994 37.8622 26.056 37.9504 26.1095C37.9262 26.0078 37.898 25.9014 37.8692 25.8038Z" fill="#854A35"/>
<path id="Vector_191" d="M37.1423 25.166C37.0881 25.3369 37.0339 25.5078 36.9791 25.6874C37.1416 25.667 37.2954 25.6461 37.4578 25.6257C37.3496 25.4752 37.2459 25.3206 37.1423 25.166Z" fill="#8D4220"/>
<path id="Vector_192" d="M37.5216 25.0197C37.4335 24.9663 37.354 24.9134 37.2658 24.86C37.3055 25.0629 37.3744 25.2153 37.4859 25.3137C37.5005 25.2188 37.5111 25.1193 37.5216 25.0197Z" fill="#9F562E"/>
<path id="Vector_193" d="M14.1577 15.7042C14.3204 15.6098 14.4745 15.5149 14.6372 15.4204C14.6445 15.373 14.6472 15.3296 14.6545 15.2821C14.536 15.2965 14.4129 15.315 14.2903 15.3248C14.2507 15.4007 14.2111 15.4767 14.1715 15.5526C14.1683 15.6047 14.1609 15.6522 14.1577 15.7042Z" fill="#BD8258"/>
<path id="Vector_194" d="M24.1332 15.5852C24.2956 15.5649 24.4456 15.6047 24.5672 15.7517C24.6067 15.5363 24.5885 15.3391 24.5437 15.149C24.3856 15.2394 24.2188 15.3292 24.0607 15.4195C24.0835 15.4732 24.1063 15.5269 24.1332 15.5852Z" fill="#C88649"/>
<path id="Vector_195" d="M24.6813 14.6914C24.5231 14.5029 24.4192 14.5618 24.3832 14.9299C24.4942 14.8976 24.5975 14.8474 24.6813 14.6914Z" fill="#C88D56"/>
<path id="Vector_196" d="M41.1644 24.5932C41.1571 24.6407 41.1539 24.6927 41.1466 24.7402C41.1778 24.8685 41.2328 24.8937 41.3123 24.8072C41.3728 24.7456 41.4001 24.6558 41.3575 24.5704C41.3033 24.4624 41.2274 24.5623 41.1644 24.5932Z" fill="#E7974A"/>
</g>
</g>
<defs>
<clipPath id="clip0_106_59021">
<rect width="31.6757" height="30.9869" fill="white" transform="translate(45.1936 24.047) rotate(138.566)"/>
</clipPath>
</defs>
</svg>
