<svg width="172" height="172" viewBox="0 0 172 172" fill="none" xmlns="http://www.w3.org/2000/svg">
<g clip-path="url(#clip0_104_30922)">
<path d="M110.171 61.7212C107.023 62.6892 103.855 63.1667 100.854 65.8479C98.9054 67.5993 96.7627 68.4106 94.9197 70.6409C94.4828 71.1536 94.1078 70.9446 93.738 70.9216C88.9156 70.6042 84.0764 70.5557 79.2088 70.6911C74.8654 70.8085 70.5755 70.3387 66.168 70.1315C68.1863 66.9841 70.5261 64.6329 73.1803 63.4654C75.9573 62.2212 78.7902 61.976 81.5377 60.1226C83.3559 59.9153 85.1604 59.1167 86.9532 58.2329C87.7378 57.8263 88.5729 57.6927 89.2649 56.6054C89.3835 56.0561 89.25 55.7609 89.0115 55.5267C88.688 55.3041 88.3161 55.3147 87.9558 55.4103C85.7931 55.7311 83.6768 56.9321 81.5299 57.8106C81.1476 57.9893 80.8967 58.4967 80.6142 58.9683C78.7132 60.2334 76.7564 60.4995 74.8542 60.9715C71.3943 61.8019 68.4537 64.5881 65.7013 68.4152C64.6858 69.8198 63.7385 70.4019 62.4738 70.6606C58.6106 71.4659 54.7735 71.5811 50.9228 72.1847C47.9072 72.6548 45.0416 72.0713 42.0952 71.9721C39.1152 71.8707 36.1541 71.4669 32.8549 72.1555C35.4318 68.1656 38.2307 65.7586 40.8961 63.0565C40.999 62.4892 40.9327 62.1983 40.5504 62.3769C38.0865 64.0118 35.8138 66.3672 33.6684 69.1186C31.0283 72.4972 28.1766 73.045 25.2219 73.6201C20.0824 74.599 14.99 74.0117 9.84019 75.6986C7.22275 76.5478 4.62017 78.2415 2.03853 79.5991C1.47976 79.9017 0.885304 80.2358 0.416013 81.5395C1.24488 82.0467 2.03055 81.8932 2.89073 81.3563C8.11165 77.9866 13.3015 76.741 18.5881 76.6486C21.9147 76.6028 25.363 75.6873 28.7399 74.8348C34.2406 73.4735 39.5264 74.2078 44.9023 74.0366C49.4001 73.8782 52.7019 76.3955 55.6334 80.7961C56.7609 83.0091 58.4426 83.367 60.1716 83.2385C61.6631 83.129 63.1463 83.1539 64.6253 83.2461C65.3385 83.4424 66.0381 83.5872 66.7765 83.3801C67.2849 83.3443 67.746 83.2549 67.7185 82.0722C67.2087 80.2351 66.0344 80.6681 65.0334 80.7576C63.2015 80.9134 61.4421 80.7194 59.7938 79.8237C59.4146 79.682 59.0322 79.3207 58.6562 79.3985C55.5545 80.1669 54.2176 76.1693 52.1248 74.0143C54.8926 73.7312 57.6666 73.3473 60.4092 72.9277C65.2965 72.2031 70.2585 71.6349 74.9362 72.6519C77.5822 73.2386 80.2925 74.6898 82.7183 76.6462C84.1323 77.7804 85.748 78.3872 86.9961 80.0172C87.4826 80.6043 87.8336 81.4698 88.3757 81.9759C89.7563 84.1878 91.7512 84.9364 93.3134 86.6703C94.2557 86.9821 95.1214 87.7109 96.1549 87.3704C96.4521 87.2034 96.6706 86.947 96.7713 86.4134C96.6083 85.509 96.1009 85.2581 95.6292 84.9756C93.9549 84.77 92.9618 82.5654 91.489 81.8325C91.2169 81.5962 90.8745 81.6761 90.6224 81.3905C88.4298 79.4823 86.2814 77.4081 84.0048 75.7647C82.5194 74.6935 81.0161 73.6382 78.9781 72.7688C81.7248 72.282 84.0199 72.0032 86.272 72.1435C91.5472 72.506 96.9199 72.1153 102.19 72.8317C103.528 73.0164 104.51 73.7693 105.234 75.4173C105.988 77.1345 106.95 78.4768 108.403 78.7192C107.503 77.1952 106.338 76.1271 105.622 74.3447C105.513 73.1063 106.662 73.9034 106.583 72.7343C103.576 71.7034 100.461 71.3405 97.0521 71.0775C101.594 66.687 106.05 63.9614 110.77 63.4795C111.215 63.9122 111.734 63.7083 112.251 63.538C113.067 63.1671 113.894 62.6281 114.725 62.5618C115.237 62.4587 115.724 62.2191 116.206 62.0804C116.704 61.9259 117.21 61.6706 117.711 61.4824C117.883 61.4257 118.057 61.3353 118.232 61.245C119.012 60.3656 120.237 61.2855 120.695 59.0702C120.574 58.8601 120.432 58.6994 120.27 58.5881C118.859 58.2134 117.427 59.0014 115.999 59.4355C113.957 60.2531 111.997 59.7598 110.171 61.7212Z" fill="#67342F"/>
<path d="M115.922 60.1394C117.361 59.7904 118.773 59.0517 120.185 59.1397C120.63 58.4926 120.969 57.6532 121.43 57.024C121.738 56.6888 121.391 56.296 121.582 55.9368C121.602 55.8874 121.683 55.943 121.711 56.046C121.962 56.6184 121.465 56.7393 121.393 57.0891C121.246 57.8223 121.344 58.4021 121.653 58.86C122.513 59.1498 123.45 58.7357 124.291 59.0413C124.818 59.2428 124.993 60.2323 125.522 60.4002C125.672 60.4265 125.843 60.4033 125.999 60.3287C126.515 59.9053 127.062 59.5176 127.295 58.4861C127.241 57.9935 127.284 57.5743 127.621 57.3085C127.746 57.1982 127.905 57.09 128.03 56.9797C128.541 56.6235 129.055 56.7736 129.554 56.6191C129.95 56.4919 130.33 56.3469 130.722 56.287C130.977 56.2523 131.217 56.1997 131.46 56.0799C131.885 55.7689 132.52 55.5892 132.462 54.6239C132.412 53.8109 131.807 54.3131 131.441 54.2228C130.894 54.0706 130.292 54.2524 129.813 53.8176C124.215 54.0256 118.6 53.7094 112.987 58.2188C113.742 59.6493 115.199 58.7446 115.922 60.1394Z" fill="#E69B52"/>
<path d="M92.9442 60.9177C94.6091 61.0046 96.2719 61.1251 97.9291 59.44C98.2405 56.3381 99.9212 56.4428 101.086 55.3512C101.164 55.1873 101.241 55.0235 101.319 54.8596C101.146 53.8365 100.579 53.7337 99.9963 53.613C100.58 53.4469 101.172 54.513 101.671 53.2787C102.149 52.0937 101.466 51.68 101.188 51.0046C101.082 50.8124 100.974 50.6538 100.865 50.4952C100.347 49.3325 99.4903 49.5491 98.6909 49.6511C98.2445 49.5052 97.8483 48.5526 97.3212 49.4308C96.7741 50.3584 97.2248 50.977 97.5905 51.6072C96.958 50.9266 96.3172 50.3805 95.5798 50.3008C94.6407 50.2086 93.8971 50.7696 94.3334 52.7033C94.4943 53.6413 95.5949 52.7651 95.5028 54.2441C95.4488 57.8175 95.4488 57.8175 93.2421 58.8442C92.947 58.9776 92.7086 59.2834 92.5133 59.7099C92.3852 60.1405 92.3758 60.5618 92.4872 60.9399C92.6312 61.067 92.7835 61.0596 92.9442 60.9177Z" fill="#E79A42"/>
<path d="M141.14 76.187C143.516 77.3304 146.005 76.9119 148.538 75.7875C149.136 75.6729 147.793 74.4757 148.903 74.5448C149.474 74.5804 150.073 74.1791 150.542 73.4153C151.027 72.6695 151.406 71.7314 151.178 70.7892C150.964 69.8985 150.328 70.0783 149.817 70.4344C149.218 70.8358 148.562 70.8118 147.928 71.4978C148.863 70.0376 149.424 68.6215 148.142 67.5293C145.918 66.6653 143.707 65.5995 141.198 66.6073C142.168 68.355 143.955 67.0322 144.994 68.4973C145.6 68.7882 145.508 69.7273 145.489 70.5697C145.662 71.5927 145.24 72.9499 145.747 73.7408C146.374 74.7753 145.537 73.8627 145.574 74.0843C145.133 74.1243 144.663 74.3481 144.229 74.5404C143.239 75.5416 142.082 74.8791 141.14 76.187Z" fill="#F3C48A"/>
<path d="M62.7349 90.5688C65.8842 92.0135 69.1287 91.119 72.4088 89.1132C73.3561 88.5311 74.3582 88.1549 75.2245 86.9772C76.4028 85.3972 76.6326 84.1461 75.4244 82.9573C73.8534 84.884 72.0897 84.7573 70.4218 85.5307C70.279 85.6567 70.1498 85.8343 70.0028 86.0276C69.4798 86.8386 69.0021 87.7368 68.4024 88.4249C68.1504 88.6791 67.952 89.426 67.6199 88.7979C67.0234 89.1657 66.6241 88.5334 66.1042 88.4841C65.9519 88.4915 65.7954 88.5661 65.6546 88.6586C65.1726 89.0841 64.6947 89.4424 64.1758 89.6462C63.8271 89.827 63.4511 89.9048 63.0846 90.1013C62.9596 90.2116 62.8325 90.3555 62.7349 90.5688Z" fill="#F7D7AB"/>
<path d="M149.931 104.067C149.295 102.627 148.66 101.187 148.006 99.763C146.211 99.0606 144.279 100.003 142.422 100.022C141.712 100.046 140.892 99.9439 140.378 101.414C140.679 102.006 140.946 102.596 141.246 103.189C143.032 104.852 145.297 104.791 147.165 106.223C148.244 107.05 149.518 105.83 149.931 104.067Z" fill="#F0BB78"/>
<path d="M90.5373 81.402C90.7442 81.6005 90.9691 81.7833 91.1918 81.9996C92.049 82.323 92.8716 82.931 93.8232 82.8216C95.0816 82.6638 95.5849 83.5219 95.3542 85.5996C95.7586 85.8779 96.1967 86.1583 96.6011 86.4365C96.7525 87.2558 97.1769 87.4847 97.6371 87.6821C97.9333 87.8018 98.2295 87.9215 98.5383 87.8395C99.0498 87.4833 99.5918 87.4496 100.1 87.4138C101.191 86.4189 101.279 84.4672 101.878 82.986C100.024 81.3183 97.9719 80.6843 95.7073 81.2855C93.9417 81.7323 92.2704 81.2063 90.5373 81.402Z" fill="#DB9657"/>
<path d="M130.471 91.4492C130.351 90.6656 129.921 90.5375 129.534 90.2435C128.383 89.7668 127.482 88.2429 126.115 88.5288C125.938 88.6528 125.775 88.8283 125.707 89.1108C125.037 92.0216 125.037 92.0216 122.756 93.1449C122.006 93.2669 121.344 92.517 120.547 93.1254C119.436 94.7096 119.553 95.8135 120.747 96.411C121.812 96.9328 122.76 98.2236 124.133 96.5038C124.846 95.6203 125.356 96.9175 125.98 97.1926C126.67 97.2187 126.798 96.2481 127.081 95.4897C127.044 93.6483 128.012 93.5568 128.64 93.2247C129.355 92.8475 130.053 92.7392 130.471 91.4492Z" fill="#EBAD69"/>
<path d="M93.0237 93.2155C97.6335 96.6747 102.448 97.6664 107.749 92.7327C107.604 92.3525 107.377 92.2034 107.11 92.153C106.942 92.1426 106.756 92.1478 106.584 92.2046C105.774 92.4747 104.971 92.644 104.157 92.9813C102.909 93.5109 101.768 93.946 100.708 92.2771C99.9412 91.0483 98.4435 91.7985 97.2607 91.8261C96.2975 91.8504 95.2976 92.193 94.306 92.4012C93.8607 92.5084 93.4017 92.5642 93.0237 93.2155Z" fill="#F5CD99"/>
<path d="M134.818 70.4277C132.376 70.3599 130.017 71.9338 127.717 73.6464C125.24 75.483 122.888 76.9561 120.438 75.6561C120.105 75.3148 120.015 75.6804 120.001 76.1688C121.168 76.6633 122.357 77.0749 123.48 77.7353C124.213 78.169 124.922 78.4326 125.743 77.7076L125.705 77.7728C125.677 77.4167 125.631 76.7896 125.667 76.7581C128.934 74.414 132.159 71.4093 135.675 71.8309C136.986 73.2792 138.587 72.2148 140.077 72.1389C140.516 72.1325 140.912 72.0053 141.311 71.5578C141.484 71.2143 141.503 70.9118 141.369 70.6166C139.321 69.3754 137.095 69.6248 134.818 70.4277Z" fill="#6F3C37"/>
<path d="M120.555 59.1627C119.742 60.2931 118.713 59.7397 117.903 60.8365C117.76 62.5823 118.576 62.2113 118.888 62.3489C119.421 62.1965 119.106 62.9192 119.196 62.5536C119.218 62.4706 119.167 62.4843 119.068 62.4444C118.653 62.3342 118.275 62.4456 117.948 63.0833C117.72 64.0476 118.091 64.5769 118.358 65.1672C118.682 65.9297 119.621 64.9422 119.741 66.2656C120.079 66.253 120.435 66.2246 120.773 66.2119C121.283 64.2696 122.016 66.0362 122.609 65.449C123.108 64.2146 123.838 64.6819 124.47 64.2827C124.618 64.0894 124.699 63.8583 124.75 63.5915C124.784 63.3068 124.783 63.0536 124.749 62.7984C123.925 61.3973 123.103 59.9626 122.03 59.0353C121.674 59.0637 121.44 58.7623 121.226 58.4115C120.923 58.3927 120.578 58.253 120.555 59.1627Z" fill="#DF9652"/>
<path d="M94.5098 52.5794C94.4129 50.8861 95.0041 50.3325 95.686 51.0329C96.3993 51.7691 97.2963 51.4539 98.1348 52.6197C97.9853 51.2268 97.3099 50.9654 97.399 49.8068C98.0238 49.2552 98.0599 50.8434 98.585 50.5387C99.5995 49.4209 99.0101 48.8612 98.5058 48.2898C94.6266 47.9975 90.8645 50.4288 87.1203 52.8444C87.4335 53.775 88.027 53.7276 88.5984 53.7632C90.3902 52.6263 92.1086 52.6659 93.8072 53.2948C94.0667 53.1929 94.3145 53.0059 94.5098 52.5794Z" fill="#ECAA57"/>
<path d="M151.865 98.485C152.491 99.2664 153.285 99.5183 154.082 99.7366C154.452 100.013 154.878 99.955 155.263 99.9959C156.429 99.1574 155.333 98.06 155.645 97.1177C154.938 95.7408 155.021 93.6032 154.331 92.2105C153.924 91.7127 153.486 91.4323 152.917 91.6162C151.509 92.8276 150.016 93.2239 148.577 94.1128C148.666 94.3207 148.72 94.5266 148.809 94.7346C149.123 95.3784 149.531 95.8762 150.079 95.7417C151.488 95.3233 151.81 96.6594 151.865 98.485Z" fill="#E6964A"/>
<path d="M69.9239 45.5978C68.3283 45.4815 66.7307 45.9387 65.1406 47.0881C65.0504 47.4537 65.5871 47.234 65.3067 47.6721C65.1954 47.8339 64.9664 47.7184 64.7941 47.7751C64.1072 47.9685 63.4098 48.33 63.6044 49.81C63.7685 50.9675 64.3641 51.4264 65.0846 50.6952C66.0392 49.7255 66.8532 49.3882 67.6465 50.4668C68.9269 50.226 70.2442 50.7468 71.4739 49.1531C71.7417 48.9167 71.9958 48.6288 72.2678 48.3252C72.5756 47.9901 72.9484 47.6927 72.9073 46.9984C72.8704 46.2369 72.5174 45.945 72.0762 45.985C71.3126 46.0555 70.591 45.9936 69.9239 45.5978Z" fill="#F0B878"/>
<path d="M101.88 82.9524C100.531 83.4758 100.946 86.0324 100.007 87.0199C99.7504 87.3414 99.7074 87.7605 99.7653 88.1859C99.8357 88.4096 99.9418 88.6018 100.05 88.7604C101.824 90.3388 101.985 90.197 102.281 87.0773C102.234 86.7369 102.089 87.1834 102.26 86.8735C102.357 86.6602 102.452 86.7674 102.399 87.0678C102.58 88.4963 103.556 88.8102 103.757 90.1893C105.403 90.5787 106.008 90.0765 106.472 88.0471C104.997 86.268 103.703 84.0109 101.88 82.9524Z" fill="#E7A968"/>
<path d="M148.108 67.5271C149.188 69.1467 148.035 70.3233 147.088 71.9852C148.209 71.5995 148.935 72.1341 149.697 71.2705C150.132 70.7914 150.692 70.202 150.853 71.14C150.963 71.8049 150.641 72.9152 150.04 73.3502C149.651 73.6297 149.249 73.8577 148.82 73.9828C147.616 74.3464 148.56 75.1645 148.505 75.7853C150.639 75.1085 152.287 73.3046 153.039 69.6228C152.069 68.955 150.966 68.785 150.101 67.7694C149.482 67.6802 148.812 67.6047 148.108 67.5271Z" fill="#F6D1A0"/>
<path d="M63.917 58.8728C64.0357 58.8633 64.1544 58.8538 64.2594 58.7929C66.6107 55.9868 69.2164 53.9727 71.6928 51.5963C72.6221 49.9501 73.9591 48.8018 74.3431 46.4299C73.2453 45.9059 72.793 48.0205 71.9643 48.5931C71.6829 48.778 71.4234 48.88 71.1461 48.9977C70.7766 50.0544 70.3072 50.8182 69.5562 51.2269C67.7256 52.1758 65.9738 53.7538 64.0758 54.1586C63.1693 54.3551 62.3186 55.0107 62.2822 56.9487C62.6826 57.8342 63.3675 58.2143 63.917 58.8728Z" fill="#F5CD9C"/>
<path d="M98.4901 48.272C98.632 48.9726 99.1006 49.5755 98.5692 50.5209C99.3475 50.2151 100.194 49.6267 100.586 51.1865C100.666 50.989 100.755 50.9102 100.87 50.968C100.919 50.9879 100.929 51.1066 100.904 51.2232C101.104 51.8093 101.576 52.6317 101.44 52.91C100.944 54.1107 100.576 52.9743 100.165 52.7968C99.5255 52.5039 99.2304 53.1773 98.8725 54.3191C99.8346 54.0416 100.645 54.0247 101.303 54.8418C102.012 53.4856 102.703 52.1451 103.396 50.7711C103.891 48.7773 103.751 47.5032 102.305 47.6999C101.042 47.9249 99.7663 48.0985 98.4901 48.272Z" fill="#EBA44E"/>
<path d="M123.001 83.5263C121.505 83.4499 120.008 83.3735 118.511 83.2971C117.284 84.0305 116.154 82.6778 114.9 83.8482C114.889 85.9227 115.998 85.9918 116.805 86.582C117.531 87.1165 118.248 87.7855 119.124 87.8064C120.257 87.219 121.344 86.2913 122.491 85.7554C122.903 85.1061 123.315 84.4569 123.001 83.5263Z" fill="#BC723E"/>
<path d="M120.501 93.3249C121.28 93.559 122.076 93.7773 122.854 94.0114C123.242 92.9389 124.831 93.156 124.156 90.9881C123.852 90.1762 123.473 89.4946 122.797 89.5199C122.456 89.5662 122.125 89.7311 121.815 89.8467C120.564 90.1568 119.309 90.2474 118.041 90.5733C117.152 89.6743 116.593 87.8173 115.193 88.3543C115.14 89.7345 115.459 90.8511 115.849 91.9045C117.101 93.4673 118.895 92.2968 120.248 93.326C120.349 93.3323 120.434 93.3207 120.501 93.3249Z" fill="#D79559"/>
<path d="M124.999 65.8172C126.849 65.6457 128.649 64.9142 130.241 62.6514C130.501 61.7228 131.162 61.1397 131.231 60.0305C131.376 58.251 130.783 58.0117 129.888 58.2933C129.217 58.5046 128.683 59.2305 128.064 59.6813C127.729 59.9135 127.285 60.2738 127.269 60.7959C127.22 62.9356 126.266 63.0786 125.413 63.5147C124.932 64.1933 124.684 64.9202 124.999 65.8172Z" fill="#EBAA65"/>
<path d="M56.046 51.4311C54.8823 52.2359 53.8006 53.3495 52.8482 54.8255C53.6813 55.8054 54.6432 54.4481 55.5329 54.5204C55.7031 54.4973 55.8575 54.4563 56.014 54.3817C56.1705 54.307 56.3291 54.1988 56.4719 54.0728C56.6894 54.1032 56.9916 52.5023 57.1862 53.9823C57.6012 54.6324 58.1254 54.6145 58.702 54.2961C59.1 54.1353 59.4338 52.5701 59.892 53.881C60.1936 54.7265 60.785 54.7127 61.3711 54.513C62.0033 54.1138 62.5452 53.5401 62.6385 52.3143C61.5352 49.9847 60.1169 48.9178 58.0826 50.4276C57.444 50.9277 56.7582 51.3742 56.046 51.4311Z" fill="#ECB171"/>
<path d="M147.623 89.3967C147.747 90.6529 147.802 91.9386 148.279 92.9469C149.525 94.6105 150.897 93.1775 152.233 92.316C152.954 91.8379 152.683 90.7749 152.948 90.0322C153.338 88.9261 152.375 87.8706 153.221 86.7423C152.986 86.7277 152.75 86.713 152.515 86.6984C151.668 86.7468 151.155 88.2164 150.404 88.6252C149.485 89.5634 148.544 87.885 147.623 89.3967Z" fill="#C06F34"/>
<path d="M149.931 104.067C148.678 106.031 147.637 106.219 146.916 104.537C146.768 104.191 146.613 103.978 146.385 104.116C144.863 104.983 143.743 104.002 142.576 102.968C142.272 102.696 141.69 103.115 141.228 103.204C143.08 107.605 146.194 107.175 149.182 106.889C150.472 106.767 150.474 105.366 149.931 104.067Z" fill="#F6D099"/>
<path d="M164.685 93.1087C164.036 92.6971 163.387 92.2855 162.738 91.8738C161.59 94.8561 160.221 97.3353 158.228 98.7128C157.735 99.0532 156.982 98.9556 156.909 100.385C159.546 100.853 161.808 98.6659 164.015 96.0195C164.376 95.0972 165.098 94.3324 164.685 93.1087Z" fill="#EEB26A"/>
<path d="M96.1685 86.882C95.1569 86.5996 94.1789 86.3193 93.1673 86.037C92.2052 86.3144 91.4387 87.7851 90.4692 87.9103C89.9724 88.0312 89.4481 87.5093 88.9567 88.356C89.3487 89.3758 89.9097 90.1194 90.5285 90.7485C90.8794 91.0741 91.2786 91.1664 91.6977 91.2094C92.9077 90.7449 94.0587 89.6019 95.2897 89.3411C95.8202 89.2223 96.3064 88.7296 96.5531 87.7495C96.5845 87.2453 96.3933 87.0647 96.1685 86.882Z" fill="#C5824D"/>
<path d="M67.6611 50.2314C67.3257 48.304 66.5841 48.2915 65.5497 49.4587C65.1149 49.9378 64.7275 51.0103 64.1685 50.2331C63.9815 49.9852 63.7661 49.3813 63.8343 49.0987C64.1366 48.0378 64.7838 48.483 65.2574 48.192C65.5904 47.9934 65.9076 47.7769 66.4863 47.4249C65.8875 47.2864 65.4883 47.194 65.1228 47.1038C64.2877 47.2373 63.4675 47.6755 62.6546 48.266C61.6127 49.2808 61.2274 50.3198 62.3033 51.4666C62.5554 51.7523 62.7078 52.2848 62.7373 52.894C63.061 53.6566 63.622 53.8602 64.1061 53.4011C65.2771 52.2087 66.631 51.8713 67.6611 50.2314Z" fill="#EEB473"/>
<path d="M70.2118 86.1925C71.5732 86.5472 72.9415 84.3548 74.3912 85.4574C74.906 85.8607 74.8919 83.6496 75.4244 82.9573C75.1187 82.7189 74.813 82.4805 74.5072 82.2422C73.7678 82.1961 73.226 83.3096 72.5012 83.5681C72.02 82.6271 73.0786 81.8832 72.8621 81.0261C71.1875 79.7407 69.386 79.1392 67.3673 80.1269C67.6531 80.9546 68.1951 80.9209 68.6951 81.0195C69.7077 81.0151 70.2541 81.994 70.5517 83.4466C70.4436 84.3679 69.7484 85.2356 70.2118 86.1925Z" fill="#F6D1A0"/>
<path d="M126.002 97.1096C125.481 95.4406 124.929 94.5625 123.572 96.3002C122.309 97.8917 121.506 95.6146 120.405 95.411C119.537 95.2557 120.659 94.0434 120.517 93.3428C119.956 93.1391 119.4 93.1214 118.95 94.1225C118.583 95.3988 117.837 96.8201 119.021 97.5856C120.475 98.6211 122.27 98.2436 123.698 99.4293C124.192 99.342 124.678 99.6759 125.143 98.9794C125.394 98.472 125.661 97.9825 125.911 97.4751C125.92 97.3407 125.962 97.2083 126.002 97.1096Z" fill="#EFB776"/>
<path d="M145.611 68.0802C144.428 66.2013 142.689 67.0377 141.198 66.6073C140.596 66.7892 139.996 66.3975 139.38 67.0677C139.423 67.4753 139.612 67.6895 139.819 67.888C140.845 67.9351 140.42 69.6127 140.737 70.476C141.781 70.5074 142.443 72.337 143.683 71.4019C144.51 70.5762 145.322 69.7326 145.611 68.0802Z" fill="#EAAC6A"/>
<path d="M65.0905 82.5496C62.8992 81.9744 60.5528 82.8067 58.3458 82.2137C57.35 81.9491 56.5042 81.171 55.5483 80.8077C55.2923 82.209 55.8722 82.65 56.4247 82.9882C57.0582 83.382 57.4092 84.2474 57.8337 85.0162C58.6448 86.0791 59.6175 86.1734 60.5763 85.1365C61.7158 83.9084 62.8281 83.6571 63.9888 83.7126C64.2777 83.68 64.5707 83.5801 64.8385 83.3438C65.037 83.1368 65.121 82.8721 65.0905 82.5496Z" fill="#BA7240"/>
<path d="M161.361 91.7543C160.419 89.8228 158.929 89.3588 157.559 88.5986C157.488 88.6616 157.401 88.7068 157.347 88.7541C156.913 89.2332 156.509 89.7479 156.536 90.6775C156.66 91.9338 157.002 93.2205 157.781 93.1678C159.051 93.0951 158.741 94.5436 158.769 95.7264C160.053 95.9583 160.825 94.6735 161.397 92.8026C161.506 92.4213 161.511 92.0673 161.361 91.7543Z" fill="#E7974A"/>
<path d="M140.396 101.398C141.007 100.795 141.696 100.568 142.273 100.789C143.889 101.396 145.787 99.0849 147.334 100.801C147.665 101.176 147.89 100.279 148.042 99.7315C147.932 98.7799 147.66 98.0037 147.223 97.4365C146.214 97.1206 145.201 97.1249 144.108 97.6136C143.79 97.83 143.53 98.2187 143.215 98.4015C142.65 98.805 142.072 98.8702 141.512 98.9197C140.888 99.1845 140.174 99.275 140.161 100.843C140.233 101.033 140.306 101.223 140.396 101.398Z" fill="#E6A765"/>
<path d="M161.361 91.7544C161.321 92.1399 161.28 92.5254 161.239 92.9109C160.862 95.975 159.404 95.5467 158.21 96.029C157.942 96.2654 157.917 96.6688 157.894 97.0385C157.506 98.9377 156.124 98.0924 155.605 99.6629C155.114 99.6829 154.608 99.6851 154.117 99.7052C154.921 100.616 155.999 100.109 156.927 100.37C157.528 99.9346 158.126 99.28 158.727 99.0982C159.969 98.6694 160.614 96.9887 161.394 95.5694C161.469 95.4392 161.526 95.0715 161.526 95.0715C163.802 95.6352 162.173 92.8172 162.735 91.9075C162.267 91.8445 161.814 91.7995 161.361 91.7544Z" fill="#ECA95E"/>
<path d="M50.5918 59.8983C51.4764 60.8645 52.5646 60.7298 53.6486 60.6624C54.5666 60.5509 55.4259 60.8406 56.3681 60.6125C56.9857 60.4485 57.5833 60.3339 57.8993 59.3244C58.3213 57.9672 57.481 57.9149 57.1269 57.3698C56.1341 56.245 55.0531 55.4521 53.674 56.1929C53.482 57.3789 53.482 57.3789 54.1692 58.2653C52.764 59.6962 52.0347 57.8623 51.0419 57.2774C50.6428 57.1851 50.2215 57.1757 50.0032 57.9719C49.6988 59.0665 50.2892 59.3395 50.5918 59.8983Z" fill="#BD8258"/>
<path d="M141.14 76.1869C142.254 76.1888 143.385 76.1749 144.483 75.0792C144.681 74.8722 144.986 74.3175 144.936 74.2976C144.018 73.8692 144.204 72.2442 143.812 71.2243C142.995 71.3421 142.231 70.8727 141.375 71.3424L141.418 71.4632C141.126 71.8162 140.895 72.2742 140.727 72.8036C140.219 73.9193 139.643 75.0307 140.526 76.0305C140.743 76.0609 140.925 76.1229 141.14 76.1869Z" fill="#EDB26F"/>
<path d="M88.9724 88.3739C89.4871 88.2373 89.9158 88.9388 90.4913 88.3673C91.0835 86.987 90.1599 85.8328 90.6355 84.4283C90.7174 84.1972 90.3529 83.8202 90.1428 83.942C88.4602 84.9507 88.4883 83.1472 88.5026 81.2922C88.0319 80.723 87.5654 80.0865 86.9289 80.0131C86.9747 83.3397 87.2505 86.4951 88.9724 88.3739Z" fill="#B5794F"/>
<path d="M153.221 86.7423C153.186 87.5668 152.511 87.8453 152.692 89.2738C152.983 91.3672 150.858 93.5294 149.245 93.1421C148.913 93.0539 148.579 92.9993 148.263 92.929C148.375 93.3071 148.486 93.6853 148.597 94.0634C150.154 94.5316 151.609 93.6605 152.981 91.9408C154.241 91.4962 154.509 89.3533 155.324 88.1893C155.53 87.0549 154.767 87.3785 154.603 86.7609C154.148 86.7495 153.694 86.738 153.221 86.7423Z" fill="#D27C38"/>
<path d="M115.922 60.1394C116.082 58.9178 115.831 58.3453 115.087 58.3665C114.393 58.4076 113.707 58.3142 113.019 58.2545C111.97 59.117 110.674 59.34 110.173 61.6877C112.093 61.2 113.999 60.6608 115.922 60.1394Z" fill="#B26A35"/>
<path d="M71.6928 51.5962C68.941 52.9769 66.3238 54.906 64.2594 58.7928C67.0249 57.4636 69.599 55.4138 71.6928 51.5962Z" fill="#F7D9B1"/>
<path d="M150.522 88.9024C151.577 89.3056 151.821 87.2793 152.549 86.7004C151.007 85.457 147.992 86.1802 147.119 87.9987C146.948 88.3086 146.949 88.5617 147.121 88.7917C147.231 88.9167 147.323 89.0574 147.434 89.1824C148.482 88.6066 149.437 89.7965 150.522 88.9024Z" fill="#B56834"/>
<path d="M121.898 90.4087C122.2 90.4276 122.505 90.4128 122.722 89.9033C122.867 89.2038 122.579 88.9496 122.327 88.6639C122.12 88.4655 121.927 88.3184 121.7 88.1693C120.979 87.8207 120.359 86.9385 119.456 87.3546C117.871 86.5304 116.305 85.6567 114.93 84.1706C114.799 83.8419 114.594 83.6098 114.387 83.4113C114.162 83.2286 113.973 83.0143 113.674 83.215C113.463 83.0838 113.234 82.9682 113.022 82.837L113.042 82.7876C112.874 85.2235 114.682 84.3577 114.985 85.9962C116.095 87.6851 117.607 88.3192 118.998 89.2832C119.904 89.9133 120.924 90.0612 121.898 90.4087Z" fill="#753E33"/>
<path d="M123.877 91.1394C124.543 92.9018 122.847 92.7793 122.854 94.0114C124.095 93.3294 125.227 91.949 126.657 91.7345C125.509 91.4773 125.959 89.9363 125.874 88.8681C126.271 87.9142 126.531 86.9856 126.169 86.0351C125.817 85.4564 125.503 84.8125 124.953 84.6939C124.514 85.2402 124.435 85.9776 124.404 86.735C124.7 88.2212 123.935 89.6583 123.877 91.1394Z" fill="#E2A15F"/>
<path d="M106.488 88.065C105.73 89.4013 104.888 90.1756 103.896 89.5907C103.192 89.5131 103.242 90.3261 103.214 91.0498C104.225 92.1588 105.348 92.8193 106.689 92.6836C106.808 92.6741 106.909 92.6804 107.043 92.6888C108 92.2254 108.332 91.2337 108.066 89.8168C107.53 89.2097 106.992 88.6363 106.488 88.065Z" fill="#F0B878"/>
<path d="M128.066 60.1876C128.893 60.7284 129.299 58.8134 130.177 58.8007C131.055 58.7879 130.897 59.436 130.843 60.31C131.098 60.8152 131.418 60.8183 131.786 60.335C131.848 60.1533 131.925 59.9894 131.987 59.8077C131.786 58.4285 132.484 56.4473 131.387 55.6366C131.152 55.622 130.916 55.6073 130.697 55.6105C129.809 57.951 128.764 56.2999 127.798 56.6446C127.392 57.193 126.656 56.8266 126.492 57.8287C126.383 58.4968 126.954 58.2792 127.268 58.3831C127.443 59.0858 127.71 59.6761 128.066 60.1876Z" fill="#E8A15A"/>
<path d="M88.8976 53.0226C88.2947 52.9513 87.6896 52.9136 87.0867 52.8422C85.047 53.6262 83.1755 55.5005 81.2504 56.8821C80.5089 57.4096 80.7097 58.2488 80.5785 58.9999C80.8243 58.8465 81.07 58.693 81.3158 58.5396C82.9814 56.72 84.7565 56.392 86.5379 55.9631C87.1143 54.5649 87.923 54.0417 88.8179 53.76C88.9513 53.5152 88.9838 53.2642 88.8976 53.0226Z" fill="#C88D56"/>
<path d="M119.256 88.675C117.781 87.9757 116.546 86.3972 114.983 86.0298C114.982 86.8565 114.948 87.6811 115.226 88.3564C116.14 89.392 117.056 90.3939 117.97 91.4294C118.273 90.3684 119.251 90.1088 119.256 88.675Z" fill="#C9814B"/>
<path d="M69.111 80.3031C68.5238 80.2496 67.9545 80.1804 67.3673 80.1269C64.7917 80.3039 62.2267 80.3128 59.7266 79.8195C60.5841 81.7626 62.1469 80.5103 63.314 81.0048C64.7101 81.6148 66.506 80.4107 67.5726 82.5187C68.5411 82.6803 69.0872 82.0394 69.111 80.3031Z" fill="#E8B884"/>
<path d="M63.917 58.8728C64.0385 56.9232 63.1677 57.0883 62.3789 57.0223C62.3043 56.8658 62.2234 56.8101 62.1362 56.8553C62.0333 56.8826 61.9797 56.9299 61.9776 56.9635C61.4275 58.7514 60.5243 59.1675 59.5212 59.2906C59.0716 59.4651 58.6284 59.5387 58.183 59.6459C56.7684 60.9581 55.3302 59.9405 53.8913 60.8294C56.2266 62.0716 58.7221 61.0124 61.1988 60.2556C62.1095 59.9918 62.9938 59.3383 63.917 58.8728Z" fill="#E6C19A"/>
<path d="M62.8895 52.3468C62.9103 50.9309 61.2852 50.2053 62.6566 48.2324C60.4236 48.8694 58.1769 49.4549 56.0303 51.4132C56.3675 51.6873 56.6585 52.161 57.1311 51.6168C59.3312 49.0713 60.9114 50.7894 62.5377 52.308C62.5944 52.4803 62.6574 52.5517 62.7625 52.4907C62.8476 52.4792 62.8854 52.414 62.8895 52.3468Z" fill="#F1BB7D"/>
<path d="M118.488 64.9896C118.645 64.0883 118.138 63.8374 117.991 63.204C117.854 62.4362 117.539 61.7924 117.562 60.8827C117.095 61.0729 116.594 61.261 116.127 61.4512C115.909 63.8672 115.059 64.776 113.727 64.4905C113.463 64.6597 113.276 64.9517 113.166 65.3666C114.187 66.3076 115.44 65.9639 116.595 66.1202C117.26 66.0098 117.971 66.2397 118.488 64.9896Z" fill="#D18D52"/>
<path d="M87.0088 57.6121C85.1749 58.3414 83.3316 58.9521 81.5199 60.1383C82.4411 60.2463 83.3287 60.3523 84.2499 60.4603C85.0074 61.0305 85.8907 60.6638 86.7247 60.817C87.1344 60.7413 87.4442 60.3725 87.6363 59.7265C87.8241 58.6078 87.5057 58.0311 87.0088 57.6121Z" fill="#AF7144"/>
<path d="M87.0324 60.4819C86.1049 60.4747 85.1596 60.4833 84.2321 60.4761C87.0568 61.4451 89.9601 61.4235 92.9442 60.9177C92.7961 60.8579 92.6479 60.7981 92.5177 60.7224C92.1866 59.8076 92.2767 58.3622 91.4111 58.1733C89.9586 59.0108 88.4639 59.4407 87.0324 60.4819Z" fill="#DD9D57"/>
<path d="M91.9287 90.7514C91.456 90.7557 91.0012 90.7442 90.5285 90.7485C91.2146 91.9217 92.1002 92.6011 93.0079 93.1976C93.4806 93.1933 93.9512 93.2226 94.4238 93.2183C94.8134 92.6521 95.3554 92.6184 95.7019 91.9313C95.5608 89.8642 94.8727 89.2645 93.6008 89.9108C93.042 90.2134 92.5032 90.4666 91.9287 90.7514Z" fill="#EEB97B"/>
<path d="M71.2502 49.2234C72.2754 49.5573 72.8917 48.0603 73.5754 47.1075C73.8159 46.7682 74.0364 46.4782 74.3273 46.412C74.365 45.8069 74.3712 45.1662 73.9301 45.2062C72.5908 45.3083 71.2997 44.6374 69.9081 45.5798C70.3014 47.9327 71.7591 46.2013 72.8747 46.7095C72.1994 47.5279 71.7605 48.0742 71.3036 48.6362C71.123 48.8274 71.1104 49.0291 71.2502 49.2234Z" fill="#F3C58C"/>
<path d="M140.143 100.859C140.517 99.735 141.069 99.5332 141.704 99.6402C142.344 99.1065 143.007 99.0297 143.663 98.5138C143.746 97.996 143.597 97.683 143.394 97.4172C143.014 97.0224 142.61 96.7441 142.145 96.6139C141.065 96.6141 140.03 95.9084 138.924 97.1387C139.123 98.5514 139.226 100.144 140.143 100.859Z" fill="#BE7B48"/>
<path d="M130.471 91.4491C129.582 92.9965 128.359 92.043 127.341 93.4812C126.787 94.2565 127.024 94.7774 126.886 95.3762C127.496 96.1397 128.228 96.0335 129.001 95.5418C129.652 94.3001 131.443 93.9899 130.471 91.4491Z" fill="#EAA55D"/>
<path d="M131.369 55.6523C132.149 56.6795 130.837 59.0442 131.97 59.8234C132.225 59.2487 132.545 58.7119 132.751 58.1174C133.874 54.7117 133.665 54.007 131.563 53.8929C130.992 53.8573 130.416 53.8889 129.825 53.9026C130.474 54.8542 131.345 54.6891 132.227 54.6091C132.062 55.3581 131.657 55.3666 131.369 55.6523Z" fill="#EDAE6A"/>
<path d="M118.998 94.4292C119.494 94.0552 120.005 93.699 120.501 93.3249C119.333 90.9575 117.379 92.523 115.849 91.9046C116.054 93.2165 116.535 94.1576 117.088 95.0356C117.745 95.3128 118.368 95.3348 118.998 94.4292Z" fill="#EBAD69"/>
<path d="M63.1246 90.5424C63.4943 90.5655 63.8735 90.7072 64.2179 90.0538C64.6075 89.4876 65.0717 89.0778 65.2449 88.1944C65.2616 87.9255 65.2091 87.686 65.1187 87.5117C64.1564 86.7093 63.2549 85.4721 61.9674 87.1803C61.4234 87.7875 60.5789 87.8024 60.4689 89.2971C60.6329 89.9147 61.0404 89.8727 61.3881 89.9787C61.8966 90.4828 62.7126 89.5719 63.1246 90.5424Z" fill="#F2C48C"/>
<path d="M64.3195 83.0078C62.9498 82.7874 61.6483 82.8244 60.3388 84.6156C59.5638 85.6809 58.6666 84.9163 57.8179 84.9984C57.8643 85.8786 58.2383 86.3744 58.6145 86.8365C59.4529 88.0023 60.1699 85.4318 60.9945 86.0062C61.673 85.4074 62.3726 85.5522 63.0637 85.2916C63.7884 85.033 64.5037 84.6558 64.3195 83.0078Z" fill="#CD894F"/>
<path d="M143.327 97.9529C143.398 98.1767 143.468 98.4004 143.554 98.642C143.391 98.8174 143.381 98.9855 143.525 99.1125C143.842 98.8961 143.954 98.4476 144.017 97.9791C144.888 97.2741 145.977 96.8527 145.726 94.6605C145.185 93.8676 144.705 92.8929 143.871 92.7397C143.451 94.0633 142.805 95.2377 142.809 96.7902C142.859 97.3501 143.093 97.6515 143.327 97.9529Z" fill="#CC854A"/>
<path d="M106.48 72.7617C106.541 73.9465 104.767 72.0813 105.519 74.3721C107.093 73.2048 108.549 74.2066 110.045 74.0299C111.03 73.9226 111.985 74.0327 112.962 74.0598C113.093 73.8487 113.106 73.647 113.035 73.4233C112.75 73.1355 112.31 73.4286 112.03 73.04C110.181 72.9248 108.331 72.8433 106.48 72.7617Z" fill="#7A4C48"/>
<path d="M140.372 71.4655C138.813 71.5708 137.252 71.7098 135.693 71.8151C136.028 72.9495 136.611 73.6101 137.267 74.174C137.531 74.5448 137.893 74.4155 138.212 74.4522C139.214 74.076 139.994 73.1966 140.372 71.4655Z" fill="#B5794F"/>
<path d="M123.682 99.4114C123.286 97.0922 122.02 97.9244 120.964 97.808C120.328 97.7346 119.69 97.408 119.018 97.3661C118.943 97.2096 118.862 97.154 118.791 97.217C118.704 97.2622 118.666 97.3273 118.662 97.3945C120.116 98.9699 121.61 100.446 123.682 99.4114Z" fill="#F4C78E"/>
<path d="M137.661 88.9784C138.011 90.1306 138.394 91.2849 138.744 92.4371C138.71 93.8016 139.19 94.4895 139.855 94.919C140.388 95.3065 140.785 95.9724 141.24 96.5238C141.561 96.78 141.879 97.1035 142.294 96.927C142.424 96.7494 142.506 96.5183 142.54 96.2336C142.49 95.4206 142.165 94.9449 141.84 94.4691C141.511 94.0606 141.24 93.5375 140.951 93.0302C140.861 92.8559 140.735 92.713 140.609 92.5702C139.919 92.0042 139.609 90.7532 138.936 90.1714C138.653 89.5633 138.355 88.9373 138.072 88.3292C137.792 88.2273 137.582 88.3492 137.661 88.9784Z" fill="#6F3930"/>
<path d="M151.865 98.485C152.529 95.675 152.235 94.9818 150.493 95.0588C149.935 95.0747 149.394 94.8216 148.844 94.7031C148.834 94.8711 148.841 95.0234 148.849 95.1757C149.21 95.8731 149.556 96.5527 150.049 97.0389C150.642 97.5315 151.254 98.0082 151.865 98.485Z" fill="#EAA45C"/>
<path d="M124.999 65.8172C125.049 65.0105 125.297 64.2835 125.592 63.6102C125.547 63.523 125.504 63.4022 125.459 63.315C125.153 63.0767 124.864 63.1093 124.55 63.5453L124.516 63.8299L124.481 64.1146C123.911 64.872 123.175 64.2188 122.626 65.18C121.713 65.4775 121.998 64.4323 122.137 63.5468C121.268 63.965 120.889 64.9031 120.758 66.194C122.177 66.4343 123.563 66.3857 124.999 65.8172Z" fill="#E6A25F"/>
<path d="M140.197 94.2992C139.462 94.1859 139.075 93.352 138.744 92.4371C138.454 94.1231 138.561 95.6482 138.892 97.103C140.019 97.1563 141.18 97.2118 142.307 97.2652C142.436 97.0876 142.447 96.9196 142.374 96.7294C142.051 96.5068 141.727 96.2842 141.404 96.0616C141.327 95.9387 141.25 95.8158 141.134 95.7917C140.25 95.6185 140.052 95.2856 140.197 94.2992Z" fill="#A2582E"/>
<path d="M101.104 55.3354C99.6876 54.2349 98.6347 57.8642 97.0378 56.4149C97.285 58.1344 98.6809 57.6646 97.947 59.4242C99.2882 58.7485 100.218 57.1024 101.104 55.3354Z" fill="#EBA44E"/>
<path d="M53.8913 60.8293C55.4248 60.5875 56.9322 61.0357 58.513 60.3075C59.0979 59.8547 59.4308 59.1162 59.2163 58.2255C58.9609 57.1804 58.2844 57.2057 57.6154 57.3833C57.4074 57.4716 57.2089 57.6786 57.0577 57.9391C57.2742 58.2563 57.4885 58.6071 57.7049 58.9243C57.393 59.3266 57.16 59.8183 56.6673 59.8719C55.6842 59.9456 54.6579 59.8985 53.6507 60.6288C53.7096 60.7674 53.7904 60.8231 53.8913 60.8293Z" fill="#C48E65"/>
<path d="M137.661 88.9783C137.81 88.7514 137.959 88.5245 138.09 88.3133C137.907 86.3785 136.618 85.134 137.331 82.6308C137.355 82.5142 136.859 81.8084 136.414 81.9157C136.099 82.0985 135.801 82.2655 135.961 82.9504C136.423 85.0206 136.681 87.3651 137.661 88.9783Z" fill="#774845"/>
<path d="M138.281 67.6572C137.297 68.0177 136.381 68.6355 135.611 69.8867C136.526 70.6354 137.599 70.1962 138.619 70.3441C139.25 69.9784 139.802 69.2367 139.699 68.1842C139.59 66.9458 138.847 67.5069 138.281 67.6572Z" fill="#AF7249"/>
<path d="M126.187 86.0193C126.211 86.9826 125.597 87.906 125.892 88.8523C127.201 88.9676 128.164 90.563 129.552 90.2277C128.423 88.8414 127.297 87.4214 126.187 86.0193Z" fill="#F2C187"/>
<path d="M141.544 94.8893C141.837 95.3293 142.132 95.7358 142.426 96.1759C142.593 96.4731 142.624 97.0487 143.029 96.7871C142.917 95.3291 144.459 94.4129 143.851 92.7891C143.528 92.5665 143.202 92.3775 142.879 92.1548C142.368 92.2243 142.077 92.8304 141.784 93.4701C141.642 93.5962 141.546 93.7759 141.466 93.9733C141.396 94.2895 141.409 94.6278 141.544 94.8893Z" fill="#A35A2E"/>
<path d="M50.5918 59.8983C50.8553 59.1892 49.3204 57.5583 51.1869 57.6577C51.2289 57.5253 51.2709 57.393 51.3308 57.2449C51.2803 56.9718 51.192 56.7638 51.0481 56.6367C50.4913 56.3658 49.8779 56.4626 49.2729 56.4249C48.5996 56.6697 47.8801 56.5743 47.3814 57.8086C48.539 58.1844 49.2525 60.0005 50.5918 59.8983Z" fill="#C48A5D"/>
<path d="M125.743 77.7076C127.084 80.5582 129.335 79.9055 131.143 80.9461C131.229 80.6478 131.299 80.3316 131.385 80.0332C129.509 79.2752 127.599 78.5151 125.723 77.757L125.743 77.7076Z" fill="#7D514E"/>
<path d="M138.789 70.0677C137.729 70.0185 136.653 69.9515 135.593 69.9023C135.33 70.0715 135.066 70.2406 134.818 70.4277C136.958 71.0165 139.348 70.0182 141.391 71.3603C142.316 71.4011 143.257 71.4597 144.165 71.5163C144.189 71.3997 144.231 71.2673 144.255 71.1507C144.202 70.9112 144.072 70.8356 143.934 70.8945C142.801 70.6552 141.687 70.4001 140.554 70.1609C140.45 69.935 140.308 69.7744 140.147 69.663C139.673 69.4142 139.235 69.6737 138.789 70.0677Z" fill="#87503D"/>
<path d="M145.708 94.6763C145.43 96.1606 144.589 96.9349 143.999 97.9949C145.061 98.0104 146.109 98.2613 147.205 97.4523C146.82 96.3316 146.394 95.3096 145.708 94.6763Z" fill="#E4A25F"/>
<path d="M72.8779 81.044C71.9138 81.895 71.6209 83.0747 71.9416 84.6975C72.8806 84.2498 73.7533 83.5112 74.5052 82.2758L74.4873 82.2916C74.0356 81.9597 73.5618 81.7109 73.2077 81.1658C73.1111 81.0923 72.9945 81.0681 72.8779 81.044Z" fill="#F4C892"/>
<path d="M113.18 65.4181C113.345 65.2091 113.51 65 113.657 64.8067C113.949 64.4537 114.768 64.3023 114.434 63.7079C113.901 62.7804 114.879 62.5208 114.661 61.9505C113.79 61.8624 112.945 62.4172 112.101 62.9719C111.613 64.5781 112.357 64.8101 112.884 65.2984C112.978 65.4056 113.077 65.4455 113.18 65.4181Z" fill="#AC6637"/>
<path d="M102.337 47.7356C103.366 48.0022 103.397 49.4045 103.427 50.8068C104.131 49.8046 104.708 48.6595 105.199 47.0198C104.164 47.1071 103.272 47.0684 102.337 47.7356Z" fill="#F2B970"/>
<path d="M138.329 74.1896C137.975 74.1845 137.621 74.1793 137.267 74.1741C138.251 75.1802 139.298 75.9709 140.544 76.0148C140.131 74.7912 140.539 73.9224 141.212 73.1377C140.167 71.7734 139.288 74.2325 138.329 74.1896Z" fill="#DCAC7D"/>
<path d="M60.8748 85.7625C60.0228 85.0851 59.4381 87.1577 58.6303 86.8543C58.6755 87.4814 58.9077 87.8164 59.2492 88.0233C59.8995 88.688 60.5854 88.7814 61.3405 87.7655C61.6785 86.673 61.6773 85.88 60.8748 85.7625Z" fill="#DA9C61"/>
<path d="M129.001 95.5418C128.302 95.3969 127.65 95.0189 126.886 95.3762C126.597 95.9487 126.29 96.537 125.986 97.0917C125.872 98.1137 126.214 98.0338 126.654 97.7407C127.537 97.3739 128.296 96.5776 129.001 95.5418Z" fill="#EFB776"/>
<path d="M118.488 64.9897C117.902 65.7293 117.162 65.1433 116.611 66.1381C117.579 66.8396 118.705 66.0999 119.743 66.2321C119.893 65.7184 120.489 65.6374 120.398 64.9232C120.315 64.3612 119.964 64.5756 119.689 64.6596C119.291 64.8204 118.881 64.8961 118.488 64.9897Z" fill="#E6A25F"/>
<path d="M118.63 97.3587C118.749 97.3493 118.883 97.3576 119.002 97.3482C119.022 96.7589 117.896 96.4188 119.081 95.531C119.789 95.0014 119.427 94.5908 118.98 94.4449C118.346 94.3378 117.715 94.4503 117.103 95.0534C117.497 96.0396 117.874 97.0417 118.63 97.3587Z" fill="#F1BE7F"/>
<path d="M150.152 67.7558C150.763 69.5991 151.778 70.101 153.091 69.6092C152.458 67.8488 151.273 67.91 150.152 67.7558Z" fill="#FBE6C8"/>
<path d="M123.001 83.5263C122.803 84.2732 122.605 85.02 122.406 85.7669C122.449 85.8877 122.477 85.9906 122.502 86.1272C122.852 86.7395 123.31 86.9705 123.869 86.6679C125.883 84.1276 123.754 84.4505 123.353 83.5651C123.237 83.541 123.118 83.5504 123.001 83.5263Z" fill="#C67B42"/>
<path d="M49.127 56.8713C49.8308 56.9489 50.5188 57.0087 51.2226 57.0863C51.4233 57.3856 51.5745 57.1251 51.7278 56.8309C51.776 56.5977 51.7729 56.3782 51.7182 56.1723C50.6856 55.6862 49.632 55.5362 48.4861 56.3252C48.6091 56.7884 48.9778 56.5583 49.127 56.8713Z" fill="#8D5947"/>
<path d="M138.954 90.1556C139.327 91.478 139.607 92.9464 140.692 93.1322C141.403 91.7423 140.528 91.4347 140.305 90.6785C139.959 89.9989 139.422 90.2186 138.954 90.1556Z" fill="#9F562E"/>
<path d="M138.789 70.0677C139.243 70.0792 139.696 70.1243 140.151 70.1357C140.762 68.9928 140.308 68.1547 140.129 67.2324C139.88 67.1663 139.629 67.1338 139.38 67.0677C139.004 67.1455 138.603 67.0867 138.281 67.6571C139.64 67.5056 139.597 68.4647 138.789 70.0677Z" fill="#C68A59"/>
<path d="M123.353 83.5651C123.13 84.7153 125.411 84.3851 123.731 86.44C123.592 87.5786 124.022 87.4536 124.485 87.3306C124.559 87.2339 124.632 87.1373 124.722 87.0585C124.821 86.2717 124.905 85.4671 124.987 84.6961C124.564 83.8937 124.054 83.4232 123.353 83.5651Z" fill="#CE8A50"/>
<path d="M108.05 89.7989C107.833 90.8482 107.679 91.9691 107.028 92.6708C107.263 92.6855 107.514 92.718 107.749 92.7327C108.704 91.763 109.71 90.7796 108.05 89.7989Z" fill="#F3C790"/>
<path d="M154.621 86.7452C154.352 87.8083 155.088 87.3817 155.206 87.9121C155.637 89.6599 156.508 89.4948 157.486 88.6953L157.577 88.5829C156.691 87.6503 155.718 87.016 154.621 86.7452Z" fill="#E7974A"/>
<path d="M120.035 76.1709C120.18 76.0112 120.327 75.8179 120.472 75.6582C119.783 74.5187 118.916 74.3634 117.625 74.7722C118.396 75.9338 119.364 75.5555 120.035 76.1709Z" fill="#784B47"/>
<path d="M114.273 83.8934C114.486 83.991 114.699 84.0887 114.928 84.2042C116.121 82.9288 117.316 84.6061 118.509 83.3306C117.129 83.2784 115.733 83.2083 114.352 83.156C114.136 83.3787 114.103 83.6298 114.273 83.8934Z" fill="#CD9161"/>
<path d="M134.427 81.5726C133.693 80.6326 132.715 80.8922 131.822 80.6004C132.274 82.012 133.245 81.6001 133.959 82.0495C134.133 81.9592 134.337 81.9381 134.427 81.5726Z" fill="#7D514E"/>
<path d="M112.902 65.2827C112.556 64.6032 112.194 63.9058 112.119 62.9562C111.618 63.1443 111.15 63.3345 110.649 63.5227C111.225 64.5709 111.962 65.1905 112.902 65.2827Z" fill="#C3824F"/>
<path d="M55.9036 53.7167C54.8741 53.4501 53.8849 54.7045 52.8639 54.8433C52.7348 55.0209 52.5878 55.2142 52.4586 55.3917C52.5931 55.94 52.8831 56.1605 53.2329 56.2329C54.2097 55.7202 55.3483 55.8586 55.9036 53.7167Z" fill="#8B5540"/>
<path d="M150.522 88.9024C149.485 89.0234 148.501 88.304 147.434 89.1823C147.493 89.321 147.556 89.3924 147.656 89.3987C148.331 89.407 149.041 89.3837 149.654 89.8269C150.073 90.1566 150.398 89.8057 150.522 88.9024Z" fill="#7B402E"/>
<path d="M140.305 90.6785C140.351 91.5587 140.873 92.1143 140.692 93.1321C140.996 93.4041 141.173 94.0732 141.683 93.7506C142.005 93.1802 142.074 92.6109 141.874 92.0248C141.426 91.3726 140.937 90.8191 140.305 90.6785Z" fill="#8A3D19"/>
<path d="M49.127 56.8713C48.9022 56.6886 48.711 56.508 48.504 56.3095C47.5681 56.4368 46.7605 57.2132 45.9193 57.9875C45.954 58.2427 46.0443 58.417 46.2082 58.4947C46.5947 58.2489 46.9791 58.0366 47.3656 57.7908C47.9096 57.1835 48.5293 56.9859 49.127 56.8713Z" fill="#7A483E"/>
<path d="M113.025 73.5914C112.999 73.7416 112.972 73.8918 112.962 74.0599C113.85 74.1658 114.737 74.2717 115.609 74.3598C116.01 74.4185 116.453 75.1716 116.788 73.8596C116.37 73.783 115.938 73.6885 115.521 73.6119C114.697 73.2906 113.901 73.0723 113.025 73.5914Z" fill="#673430"/>
<path d="M111.073 81.6356C111.592 82.5116 111.943 83.9169 113.058 82.8054L113.038 82.8548C112.499 82.0282 111.962 81.168 111.122 81.1157C110.975 81.309 110.964 81.477 111.073 81.6356Z" fill="#815653"/>
<path d="M134.427 81.5726C134.282 81.7322 134.12 81.9077 133.959 82.0495C134.599 82.3425 135.272 82.6375 135.912 82.9305C136.051 82.5848 136.225 82.2413 136.364 81.8957C135.73 81.7887 135.078 81.6974 134.427 81.5726Z" fill="#794B48"/>
<path d="M61.3551 87.5302C60.6389 88.1942 59.9372 88.083 59.2334 88.0054C59.5077 88.748 59.8996 89.2279 60.471 89.2636C60.995 88.7057 61.5369 88.1321 62.0767 87.5921C62.0316 87.5049 61.9864 87.4177 61.9412 87.3305C61.7458 87.2171 61.5441 87.2046 61.3551 87.5302Z" fill="#E8B175"/>
<path d="M113.025 73.5914C113.852 73.5923 114.678 73.5932 115.503 73.6277C114.442 72.7855 113.227 73.064 112.03 73.0401C112.246 73.644 112.659 73.5011 113.025 73.5914Z" fill="#805551"/>
<path d="M131.786 60.335C131.465 60.3319 131.163 60.313 130.843 60.31C130.855 61.1881 129.867 61.6158 130.223 62.6672C130.866 62.0998 131.416 61.3918 131.786 60.335Z" fill="#EDAE6A"/>
<path d="M111.073 81.6356C111.083 81.4676 111.094 81.2995 111.12 81.1493C110.939 80.2607 110.427 80.077 109.954 79.8281C109.587 79.4847 109.495 79.8838 109.461 80.4217C109.932 80.9909 110.361 81.6925 111.073 81.6356Z" fill="#7F5451"/>
<path d="M114.273 83.8934C114.305 83.6424 114.338 83.3913 114.37 83.1403C114.46 82.2348 114.422 81.2201 113.759 81.5837C113.235 81.8548 113.692 82.6593 113.687 83.2664C113.879 83.4471 114.068 83.6613 114.273 83.8934Z" fill="#E9C9A7"/>
<path d="M42.4504 61.3987C42.9755 61.094 43.5554 60.9951 44.032 59.8438C43.2851 59.6454 42.7191 60.3356 42.1478 60.8399C42.0491 61.3399 42.044 61.6939 42.4504 61.3987Z" fill="#67332F"/>
<path d="M42.4504 61.3987C42.3443 61.2065 42.2539 61.0321 42.1478 60.8399C41.5102 61.0532 40.9841 61.6447 40.4832 62.3727C40.5872 62.5986 40.7249 62.8265 40.8289 63.0523C41.3687 62.5123 41.9106 61.9387 42.4504 61.3987Z" fill="#784B47"/>
<path d="M46.2082 58.4947C46.1178 58.3203 46.0096 58.1618 45.9193 57.9874C45.4025 58.1577 44.8973 58.413 44.4332 59.3626C45.1223 59.6755 45.6432 58.8981 46.2082 58.4947Z" fill="#693532"/>
<path d="M141.857 92.0405C141.787 92.6099 141.718 93.1792 141.665 93.7664C142.826 94.9017 142.281 92.2695 142.879 92.1548C142.545 92.1003 142.193 92.0615 141.857 92.0405Z" fill="#9F562E"/>
<path d="M126.652 97.7744C126.369 97.7061 126.105 97.6222 125.984 97.1253C125.22 97.1959 125.182 98.0877 125.109 98.9774C125.664 98.742 126.203 98.4887 126.652 97.7744Z" fill="#F2BF81"/>
<path d="M139.044 84.6441C138.793 83.5318 138.399 83.0854 137.371 83.6118C138.152 84.0655 138.606 84.3637 139.044 84.6441Z" fill="#977472"/>
<path d="M164.685 93.1088C164.456 94.0731 164.243 95.0552 164.015 96.0196C164.474 95.1371 165.823 94.6138 164.685 93.1088Z" fill="#F5CE95"/>
<path d="M63.1246 90.5425C62.8595 88.8388 62.0173 89.8998 61.3902 89.9451C61.696 90.7234 62.2506 90.488 62.7349 90.5688C62.8535 90.5593 62.9901 90.5341 63.1246 90.5425Z" fill="#F6D1A1"/>
<path d="M145.41 88.0777C144.995 86.8877 144.201 87.7155 143.615 87.3753C144.079 88.3321 144.792 87.9885 145.43 88.0283L145.41 88.0777Z" fill="#825855"/>
<path d="M109.461 80.4218C109.626 80.2127 109.789 80.0373 109.954 79.8282C109.584 79.2652 109.25 78.6708 108.614 78.8505C108.503 80.0921 109.059 80.1099 109.461 80.4218Z" fill="#815653"/>
<path d="M116.77 73.8754C116.372 74.0361 115.989 74.2148 115.591 74.3756C115.979 74.9227 116.487 74.8869 116.974 74.9341C117.225 74.9666 117.475 74.746 117.417 74.3206C117.363 73.828 117.061 73.8091 116.77 73.8754Z" fill="#805551"/>
<path d="M53.0994 55.9379C52.8925 55.7394 52.6834 55.5745 52.4764 55.376C52.154 55.4065 51.9198 55.645 51.7518 56.1744L51.7161 56.206C51.9747 57.4706 52.4777 56.709 52.9419 56.2992C52.9661 56.1826 53.0238 56.0681 53.0994 55.9379Z" fill="#68352F"/>
<path d="M150.033 97.0211C149.783 96.1619 149.439 95.4488 148.833 95.1579C148.965 96.2797 149.273 97.0244 150.033 97.0211Z" fill="#FAE4C7"/>
<path d="M141.266 86.0817C141.366 86.9146 141.933 87.0174 142.127 86.6246C142.415 86.052 141.865 86.2202 141.69 86.0574C141.595 85.9503 141.448 85.6037 141.266 86.0817Z" fill="#7D514D"/>
<path d="M147.105 88.7738C147.104 88.5207 147.105 88.2339 147.104 87.9808C146.528 88.0124 145.986 88.0461 145.41 88.0777L145.448 88.0126C145.743 89.2457 146.566 88.4872 147.105 88.7738Z" fill="#7E5350"/>
<path d="M73.2277 81.1164C73.4001 82.1395 73.8938 82.339 74.5073 82.2422C74.1973 81.5312 73.7634 81.1836 73.2277 81.1164Z" fill="#F6D1A0"/>
<path d="M65.1576 87.6998C65.145 87.9014 65.1167 88.0853 65.0863 88.3027C65.1536 88.8468 65.3186 89.1776 65.7051 88.9318C65.9515 86.8719 66.7208 88.607 67.1597 88.0607C67.6962 86.7613 68.5764 86.175 69.2758 85.24C69.6076 84.7883 70.5277 84.6432 69.8416 83.47C69.8101 83.4343 69.8678 83.3198 69.9487 83.3754C70.3511 83.6873 70.7377 83.9814 71.2186 83.3027C70.5798 82.1831 70.4187 80.1653 69.111 80.3032C68.773 81.3956 68.2384 82.1216 67.5547 82.5345C67.245 83.4432 67.0326 82.5188 66.7732 82.6208C66.4761 83.3278 66.8145 84.3949 65.7852 84.6682C64.2569 85.096 64.1751 85.867 65.1576 87.6998Z" fill="#F3C58C"/>
<path d="M88.4869 81.2743C88.446 81.6598 88.4702 82.0831 88.3484 82.4129C87.5054 84.8405 87.9582 85.4255 89.3982 84.7898C89.7112 84.6406 90.0788 84.1573 90.3992 84.7003C89.9162 85.4126 89.1936 86.1774 90.2116 86.8988C90.5352 87.1215 90.5448 87.7801 90.4734 88.383C91.6216 88.6401 92.364 87.286 93.1652 86.0706C91.9095 83.7484 89.7047 83.6616 88.4869 81.2743Z" fill="#A96A41"/>
<path d="M95.3384 85.5818C96.5636 82.4356 96.509 82.2298 94.4586 82.102C93.3651 82.0507 92.2695 82.0331 91.176 81.9818C92.4882 83.3965 93.559 85.4372 95.3384 85.5818Z" fill="#B46D3D"/>
<path d="M65.1576 87.6998C64.6319 85.3049 64.6319 85.3049 67.6202 84.7319C67.8721 83.3979 66.5193 83.9884 66.8068 82.6229C66.2438 82.4528 65.558 83.4392 65.1083 82.5339C65.0821 82.6841 65.038 82.8501 65.0118 83.0003C64.7935 84.3364 64.2064 84.8229 63.468 85.0299C62.6267 85.2643 62.1038 86.0753 62.0452 87.5564L62.061 87.5743C62.6913 87.7485 63.7517 85.3513 64.0295 87.9331C64.0369 88.0855 64.7637 87.7933 65.1576 87.6998Z" fill="#E8B175"/>
<path d="M86.4969 55.8088C84.6492 55.4068 82.8625 55.6498 81.3179 58.5061C83.5141 57.6476 85.6946 56.7711 87.8908 55.9125C87.8299 55.8075 87.8025 55.7046 87.7416 55.5995C87.3434 55.2204 86.9275 55.397 86.4969 55.8088Z" fill="#B67F59"/>
<path d="M114.679 61.9348C113.738 62.416 114.566 64.2898 113.657 64.8068C114.315 65.877 115.397 64.2235 116.103 65.3473C115.71 64.0743 116.575 62.6435 116.125 61.4849C115.643 61.6237 115.145 61.7782 114.679 61.9348Z" fill="#C3824F"/>
<path d="M87.0088 57.6122C87.157 58.2119 87.3388 58.8138 87.4871 59.4135C88.253 60.3892 89.1782 59.3502 89.988 59.0801C90.9007 58.7826 90.2871 57.7996 90.1609 57.1168C90.0296 56.7881 89.8604 56.5245 89.6514 56.3596C89.4875 56.2819 89.3331 56.3229 89.1724 56.4647C88.4393 56.8577 87.724 57.2349 87.0088 57.6122Z" fill="#AB6531"/>
<path d="M89.1724 56.4648C89.289 56.4889 89.4056 56.513 89.5222 56.5372C90.1116 57.0969 90.7039 56.2565 91.3194 56.1261C91.4759 56.0515 91.6324 55.9769 91.7909 55.8687C92.523 55.2226 93.4116 55.0417 93.8241 53.5658C93.8587 53.2812 93.7862 53.0911 93.6244 52.9797C93.0929 52.8454 92.5404 53.0472 91.9837 53.3162C91.5258 53.6251 91.0973 54.0033 90.6415 54.2786C90.1122 54.6505 89.5544 54.6664 89.0346 55.157C88.9033 55.3682 88.855 55.6014 88.8719 55.8724C88.9602 56.0803 89.0663 56.2725 89.1724 56.4648Z" fill="#7E4633"/>
<path d="M117.56 60.9163C116.919 62.2767 117.108 63.0309 117.989 63.2376C118.495 62.9823 119 62.7269 119.576 62.4086C118.949 61.9139 118.188 61.9508 117.885 60.8522C117.8 60.8638 117.681 60.8732 117.56 60.9163Z" fill="#DE9E60"/>
<path d="M120.555 59.1627C120.752 58.7026 121.023 58.6857 121.276 58.6846C121.392 58.9955 121.513 58.9524 121.639 58.5553C121.571 58.0112 121.538 57.4692 121.47 56.9251C120.405 56.69 120.28 57.8802 120.167 59.1554C120.319 59.148 120.454 59.1564 120.555 59.1627Z" fill="#E9A159"/>
<path d="M88.8719 55.8724C88.916 55.7064 88.96 55.5405 88.9863 55.3903C89.2646 54.9858 89.754 54.7126 89.361 53.9795C88.6783 54.1057 87.7717 53.7624 87.8792 55.8274L87.875 55.8947C88.2112 55.9156 88.5336 55.8851 88.8719 55.8724Z" fill="#C88D56"/>
<path d="M96.1684 86.8821C96.2746 87.0743 96.3786 87.3001 96.4847 87.4923C96.5541 88.0028 96.7212 88.3 97.0752 88.3052C97.426 88.0909 97.8556 87.9658 97.8586 87.1055C97.4342 86.8766 97.0098 86.6477 96.5854 86.4188C96.4583 86.5627 96.3134 86.7224 96.1684 86.8821Z" fill="#6A3630"/>
<path d="M121.911 59.3316C122.777 60.6003 123.485 62.2304 124.621 62.9424C124.659 62.8772 124.733 62.7806 124.737 62.7134C124.705 62.1377 124.999 61.2112 125.321 60.9276C125.535 60.7385 125.704 60.4622 125.646 60.0368C125.141 59.7522 125.172 58.7081 124.832 58.2145C123.891 59.2356 122.826 57.634 121.911 59.3316Z" fill="#DF9149"/>
<path d="M128.066 60.1876C128.153 59.0626 127.886 58.4723 127.234 58.381C126.811 58.9452 126.421 59.5114 125.998 60.0755C125.992 61.2562 125.735 62.4043 125.612 63.5608L125.592 63.6102C126.896 64.0795 127.75 63.6434 127.516 60.8956C127.509 60.7433 127.884 60.4124 128.066 60.1876Z" fill="#DF9149"/>
<path d="M125.612 63.5608C126.66 62.4451 126.633 61.2623 125.998 60.0755C125.879 60.085 125.779 60.0787 125.644 60.0703C125.231 61.0063 124.52 60.2365 124.036 61.2355C123.988 62.0086 124.906 61.8971 124.619 62.9759C124.607 63.1776 124.579 63.3614 124.566 63.5631C124.904 63.5504 125.258 63.5556 125.612 63.5608Z" fill="#DA8740"/>
<path d="M127.782 56.6267C128.172 57.6802 128.988 57.3093 129.592 57.6337C130.555 58.1493 130.83 56.9854 130.681 55.5926C130.299 55.7712 129.95 55.952 129.568 56.1306C128.984 56.8366 128.38 55.9722 127.782 56.6267Z" fill="#EDAE6A"/>
<path d="M120.767 56.0209C121.403 56.3811 121.729 57.6499 122.615 56.9628C122.669 56.9155 122.72 56.362 122.643 56.2391C122.152 55.4661 121.616 54.859 120.767 56.0209Z" fill="#E9A159"/>
<path d="M121.911 59.3316C122.862 58.1423 123.922 59.8112 124.83 58.2481C123.783 58.2503 122.74 57.9323 121.639 58.5554C121.518 58.5984 121.397 58.6415 121.276 58.6846C121.361 59.213 121.644 59.2812 121.911 59.3316Z" fill="#B16F42"/>
<path d="M117.349 57.5456C117.5 57.825 117.58 58.1674 117.665 58.1558C117.869 58.1348 118.164 58.0013 118.297 57.7566C118.526 57.3322 118.307 57.0486 118.07 57.0676C117.882 57.1065 117.664 57.3628 117.349 57.5456Z" fill="#EDAB65"/>
<path d="M127.782 56.6268C128.38 56.5122 128.969 57.0719 129.568 56.1306C128.97 56.2453 128.381 55.6855 127.782 56.6268Z" fill="#E8A15A"/>
<path d="M93.7421 53.257C93.2529 54.61 92.2686 54.4306 91.6974 55.4748C92.144 56.7005 92.9455 56.5649 93.7731 56.279C93.5937 57.2633 93.0202 57.2613 92.6705 57.7288C92.1002 58.4862 91.9019 59.2331 92.6834 59.6867C93.3198 58.6803 93.9009 59.9144 94.6329 59.2683C96.2419 57.8163 96.0052 55.9288 95.7748 53.9404C95.3207 52.5624 94.5403 52.9018 93.7421 53.257Z" fill="#DD9344"/>
<path d="M92.6677 59.6689C92.4239 59.2488 92.4353 58.2541 92.6664 58.336C94.0593 58.7265 94.0295 56.4975 94.8916 55.3871C93.7183 54.9934 92.5841 56.4075 91.6795 55.4906C91.5787 55.4843 91.4936 55.4959 91.4064 55.5411C91.0757 56.246 91.2197 56.913 91.2787 57.5915C91.2934 57.8961 91.5004 58.0946 91.4259 58.478C92.0236 58.9033 91.6931 60.688 92.5313 60.774C92.5565 60.3706 92.6289 60.0208 92.6677 59.6689Z" fill="#D2853A"/>
<path d="M93.7421 53.2571C94.4259 53.3841 95.2221 53.0625 95.759 53.9227C95.8671 53.5414 96.886 53.4361 96.014 52.8081C95.5781 52.4942 95.0119 52.6445 94.5098 52.5794C94.2882 52.6162 94.0666 52.653 93.8449 52.6899C93.6506 52.8296 93.6066 52.9956 93.7421 53.2571Z" fill="#7D4532"/>
<path d="M100.92 51.241C101.117 51.0676 101.329 50.9121 101.507 50.7545C101.435 50.5644 101.388 50.2241 101.272 50.2C100.825 50.0541 100.673 50.6013 100.568 51.2022C100.685 51.2263 100.801 51.2505 100.92 51.241Z" fill="#EEAF5D"/>
<path d="M144.167 71.4827C143.974 71.8755 143.78 72.2684 143.605 72.6456C143.298 73.2338 143.104 73.9135 143.288 74.4817C143.572 75.343 143.955 74.3377 144.302 74.1906C145.046 73.8827 144.577 74.6464 144.5 75.0634C145.235 74.9236 145.949 74.2932 146.823 74.3477C144.918 74.3133 146.719 71.1356 145.717 70.432C145.124 70.4793 144.626 70.887 144.167 71.4827Z" fill="#F1BE80"/>
<path d="M144.149 71.4985C144.748 71.637 145.296 71.5025 145.683 70.4299C145.579 69.6642 146.768 68.456 145.611 68.0802C144.939 68.8313 144.298 69.6518 143.918 70.8767C143.99 71.0668 144.061 71.2905 144.149 71.4985Z" fill="#EDB26F"/>
<path d="M71.2344 83.3206C70.3752 83.5707 69.7699 81.9133 68.7113 83.1971C68.8029 84.1645 69.4656 83.5478 69.7073 84.0015C68.9764 85.4407 67.2474 85.0292 67.2259 87.8118C68.0104 87.4051 67.4676 88.8054 67.7912 89.028C67.9531 89.6792 68.2418 89.1067 68.4813 89.0542C68.9086 87.8829 69.338 86.678 70.194 86.2083C70.1234 84.9048 71.0644 84.4235 71.2344 83.3206Z" fill="#F4CB97"/>
<path d="M67.7912 89.028C67.8551 88.2728 68.1396 87.2276 67.2258 87.8118C66.7144 88.1679 65.7413 85.914 65.7229 88.916C66.4393 88.7919 66.9029 90.8286 67.7912 89.028Z" fill="#F6D1A1"/>
<path d="M70.194 86.2083C68.7874 85.7663 68.6197 87.3756 68.4813 89.0541C69.186 88.3051 69.8119 87.4667 70.194 86.2083Z" fill="#F6D1A1"/>
<path d="M65.7229 88.916C65.516 88.7175 65.2932 88.5012 65.1041 88.2869C64.6126 88.5937 64.306 89.182 64.22 90.0202C64.8051 90.1073 65.3534 89.9728 65.7229 88.916Z" fill="#F6D1A1"/>
<path d="M99.8881 88.1092C99.9269 87.7573 99.9657 87.4055 100.022 87.0378C99.5517 86.4686 99.0737 86.2869 98.5971 87.4383C98.6139 87.7093 98.6843 87.933 98.8083 88.1094C99.1235 88.4665 99.4566 88.8078 99.8881 88.1092Z" fill="#E5AA6D"/>
<path d="M98.8513 87.6904C98.7547 87.6169 98.658 87.5434 98.5792 87.4541C98.3502 87.3386 98.0876 87.221 97.8586 87.1055C97.6044 87.3933 97.3503 87.6812 97.0961 87.9691C97.3169 88.7589 97.7717 88.7704 98.2685 88.6495C98.5815 88.5003 98.8315 88.2797 98.8513 87.6904Z" fill="#7C4637"/>
<path d="M95.6222 92.1289C95.1337 92.1154 94.7231 92.4778 94.4554 93.2541C96.3575 92.2422 98.1926 92.8459 100.077 92.3897C100.18 92.3623 100.348 92.3728 100.391 92.4936C102.015 97.0321 104.601 92.621 106.689 92.6836C105.503 92.4916 104.767 90.5054 103.366 91.3292C100.957 88.2772 98.2846 90.2871 95.6222 92.1289Z" fill="#F2C187"/>
<path d="M138.329 74.1896C139.322 74.7745 140.232 72.8909 141.212 73.1376C141.297 72.5861 141.367 72.0168 141.434 71.4811C141.08 71.4759 140.726 71.4707 140.388 71.4834C139.69 72.3848 138.993 73.2861 138.329 74.1896Z" fill="#D59A65"/>
<path d="M122.642 65.1979C123.296 65.2555 123.992 65.4676 124.497 64.1324C123.852 64.1935 122.961 62.2483 122.642 65.1979Z" fill="#DF9149"/>
<path d="M93.7442 53.2234C93.7389 53.0374 93.7673 52.8536 93.8292 52.6719C92.2293 52.0829 90.6703 51.1084 88.9155 53.0068L88.8809 53.2915L88.8463 53.5762C88.9535 54.0215 89.3379 53.8092 89.4651 54.2052C89.3055 54.6002 89.1459 54.9952 88.9863 55.3902C89.5913 55.4279 90.2142 55.4498 90.7687 54.6745C91.0816 53.9854 91.4797 53.8246 91.9229 53.751C92.5248 53.5692 93.1424 53.4052 93.7442 53.2234Z" fill="#DC9B52"/>
<path d="M158.818 95.7464C159.261 94.053 160.144 92.0666 157.98 92.6741C157.121 92.9243 157.116 91.1186 156.64 90.3635C156.06 90.4623 155.317 90.1967 155.546 91.9319C155.59 92.0527 155.686 92.1262 155.692 92.3121C155.613 92.2229 155.534 92.1336 155.509 91.9971C155.269 91.5097 155.036 90.9215 154.534 91.3964C154.21 91.7137 154.149 92.1486 154.322 92.6317C154.658 94.2724 154.441 96.4016 155.528 97.3804C155.877 98.8193 156.128 98.8519 157.067 97.5775C157.269 96.5103 156.913 95.9988 156.238 95.4506C157.071 95.8906 157.811 95.3968 158.406 95.8557C158.535 95.9649 158.689 95.9239 158.818 95.7464Z" fill="#E48F41"/>
<path d="M154.324 92.5981C155.044 90.2471 155.241 92.7733 155.704 92.6503C155.833 92.4728 155.846 92.2711 155.773 92.081C155.424 90.642 156.477 91.0788 156.657 90.3477C156.897 89.7552 157.495 89.6406 157.484 88.7289C156.705 88.4948 155.826 88.7943 155.204 87.9457C154.48 89.284 153.755 90.6224 152.997 91.9586C153.439 92.1718 153.882 92.3849 154.324 92.5981Z" fill="#E08A3E"/>
<path d="M156.961 96.8454C156.52 98.5051 156.035 98.1712 155.512 97.3625C155.049 97.4854 154.595 97.7271 155.158 98.4371C155.44 98.7921 155.642 99.0578 155.603 99.6964C156.244 99.4159 156.895 99.254 157.496 98.819C157.954 98.5101 158.839 98.3965 158.357 96.9155C157.913 97.2759 157.929 96.7538 157.906 96.2969C157.878 95.9408 157.836 95.5333 157.543 95.6331C157.145 95.7939 156.889 96.1154 156.961 96.8454Z" fill="#E89C4E"/>
<path d="M71.2502 49.2234C71.2785 49.0396 71.2911 48.8379 71.3194 48.6541C70.4613 49.1574 69.6285 50.3372 68.7261 49.3867C68.2985 48.9383 68.0298 50.0013 67.6611 50.2314C66.5867 50.9575 65.3829 50.7812 64.3979 52.5083C64 53.2089 63.2836 53.333 62.9053 52.3646C62.8045 52.3583 62.67 52.35 62.5513 52.3594C62.25 53.1336 61.8268 53.6978 61.3153 54.054C60.3428 55.0394 60.8661 55.8481 61.2034 56.6621C61.4356 56.9972 61.6499 57.348 62.0406 57.0349C62.1593 57.0254 62.2759 57.0495 62.3946 57.0401C62.5887 55.8205 63.12 54.875 63.7786 54.8655C66.057 54.8556 68.0744 52.5349 70.2275 51.5555C71.1308 51.1394 71.1831 50.2991 71.2502 49.2234Z" fill="#F2C186"/>
<path d="M95.6222 92.1288C97.1766 91.5508 98.77 91.1608 100.306 90.3454C101.072 89.9546 101.492 90.5374 102.05 90.7747C102.495 90.9543 102.734 91.9815 103.383 91.3133C103.457 90.6768 103.483 89.9867 103.929 89.5927C104.152 87.6494 102.55 88.1738 102.532 86.5699C102.473 86.4312 102.392 86.3756 102.323 86.405C102.235 86.4502 102.216 86.4996 102.196 86.5489C101.675 87.3263 102.215 88.406 101.62 89.2801C101.171 88.9146 100.719 88.5828 100.269 88.2173C99.6089 88.8004 99.0825 88.3121 98.4817 88.2072C98.031 88.1285 97.5982 88.034 97.1476 87.9553C96.9386 87.7904 96.7453 87.6434 96.5362 87.4785C95.6606 89.6173 94.2433 88.2636 93.2299 89.6346C92.8624 90.1178 92.3908 90.3753 91.9802 90.7377C93.2595 90.7837 94.9504 89.1007 95.6222 92.1288Z" fill="#EBB170"/>
<path d="M98.4302 88.2209C98.9681 88.7943 99.5144 89.2333 100.218 88.2311C100.101 88.2069 100.003 88.167 99.8881 88.1093C99.5425 87.9696 99.1969 87.83 98.8513 87.6904C98.7221 87.8679 98.5772 88.0276 98.4302 88.2209Z" fill="#935D45"/>
<path d="M102.144 86.5626C102.263 86.5531 102.364 86.5594 102.48 86.5836C102.512 86.0794 102.507 85.6067 102.178 85.4849C102.079 85.445 101.912 85.6877 101.771 85.7801C101.907 86.0417 102.042 86.3032 102.144 86.5626Z" fill="#DB9657"/>
<path d="M119.438 87.3704C120.12 88.0709 120.868 88.5224 121.696 88.7764C122.42 87.978 122.734 87.0021 122.388 85.7827C121.292 84.972 120.356 86.179 119.438 87.3704Z" fill="#C67B42"/>
<path d="M119.256 88.6751C119.03 89.8589 117.534 89.4957 117.937 91.4274C119.257 91.0878 120.559 90.7641 121.88 90.4245C121.17 89.368 120.147 89.2537 119.256 88.6751Z" fill="#C2753E"/>
<path d="M123.877 91.1394C124.478 89.8778 125.329 88.6822 124.688 87.0563L124.652 87.0879C124.23 87.9052 123.791 87.9115 123.26 87.7772C122.71 87.6586 122.099 87.7217 122.042 89.1692C122.263 89.4191 122.484 89.6691 122.686 89.9348C123.278 89.921 123.457 90.8433 123.877 91.1394Z" fill="#CE8A50"/>
<path d="M55.9036 53.7168C55.0551 54.8787 54.0489 55.3221 53.0994 55.9379L53.1268 56.0408C52.9797 56.2341 52.9336 56.4337 53.004 56.6574C53.13 56.8002 53.2666 56.775 53.3958 56.5975C54.7854 56.2285 55.9074 57.1758 57.0577 57.9392C57.1764 57.9297 57.293 57.9538 57.4117 57.9444C57.6343 57.6208 57.7918 57.2594 57.9041 56.8109C58.5454 53.8308 57.0885 54.1955 56.1546 53.7493C56.0717 53.7273 55.9887 53.7052 55.9036 53.7168Z" fill="#CF935E"/>
<path d="M56.1525 53.7829C56.1885 55.3711 58.5296 53.8129 57.5344 56.7878C57.9126 57.2163 58.3621 57.0419 58.819 57.0197C59.3988 56.9209 59.9766 56.8556 60.3146 55.7632C60.4434 53.9659 59.7638 53.7717 58.9288 53.9052C58.3657 53.7352 57.6599 54.2311 57.2795 53.2963C56.9212 52.8185 56.7428 53.516 56.5065 53.7881C56.3542 53.7954 56.2534 53.7891 56.1525 53.7829Z" fill="#DCA168"/>
<path d="M58.8952 53.9032C59.2587 54.567 60.1914 54.2202 60.0972 55.7328C60.4712 56.2285 60.5408 57.8188 61.4239 56.3722C61.3019 55.6222 60.7819 55.0331 61.3332 54.0382C60.8888 53.8587 60.1389 54.5206 60.2615 52.8242C60.3317 51.9681 59.7299 52.1499 59.3476 52.3285C58.7573 52.5955 58.8005 53.2561 58.8952 53.9032Z" fill="#EAB477"/>
<path d="M56.4551 53.8017C56.7187 53.6325 56.9823 53.4634 57.2281 53.3099C57.395 53.0673 57.5799 52.8088 57.7489 52.5326C57.7489 52.5326 57.6333 52.2217 57.5976 52.2532C57.1103 52.4928 56.6051 52.7481 56.4551 53.8017Z" fill="#B67D54"/>
<path d="M124.353 97.0405C124.237 97.2695 124.054 97.4943 124.046 97.6288C124.051 97.8147 124.205 98.0604 124.321 98.0846C124.554 98.1329 124.771 97.9101 124.749 97.4532C124.726 97.2831 124.51 97.219 124.353 97.0405Z" fill="#F2BF81"/>
<path d="M140.129 67.2324C140.136 68.2114 140.144 69.1567 140.151 70.1357C140.27 70.1262 140.404 70.1346 140.523 70.1251C142.873 67.6058 140.183 68.2649 140.129 67.2324Z" fill="#D7975D"/>
<path d="M62.061 87.5742C62.6512 86.7674 62.9303 84.9964 64.0238 85.5876C64.1226 85.6274 65.6917 84.8142 65.0275 83.0181C64.808 83.0213 64.5885 83.0245 64.3353 83.0256C64.0247 84.7609 63.2716 84.6633 62.4943 84.6824C61.9365 84.6982 61.2284 84.148 60.8748 85.7625C61.0408 86.3465 61.189 86.9463 61.3709 87.5481C61.5904 87.5449 61.8257 87.5596 62.061 87.5742Z" fill="#DB9D60"/>
<path d="M158.818 95.7464C158.717 95.7401 158.583 95.7317 158.482 95.7254C158.188 95.5721 158.041 95.7654 158.075 96.3074C159.432 96.7294 160.608 95.7229 161.629 93.9644C162.46 92.5315 161.513 93.1136 161.239 92.9109C161.01 92.7954 160.763 92.6957 160.518 92.5623C161.063 95.1945 159.173 94.385 158.818 95.7464Z" fill="#E89C4E"/>
<path d="M143.507 99.1283C143.518 98.9603 143.51 98.808 143.536 98.6578C142.875 98.4478 142.247 98.7798 141.704 99.6402C142.305 99.4584 142.907 99.2766 143.507 99.1283Z" fill="#E4A25F"/>
<path d="M158.075 96.3075C158.222 96.1142 158.335 95.9188 158.482 95.7255C157.946 93.4987 156.715 95.9191 155.866 95.4612C156.243 95.9233 156.603 96.3676 156.979 96.8297C157.212 96.3381 157.484 95.4946 157.7 96.6384C157.826 97.3211 157.966 97.5154 158.341 96.8977C158.251 96.7234 158.163 96.5154 158.075 96.3075Z" fill="#E7974A"/>
<path d="M53.3957 56.5974C53.2791 56.5733 53.1783 56.567 53.0438 56.5586C52.3463 56.3802 51.7919 57.1555 51.1869 57.6577C51.7589 60.3928 53.4162 59.2476 54.6378 59.4081C55.3059 59.5172 55.0263 58.5887 54.8781 57.9889C54.587 56.9754 53.6732 57.5596 53.3957 56.5974Z" fill="#B37247"/>
<path d="M122.076 89.1714C122.453 88.2669 122.951 87.8592 123.435 88.4799C124.514 89.8463 124.496 88.2424 124.686 87.09C124.318 87.0334 123.909 87.1091 123.749 86.4243C123.306 86.2111 122.882 85.9822 122.44 85.769C122.209 86.767 121.978 87.7649 121.747 88.7628C121.84 88.9036 121.95 89.0285 122.076 89.1714Z" fill="#BF733B"/>
<path d="M89.4651 54.2053C89.3778 53.7106 89.1309 53.6108 88.8463 53.5762C87.7853 53.2739 86.8316 53.417 86.4969 55.8088C86.9517 55.8202 87.4244 55.816 87.8792 55.8274C88.1626 54.5291 88.8296 54.385 89.4651 54.2053Z" fill="#C5874C"/>
<path d="M61.4061 56.3879C60.7392 57.0718 60.6738 55.4143 60.0793 55.7485C59.6215 56.5973 59.1067 56.194 58.6298 56.2655C58.44 57.9578 59.7762 58.176 59.6063 59.8188C60.726 59.7199 61.9866 60.0684 62.0091 56.9991C61.82 56.7849 61.613 56.5864 61.4061 56.3879Z" fill="#E0B284"/>
<path d="M59.6221 59.8368C60.4746 57.5278 58.6364 57.7845 58.6456 56.2834C58.2811 56.4463 57.8988 56.625 57.5501 56.8057C57.5092 57.1912 57.4683 57.5767 57.4096 57.978C58.1166 58.2751 59.8191 57.217 58.5287 60.3254C58.8774 60.1447 59.2419 59.9818 59.6221 59.8368Z" fill="#D8A779"/>
<path d="M91.4122 58.4264C91.6601 58.2394 91.7063 58.0398 91.4835 57.8235C91.1577 56.5547 90.6188 56.268 89.8028 57.1788C90.0477 58.392 90.0257 58.475 89.4679 58.4909C88.7736 58.532 88.1877 59.8115 87.4713 59.3956C87.3316 59.7412 87.1742 60.1026 87.0345 60.4482C88.5534 60.4416 90.0323 59.9939 91.4122 58.4264Z" fill="#BE7436"/>
<path d="M143.013 96.7692C142.806 96.5707 142.617 96.3564 142.41 96.158C142.397 96.3596 142.369 96.5435 142.356 96.7451L142.34 97.014L142.323 97.2829C142.646 97.5056 142.986 97.7461 143.327 97.9529C143.234 97.559 143.124 97.1473 143.013 96.7692Z" fill="#854A35"/>
<path d="M140.197 94.2992C139.987 94.9609 139.777 95.6227 139.565 96.3181C140.195 96.2392 140.79 96.1583 141.419 96.0794C141 95.4965 140.599 94.8978 140.197 94.2992Z" fill="#8D4220"/>
<path d="M141.667 93.7328C141.325 93.5259 141.018 93.3211 140.676 93.1142C140.83 93.8999 141.097 94.4902 141.528 94.8714C141.585 94.5038 141.626 94.1183 141.667 93.7328Z" fill="#9F562E"/>
<path d="M51.187 57.6576C51.8171 57.292 52.4137 56.9242 53.0439 56.5586C53.0722 56.3747 53.0827 56.2067 53.111 56.0228C52.652 56.0786 52.1751 56.1501 51.7003 56.188C51.547 56.4822 51.3937 56.7763 51.2404 57.0704C51.2279 57.2721 51.1995 57.4559 51.187 57.6576Z" fill="#BD8258"/>
<path d="M89.8185 57.1967C90.4477 57.1178 91.0286 57.2721 91.4993 57.8413C91.6525 57.0073 91.582 56.2437 91.4085 55.5074C90.7962 55.8573 90.1503 56.2051 89.538 56.555C89.6262 56.7629 89.7145 56.9709 89.8185 57.1967Z" fill="#C88649"/>
<path d="M91.9408 53.7353C91.3282 53.0054 90.926 53.2334 90.7865 54.6588C91.2161 54.5337 91.6163 54.3393 91.9408 53.7353Z" fill="#C88D56"/>
<path d="M155.773 92.081C155.745 92.2648 155.733 92.4665 155.704 92.6503C155.825 93.1471 156.038 93.2448 156.346 92.9096C156.58 92.6712 156.686 92.3235 156.521 91.9926C156.311 91.5746 156.017 91.9612 155.773 92.081Z" fill="#E7974A"/>
</g>
<defs>
<clipPath id="clip0_104_30922">
<rect width="122.667" height="120" fill="white" transform="translate(171.377 89.9658) rotate(138.566)"/>
</clipPath>
</defs>
</svg>
