<svg width="32" height="32" viewBox="0 0 32 32" fill="none" xmlns="http://www.w3.org/2000/svg">
<g id="&#240;&#159;&#166;&#134; icon &#34;Shopping cart&#34;">
<path id="Vector" d="M9.81296 29.4389C10.8969 29.4389 11.7756 28.5602 11.7756 27.4763C11.7756 26.3924 10.8969 25.5137 9.81296 25.5137C8.72905 25.5137 7.85037 26.3924 7.85037 27.4763C7.85037 28.5602 8.72905 29.4389 9.81296 29.4389Z" fill="#1F2937"/>
<path id="Vector_2" d="M23.5511 29.4389C24.635 29.4389 25.5137 28.5602 25.5137 27.4763C25.5137 26.3924 24.635 25.5137 23.5511 25.5137C22.4672 25.5137 21.5885 26.3924 21.5885 27.4763C21.5885 28.5602 22.4672 29.4389 23.5511 29.4389Z" fill="#1F2937"/>
<path id="Vector_3" d="M27.4763 6.86908H5.71114L4.90648 2.74764C4.8606 2.52265 4.73728 2.32088 4.55798 2.17744C4.37868 2.03399 4.15475 1.95797 3.92518 1.9626H0V3.92519H3.12052L6.86907 22.7661C6.91495 22.9911 7.03827 23.1928 7.21757 23.3363C7.39687 23.4797 7.6208 23.5557 7.85037 23.5511H25.5137V21.5885H8.65503L7.85037 17.6633H25.5137C25.7405 17.6689 25.9623 17.5956 26.1412 17.4561C26.3201 17.3165 26.4451 17.1193 26.495 16.8979L28.4576 8.06626C28.4905 7.92066 28.4897 7.76948 28.4553 7.62422C28.421 7.47896 28.354 7.34345 28.2593 7.22801C28.1647 7.11257 28.045 7.02024 27.9093 6.95804C27.7736 6.89584 27.6255 6.86542 27.4763 6.86908ZM24.7287 15.7007H7.47748L6.10366 8.83167H26.2497L24.7287 15.7007Z" fill="#1F2937"/>
</g>
</svg>
